<svg version="1.1" id="Layer_1" xmlns="http://www.w3.org/2000/svg" xmlns:xlink="http://www.w3.org/1999/xlink" x="0px" y="0px"
	 viewBox="0 0 440 520" style="enable-background:new 0 0 440 520;" xml:space="preserve">
<style type="text/css">
	.st0{fill:#212121;}
</style>
<g>
	<g>
		<g>
			<path class="st0" d="M380,520H60c-11,0-20-9-20-20V180c0-11,9-20,20-20h320c11,0,20,9,20,20v320C400,511,391,520,380,520z
				 M80,480h280V200H80V480z"/>
		</g>
		<g>
			<path class="st0" d="M420,200H20c-11,0-20-9-20-20v-80c0-11,9-20,20-20h400c11,0,20,9,20,20v80C440,191,431,200,420,200z M40,160
				h360v-40H40V160z"/>
		</g>
		<g>
			<path class="st0" d="M300,120H140c-11,0-20-9-20-20V20c0-11,9-20,20-20h160c11,0,20,9,20,20v80C320,111,311,120,300,120z M160,80
				h120V40H160V80z"/>
		</g>
		<g>
			<path class="st0" d="M140,460c-11,0-20-9-20-20V240c0-11,9-20,20-20s20,9,20,20v200C160,451,151,460,140,460z"/>
		</g>
		<g>
			<path class="st0" d="M300,460c-11,0-20-9-20-20V240c0-11,9-20,20-20s20,9,20,20v200C320,451,311,460,300,460z"/>
		</g>
		<g>
			<path class="st0" d="M220,460c-11,0-20-9-20-20V240c0-11,9-20,20-20s20,9,20,20v200C240,451,231,460,220,460z"/>
		</g>
	</g>
</g>
</svg>
