<?xml version="1.0" encoding="utf-8"?>
<!-- Generator: Adobe Illustrator 23.0.4, SVG Export Plug-In . SVG Version: 6.00 Build 0)  -->
<svg version="1.1" id="Layer_1" xmlns="http://www.w3.org/2000/svg" xmlns:xlink="http://www.w3.org/1999/xlink" x="0px" y="0px"
	 viewBox="0 0 53 53" style="enable-background:new 0 0 53 53;" xml:space="preserve">
<g>
	<path style="fill-rule:evenodd;clip-rule:evenodd;fill:#FFFFFF;" d="M0.3,5.4l5.2-5.2c0.5-0.4,1.2-0.4,1.6,0l19.4,19.4L45.9,0.3
		c0.5-0.4,1.2-0.4,1.6,0l5.2,5.2c0.5,0.5,0.5,1.2,0,1.6L33.2,26.5l19.4,19.4c0.5,0.5,0.5,1.2,0,1.6l-5.2,5.2c-0.4,0.5-1.1,0.5-1.6,0
		L26.5,33.2L7.1,52.6c-0.4,0.5-1.1,0.5-1.6,0l-5.2-5.2c-0.4-0.4-0.4-1.1,0-1.6l19.4-19.4L0.3,7.1C-0.1,6.7-0.1,5.9,0.3,5.4z"/>
</g>
</svg>
