<?xml version="1.0" encoding="utf-8"?>
<!-- Generator: Adobe Illustrator 23.0.4, SVG Export Plug-In . SVG Version: 6.00 Build 0)  -->
<svg version="1.1" id="Layer_1" xmlns="http://www.w3.org/2000/svg" xmlns:xlink="http://www.w3.org/1999/xlink" x="0px" y="0px"
	 viewBox="0 0 68 68" style="enable-background:new 0 0 68 68;" xml:space="preserve">
<path style="fill:#FFFFFF;" d="M44.7,20.5c-3.4-1.5-7.3-0.6-9.8,2.4c-0.2,0.3-0.6,0.4-0.9,0.4c-0.4,0-0.7-0.2-0.9-0.4
	c-1.7-2-4-3.1-6.4-3.1c-1.1,0-2.3,0.2-3.3,0.7c-3,1.4-6,4.9-5.1,10.8c1.1,7.6,8.6,12.6,15.8,16.6c7.3-4.6,14.8-9.3,15.9-16.6
	C50.7,25.5,47.8,21.9,44.7,20.5z M34,2.8c-17.3,0-31.3,14-31.3,31.3s14,31.3,31.3,31.3s31.3-14,31.3-31.3S51.3,2.8,34,2.8z
	 M52.3,31.7c-1.2,8.5-9.8,13.9-17.3,18.5l-0.3,0.2c-0.2,0.1-0.4,0.2-0.7,0.2c-0.2,0-0.4-0.1-0.6-0.2C25.5,46,17,40.5,15.7,31.6
	c-0.9-6,1.7-11.3,6.6-13.5c4-1.8,8.5-1,11.7,2c3.2-3,7.7-3.9,11.7-2C50.6,20.5,53.2,25.8,52.3,31.7z M34,0.8
	C15.7,0.8,0.7,15.7,0.7,34.1S15.6,67.4,34,67.4c18.3,0,33.3-14.9,33.3-33.3S52.3,0.8,34,0.8z M34,66.3C16.2,66.3,1.7,51.8,1.7,34
	S16.2,1.7,34,1.7S66.3,16.2,66.3,34S51.8,66.3,34,66.3z"/>
</svg>
