<svg id="f77e4385-c48d-41e3-b9e3-80eb7cb2f8e7" xmlns="http://www.w3.org/2000/svg" xmlns:xlink="http://www.w3.org/1999/xlink" width="379.66" height="143.77" viewBox="0 0 379.66 143.77"><defs><linearGradient id="linear-gradient" x1="-323.97" y1="1155.62" x2="-313.24" y2="1155.62" gradientTransform="matrix(-1.57, 0.39, 0.15, 0.59, -553.13, -540.55)" gradientUnits="userSpaceOnUse"><stop offset="0" stop-color="#fff"/><stop offset="1"/></linearGradient><linearGradient id="linear-gradient-2" x1="-312.75" y1="1177.99" x2="-302.28" y2="1177.99" gradientTransform="matrix(-1.57, 0.39, 0.15, 0.59, -553.13, -540.55)" gradientUnits="userSpaceOnUse"><stop offset="0" stop-color="#808184"/><stop offset="1" stop-color="#404041"/></linearGradient><linearGradient id="linear-gradient-3" x1="-350.81" y1="1195.04" x2="-324.51" y2="1184.47" xlink:href="#linear-gradient"/><linearGradient id="linear-gradient-4" x1="-323.03" y1="1167.56" x2="-312.75" y2="1167.56" xlink:href="#linear-gradient"/><linearGradient id="linear-gradient-5" x1="-301.46" y1="1200.4" x2="-291.37" y2="1200.4" xlink:href="#linear-gradient"/><linearGradient id="linear-gradient-6" x1="-339.23" y1="1220.94" x2="-312.75" y2="1210.3" xlink:href="#linear-gradient"/><linearGradient id="linear-gradient-7" x1="-311.34" y1="1190.71" x2="-301.46" y2="1190.71" xlink:href="#linear-gradient"/><linearGradient id="linear-gradient-8" x1="-334.51" y1="1144.65" x2="-323.97" y2="1144.65" xlink:href="#linear-gradient"/><linearGradient id="linear-gradient-9" x1="-363.99" y1="1167.12" x2="-337.23" y2="1156.36" xlink:href="#linear-gradient"/></defs><title>logoTeam</title><path d="M126.67,19.4l7.33-9a67.42,67.42,0,0,1,7.09-.79L133.43,19A42.46,42.46,0,0,0,126.67,19.4Z" fill="#231f20"/><path d="M117.43,21.09c-2.16.49-4.26,1-6.31,1.57l7.17-8.86c2.61-.7,5.29-1.36,8.06-2l-7.2,8.88Z" fill="url(#linear-gradient)"/><path d="M119.15,20.71l7.2-8.88,3-.64c1.65-.34,3.19-.61,4.64-.84l-7.33,9C124.46,19.68,122,20.1,119.15,20.71Z" fill="#fff"/><path d="M133.43,19l7.66-9.45a27.39,27.39,0,0,1,6.2.31L139.06,20A16.87,16.87,0,0,0,133.43,19Z" fill="#fff"/><path d="M84,32.18l7.4-9.13c3-1.23,6.16-2.45,9.42-3.66L93.64,28.3C90.3,29.56,87.11,30.87,84,32.18Z" fill="#fff"/><path d="M139.06,20l8.23-10.15a8.54,8.54,0,0,1,4.67,2.2l-9,11.13A7.59,7.59,0,0,0,139.06,20Z" fill="#231f20"/><path d="M102.65,25.15l7.16-8.84c2.73-.88,5.56-1.71,8.48-2.51l-7.17,8.86C108.19,23.44,105.36,24.27,102.65,25.15Z" fill="#fff"/><path d="M74,36.68l7.74-9.56c3.13-1.32,6.37-2.69,9.75-4.07L84,32.18C80.52,33.68,77.17,35.2,74,36.68Z" fill="#231f20"/><path d="M93.64,28.3l7.22-8.9q4.32-1.61,9-3.09l-7.16,8.84C99.51,26.16,96.52,27.22,93.64,28.3Z" fill="#231f20"/><path d="M63.72,41.34,72,31.17c3.15-1.26,6.38-2.63,9.74-4.05L74,36.68C70.41,38.3,67,39.88,63.72,41.34Z" fill="#fff"/><path d="M180.7,32.36l4.94-6.1c3.14-1.43,6.45-2.93,10-4.36L191,27.65C187.28,29.17,183.88,30.79,180.7,32.36Z" fill="#231f20"/><path d="M161.52,40.1l5.86-7.24a40.65,40.65,0,0,0,8.34-2.33l-5.52,6.83A41.13,41.13,0,0,1,161.52,40.1Z" fill="#231f20"/><path d="M170.2,37.36l5.52-6.83c3.14-1.19,6.42-2.68,9.92-4.27l-4.94,6.1C177,34.2,173.52,36,170.2,37.36Z" fill="#fff"/><path d="M191,27.65l4.66-5.75c2.87-1.17,5.9-2.28,9.09-3.27L200,24.42A93.05,93.05,0,0,0,191,27.65Z" fill="#fff"/><path d="M152.51,40a11.66,11.66,0,0,1-3-1L156,31.05a8.28,8.28,0,0,0,2.9,1.39,18,18,0,0,0,2.06.45l-6.08,7.5A22.81,22.81,0,0,1,152.51,40Z" fill="#231f20"/><path d="M144.66,29l9.17-11.3c0,2.71-.49,5.69-.28,8.3l-7.48,9.23A24.59,24.59,0,0,1,144.66,29Z" fill="#231f20"/><path d="M146.07,35.27,153.55,26a6.73,6.73,0,0,0,2.4,5L149.52,39A7.48,7.48,0,0,1,146.07,35.27Z" fill="#fff"/><path d="M142.94,23.21l9-11.13c1.44,1.48,1.83,3.48,1.87,5.66L144.66,29A15.3,15.3,0,0,0,142.94,23.21Z" fill="#fff"/><path d="M154.83,40.39l6.08-7.5a20.65,20.65,0,0,0,6.47,0l-5.86,7.24A23.82,23.82,0,0,1,154.83,40.39Z" fill="#fff"/><path d="M136.33,39.33l-7.75,9.57c-1-1.4-2-2.89-3-4.3l8.46-10.45A41.64,41.64,0,0,1,136.33,39.33Z" fill="#fff"/><path d="M125.59,28.68l-8,9.91a21.66,21.66,0,0,0-5.83-.77l7.53-9.3A29.67,29.67,0,0,1,125.59,28.68Z" fill="#231f20"/><path d="M130.63,30.44l-8.47,10.45a13.22,13.22,0,0,0-4.59-2.3l8-9.91A12.92,12.92,0,0,1,130.63,30.44Z" fill="#fff"/><path d="M119.27,28.52l-7.53,9.3a44.14,44.14,0,0,0-6.89.54L112,29.52A63.18,63.18,0,0,1,119.27,28.52Z" fill="#fff"/><path d="M134.07,34.15,125.61,44.6a17.37,17.37,0,0,0-3.45-3.71l8.47-10.45A10.29,10.29,0,0,1,134.07,34.15Z" fill="#231f20"/><path d="M105.51,31c2.37-.6,4.52-1.08,6.51-1.46l-7.17,8.84c-2.29.34-4.86.86-7.73,1.58l6.95-8.58Z" fill="url(#linear-gradient-2)"/><path d="M146.17,47.61c.88.13,1.75.22,2.6.26l-6.06,7.48q-1.38,0-2.88-.15a20.5,20.5,0,0,1-3-.52l6.33-7.82A15.09,15.09,0,0,0,146.17,47.61Z" fill="#231f20"/><path d="M143.14,46.86l-6.33,7.82a13.78,13.78,0,0,1-4.7-2.16L139,44A9.76,9.76,0,0,0,143.14,46.86Z" fill="#fff"/><path d="M139,44l-6.87,8.49a16.38,16.38,0,0,1-3.53-3.62l7.75-9.57A16.41,16.41,0,0,0,139,44Z" fill="#231f20"/><path d="M200,24.42l4.68-5.79c2.61-.8,5.32-1.51,8.16-2.1l-4.78,5.9C205.26,23,202.58,23.66,200,24.42Z" fill="#231f20"/><path d="M76.91,41,70,49.48c-3.83,1.74-7.37,3.51-10.7,5.25l7.14-8.82C69.77,44.28,73.23,42.63,76.91,41Z" fill="#231f20"/><path d="M45.41,56a79.31,79.31,0,0,1-9,3.12L45.4,48a81.7,81.7,0,0,0,8.65-2.7Z" fill="#231f20"/><path d="M36.85,66.54a76.65,76.65,0,0,1-9.38,3.62l9-11.07a79.31,79.31,0,0,0,9-3.12Z" fill="#fff"/><path d="M55.66,51.29l-7.82,9.65c-3.75,2-7.35,3.94-11,5.6L45.41,56C48.79,54.59,52.17,53,55.66,51.29Z" fill="#231f20"/><path d="M104.07,31.36l-6.95,8.58c-1.13.28-2.31.6-3.54.94-1.67.48-3.28,1-4.85,1.45l6.89-8.5C98.32,33,101.13,32.14,104.07,31.36Z" fill="#fff"/><path d="M45.4,48l9-11.09a83.89,83.89,0,0,0,8.34-2.33L54.05,45.32A81.7,81.7,0,0,1,45.4,48Z" fill="#fff"/><path d="M95.62,33.83l-6.89,8.5q-4.73,1.5-9,3.11L86.61,37Q90.9,35.33,95.62,33.83Z" fill="#231f20"/><path d="M86.61,37l-6.85,8.46c-3.46,1.31-6.68,2.66-9.73,4L76.91,41C80,39.63,83.2,38.28,86.61,37Z" fill="#fff"/><path d="M66.47,45.91l-7.14,8.82c-4.08,2.14-7.85,4.24-11.49,6.21l7.82-9.65C59.12,49.59,62.69,47.77,66.47,45.91Z" fill="#fff"/><path d="M54.05,45.32,62.73,34.6c3-1,6.07-2.16,9.22-3.43L63.72,41.34C60.42,42.81,57.21,44.15,54.05,45.32Z" fill="#231f20"/><path d="M226.14,24.06,231.89,17c1.66,1.58,1.53,4,1.16,6.53l-5.52,6.81C227.41,28,227.34,25.76,226.14,24.06Z" fill="#231f20"/><path d="M359.84,34.27l.63-.78a97.74,97.74,0,0,0,9.25-3.44l-.5.61A86,86,0,0,1,359.84,34.27Z" fill="#231f20"/><path d="M368.62,31.4l.6-.74a94.57,94.57,0,0,0,10.22-5.35l0,0A84.42,84.42,0,0,1,368.62,31.4Z" fill="#231f20"/><path d="M369.72,30.05c4.79-2.06,8.4-4,9.68-4.72l0,0a94.57,94.57,0,0,1-10.22,5.35Z" fill="#fff"/><path d="M352.39,35.51l.58-.72a74.5,74.5,0,0,0,8.08-2l-.58.71A68.16,68.16,0,0,1,352.39,35.51Z" fill="#231f20"/><path d="M361.05,32.78c3.27-1,6.37-2.15,9.08-3.25l-.41.52a97.74,97.74,0,0,1-9.25,3.44Z" fill="#fff"/><path d="M345.35,36.23l.53-.66a45.64,45.64,0,0,0,7.09-.78l-.58.72A43.88,43.88,0,0,1,345.35,36.23Z" fill="#fff"/><path d="M337.73,35.3c-1.18-.34-2.35-.76-3.54-1.23l.67-.83c.81.4,1.61.76,2.43,1.07a16.2,16.2,0,0,0,2.55.75l-.52.64C338.79,35.58,338.26,35.45,337.73,35.3Z" fill="#231f20"/><path d="M329.46,32l1-1.24a46.81,46.81,0,0,0,4.4,2.53l-.67.83C332.62,33.45,331.05,32.73,329.46,32Z" fill="#fff"/><path d="M339.32,35.7l.52-.64a25.52,25.52,0,0,0,6,.51l-.53.66A28.42,28.42,0,0,1,339.32,35.7Z" fill="#231f20"/><path d="M332.58,36.06l-.91,1.12c-1.81-.33-3.66-.71-5.55-1.11l1.16-1.43Q330,35.42,332.58,36.06Z" fill="#231f20"/><path d="M338.62,37.28a35.56,35.56,0,0,0,5.55.4l-.64.8a41.67,41.67,0,0,1-4.47-.21l-1.66-.19.71-.88Z" fill="#231f20"/><path d="M338.11,37.2l-.71.88c-1.86-.23-3.77-.54-5.73-.9l.91-1.12C334.47,36.51,336.31,36.9,338.11,37.2Z" fill="#fff"/><path d="M379.44,25.31l0,0,0,0,0,0Z" fill="#fff"/><path d="M324.89,29.61l1.4-1.73c1.41,1,2.79,1.95,4.17,2.83l-1,1.24C328,31.21,326.44,30.42,324.89,29.61Z" fill="#231f20"/><path d="M351.12,37.07l-.68.84a47.13,47.13,0,0,1-6.91.57l.64-.8A43.78,43.78,0,0,0,351.12,37.07Z" fill="#231f20"/><path d="M379.51,25.27h0l0,0h0Z" fill="#fff"/><path d="M379.48,25.29h0a72.91,72.91,0,0,1-11.59,7l.69-.86A84.42,84.42,0,0,0,379.48,25.29Z" fill="#fff"/><path d="M359.14,35.13l-.74.92a57.11,57.11,0,0,1-8,1.86l.68-.84A59.31,59.31,0,0,0,359.14,35.13Z" fill="#fff"/><path d="M368.62,31.4l-.69.86a70.55,70.55,0,0,1-9.53,3.79l.74-.92A76.44,76.44,0,0,0,368.62,31.4Z" fill="#231f20"/><path d="M262.35,27.15l2.72-3.35a98.49,98.49,0,0,1,9.87-4.21l-2.62,3.23A91.54,91.54,0,0,0,262.35,27.15Z" fill="#231f20"/><path d="M233.79,39.12l-.4-.1,3.64-4.5a14.83,14.83,0,0,0,6,.61l-3.62,4.47A18.73,18.73,0,0,1,233.79,39.12Z" fill="#fff"/><path d="M239.37,39.6,243,35.13c3.32-.38,6.25-2.05,10-4.38l-3.6,4.45C245.85,37.62,243.05,39.3,239.37,39.6Z" fill="#231f20"/><path d="M210.43,22c-.79.14-1.57.27-2.33.42l4.78-5.9c1.74-.36,3.52-.67,5.36-.93.72-.1,1.39-.18,2-.24l-4.88,6C213.93,21.5,212.29,21.71,210.43,22Z" fill="#fff"/><path d="M320.38,27.22l1.8-2.23c1.41,1,2.77,2,4.11,2.89l-1.4,1.73C323.42,28.83,321.91,28,320.38,27.22Z" fill="#fff"/><path d="M229.05,36.4,233,31.53a5.73,5.73,0,0,0,3.91,3l.12,0L233.39,39A7.29,7.29,0,0,1,229.05,36.4Z" fill="#231f20"/><path d="M215.4,21.39l4.89-6a33.74,33.74,0,0,1,6.59-.18l-5.18,6.39A23.73,23.73,0,0,0,215.4,21.39Z" fill="#231f20"/><path d="M221.7,21.57l5.18-6.39c2.47.23,4,.87,5,1.79l-5.75,7.09A6.6,6.6,0,0,0,221.7,21.57Z" fill="#fff"/><path d="M227.53,30.31l5.52-6.81c-.41,2.81-1.11,5.79-.05,8l-3.95,4.87C227.8,34.69,227.65,32.5,227.53,30.31Z" fill="#fff"/><path d="M155.66,47.33l-5.84,7.22a28.83,28.83,0,0,1-7.11.8l6.06-7.48A26.56,26.56,0,0,0,155.66,47.33Z" fill="#fff"/><path d="M249.38,35.2l3.6-4.45a131.74,131.74,0,0,1,12.09-6.95l-2.72,3.35A107,107,0,0,0,249.38,35.2Z" fill="#fff"/><path d="M300.7,19.65l2.91-3.6a39.44,39.44,0,0,1,5.21,1.55L306.05,21A48.73,48.73,0,0,0,300.7,19.65Z" fill="#fff"/><path d="M306.05,21l2.77-3.41a45.52,45.52,0,0,1,4.74,2.1l-2.51,3.11C309.43,22.15,307.76,21.54,306.05,21Z" fill="#231f20"/><path d="M327.28,34.64l-1.16,1.43c-1.8-.38-3.62-.79-5.48-1.21l1.43-1.76C323.83,33.63,325.57,34.15,327.28,34.64Z" fill="#fff"/><path d="M315.79,24.92l2.19-2.7c1.44.9,2.84,1.83,4.2,2.77l-1.8,2.23Q318.13,26.05,315.79,24.92Z" fill="#231f20"/><path d="M294.87,18.88l2.94-3.63a39.09,39.09,0,0,1,5.8.8l-2.91,3.6A45.59,45.59,0,0,0,294.87,18.88Z" fill="#231f20"/><path d="M276.46,21.37c-1.45.48-2.83,1-4.14,1.45l2.62-3.23c2.06-.76,4.28-1.5,6.68-2.22.68-.21,1.36-.39,2-.56L281,20.1C279.5,20.45,278,20.87,276.46,21.37Z" fill="#fff"/><path d="M281,20.1l2.66-3.29a50.19,50.19,0,0,1,7.59-1.4l-2.85,3.52A48.51,48.51,0,0,0,281,20.1Z" fill="#231f20"/><path d="M288.38,18.93l2.85-3.52a41.34,41.34,0,0,1,6.58-.16l-2.94,3.63A43.94,43.94,0,0,0,288.38,18.93Z" fill="#fff"/><path d="M311.05,22.81l2.51-3.11q2.29,1.18,4.42,2.52l-2.19,2.7C314.25,24.18,312.67,23.47,311.05,22.81Z" fill="#fff"/><path d="M210.5,27.44l4.9-6.05a23.73,23.73,0,0,1,6.3.18l-5.25,6.49A17.58,17.58,0,0,0,210.5,27.44Z" fill="#fff"/><path d="M164.73,44.1l5.47-6.74c3.32-1.41,6.77-3.16,10.5-5L176,38.21C171.93,40.34,168.28,42.41,164.73,44.1Z" fill="#231f20"/><path d="M225.09,41.29l4-4.89A7.35,7.35,0,0,0,233.39,39l-3.68,4.54A9.41,9.41,0,0,1,225.09,41.29Z" fill="#fff"/><path d="M222.51,36.51l5-6.2c.12,2.19.27,4.38,1.52,6.09l-4,4.89A10.59,10.59,0,0,1,222.51,36.51Z" fill="#231f20"/><path d="M216.45,28.06l5.25-6.49a6.64,6.64,0,0,1,4.44,2.49l-5.66,7A7.05,7.05,0,0,0,216.45,28.06Z" fill="#231f20"/><path d="M176,38.21l4.74-5.85c3.18-1.57,6.58-3.19,10.27-4.71l-4.54,5.6C182.59,34.82,179.15,36.53,176,38.21Z" fill="#fff"/><path d="M186.43,33.25l4.54-5.6A93.05,93.05,0,0,1,200,24.42l-4.64,5.72A86.44,86.44,0,0,0,186.43,33.25Z" fill="#231f20"/><path d="M203.36,28.29l4.74-5.86c.76-.15,1.54-.28,2.33-.42,1.86-.3,3.5-.51,5-.62l-4.9,6.05A50.23,50.23,0,0,0,203.36,28.29Z" fill="#231f20"/><path d="M303.42,24.26,306.05,21c1.71.53,3.38,1.14,5,1.8l-2.4,3C306.94,25.22,305.19,24.71,303.42,24.26Z" fill="#fff"/><path d="M220.48,31.05l5.66-7c1.2,1.7,1.27,4,1.39,6.25l-5,6.2A21.77,21.77,0,0,0,220.48,31.05Z" fill="#fff"/><path d="M285.55,22.42l2.83-3.49a43.94,43.94,0,0,1,6.49-.05L292,22.42A51.41,51.41,0,0,0,285.55,22.42Z" fill="#231f20"/><path d="M292,22.42l2.87-3.54a45.59,45.59,0,0,1,5.83.77l-2.8,3.45Q295,22.62,292,22.42Z" fill="#fff"/><path d="M297.9,23.1l2.8-3.45A48.73,48.73,0,0,1,306.05,21l-2.63,3.25Q300.71,23.58,297.9,23.1Z" fill="#231f20"/><path d="M278.3,23.39,281,20.1a48.51,48.51,0,0,1,7.4-1.17l-2.83,3.49A50.7,50.7,0,0,0,278.3,23.39Z" fill="#fff"/><path d="M245.69,39.76l3.69-4.56a107,107,0,0,1,13-8.05l-2.57,3.18A86.36,86.36,0,0,0,245.69,39.76Z" fill="#231f20"/><path d="M235.75,44.06l3.62-4.46c3.68-.3,6.48-2,10-4.4l-3.69,4.56C242.48,42.19,239.84,43.83,235.75,44.06Z" fill="#fff"/><path d="M230.69,43.74c-.35-.05-.67-.11-1-.18L233.39,39l.4.11a19.07,19.07,0,0,0,5.58.48l-3.62,4.46A23.2,23.2,0,0,1,230.69,43.74Z" fill="#231f20"/><path d="M271.3,25.38l-1.5.54,2.52-3.1c1.31-.49,2.69-1,4.14-1.45s3-.92,4.52-1.27l-2.68,3.29A53.17,53.17,0,0,0,271.3,25.38Z" fill="#231f20"/><path d="M259.78,30.33l2.57-3.18a91.54,91.54,0,0,1,10-4.33l-2.52,3.1A92,92,0,0,0,259.78,30.33Z" fill="#fff"/><path d="M202.63,28.42c-2.55.49-4.95,1.07-7.23,1.72L200,24.42c2.54-.76,5.22-1.43,8.06-2l-4.75,5.86Z" fill="#fff"/><path d="M76.91,41,84,32.18c3.07-1.31,6.26-2.62,9.6-3.88l-7,8.68C83.2,38.28,80,39.63,76.91,41Z" fill="#231f20"/><path d="M66.47,45.91,74,36.68c3.22-1.48,6.57-3,10.09-4.5L76.91,41C73.23,42.63,69.77,44.28,66.47,45.91Z" fill="#fff"/><path d="M86.61,37l7-8.68c2.88-1.08,5.87-2.14,9-3.15l-7,8.68Q90.9,35.33,86.61,37Z" fill="#fff"/><path d="M55.66,51.29l8.06-9.95c3.3-1.46,6.69-3,10.23-4.66l-7.48,9.23C62.69,47.77,59.12,49.59,55.66,51.29Z" fill="#231f20"/><path d="M45.41,56l8.64-10.65c3.16-1.17,6.37-2.51,9.67-4l-8.06,9.95C52.17,53,48.79,54.59,45.41,56Z" fill="#fff"/><path d="M379.54,25.26l0,0,0,0h0Z" fill="#fff"/><path d="M379.66,25.17l0,0,0,0A.1.1,0,0,1,379.66,25.17Z" fill="#fff"/><path d="M95.62,33.83l7-8.68c2.71-.87,5.54-1.71,8.47-2.49l-7.05,8.7C101.13,32.14,98.32,33,95.62,33.83Z" fill="#231f20"/><path d="M369.22,30.66l-.6.74a76.44,76.44,0,0,1-9.48,3.73l.7-.86A86,86,0,0,0,369.22,30.66Z" fill="#fff"/><path d="M130.63,30.44,139.06,20a7.66,7.66,0,0,1,3.88,3.19l-8.87,10.94A10.29,10.29,0,0,0,130.63,30.44Z" fill="#fff"/><path d="M136.33,39.33,144.66,29a24.59,24.59,0,0,0,1.41,6.23L139,44A16.41,16.41,0,0,1,136.33,39.33Z" fill="#fff"/><path d="M134.07,34.15l8.87-10.94A15.3,15.3,0,0,1,144.66,29l-8.33,10.29A41.64,41.64,0,0,0,134.07,34.15Z" fill="url(#linear-gradient-3)"/><path d="M139,44l7.09-8.76A7.48,7.48,0,0,0,149.52,39l-6.38,7.87A9.76,9.76,0,0,1,139,44Z" fill="#231f20"/><path d="M146.17,47.61a14.44,14.44,0,0,1-3-.75L149.52,39a11.66,11.66,0,0,0,3,1,22.81,22.81,0,0,0,2.32.36l-6.06,7.48C147.92,47.83,147.05,47.74,146.17,47.61Z" fill="#fff"/><path d="M155.66,47.33l5.86-7.23a41.13,41.13,0,0,0,8.68-2.74l-5.47,6.74A41,41,0,0,1,155.66,47.33Z" fill="#fff"/><path d="M112,29.52l7.13-8.81c2.82-.61,5.31-1,7.52-1.31l-7.4,9.12A63.18,63.18,0,0,0,112,29.52Z" fill="url(#linear-gradient-4)"/><path d="M105.51,31l-1.44.38,7.05-8.7c2-.55,4.15-1.08,6.31-1.57l1.72-.38L112,29.52C110,29.9,107.88,30.38,105.51,31Z" fill="#fff"/><path d="M119.27,28.52l7.4-9.12a42.46,42.46,0,0,1,6.76-.39l-7.84,9.67A29.67,29.67,0,0,0,119.27,28.52Z" fill="#fff"/><path d="M125.59,28.68,133.43,19a16.87,16.87,0,0,1,5.63,1l-8.43,10.42A12.92,12.92,0,0,0,125.59,28.68Z" fill="#231f20"/><path d="M202.63,28.42l.73-.13-4.71,5.81c-1.19.19-2.46.43-3.82.73s-2.73.63-4,1l4.59-5.67C197.68,29.49,200.08,28.91,202.63,28.42Z" fill="#231f20"/><path d="M245.69,39.76l-3.88,4.78a14.67,14.67,0,0,1-9.69,4l3.63-4.48C239.84,43.83,242.48,42.19,245.69,39.76Z" fill="#231f20"/><path d="M259.78,30.33l-2.42,3c-8.34,4.34-12.15,8.39-15.55,11.22l3.88-4.78A86.36,86.36,0,0,1,259.78,30.33Z" fill="#fff"/><path d="M303.42,24.26l-2.53,3.12q-2.82-.55-5.68-.95l2.69-3.33Q300.71,23.58,303.42,24.26Z" fill="#fff"/><path d="M230.69,43.74a23.2,23.2,0,0,0,5.06.32l-3.63,4.48a30.06,30.06,0,0,1-4.55-.17c-.56-.06-1.08-.13-1.58-.23l3.72-4.58C230,43.63,230.34,43.69,230.69,43.74Z" fill="#fff"/><path d="M269.8,25.92l-2.42,3c-.41.15-.82.3-1.24.47a85.23,85.23,0,0,0-8.78,3.94l2.42-3A92,92,0,0,1,269.8,25.92Z" fill="#231f20"/><path d="M297.9,23.1l-2.7,3.33c-2-.26-4-.46-6-.56L292,22.42Q295,22.62,297.9,23.1Z" fill="#231f20"/><path d="M292,22.42l-2.79,3.45q-3.22-.16-6.45,0l2.79-3.44A51.41,51.41,0,0,1,292,22.42Z" fill="#fff"/><path d="M308.65,25.77l2.4-3c1.62.66,3.2,1.37,4.74,2.11l-2.1,2.59C312,26.9,310.36,26.31,308.65,25.77Z" fill="#231f20"/><path d="M271.3,25.38a53.17,53.17,0,0,1,7-2l-2.66,3.3a51.39,51.39,0,0,0-8.26,2.22l2.42-3Z" fill="#fff"/><path d="M229.71,43.56,226,48.14a12,12,0,0,1-4.88-1.94l4-4.91A9.41,9.41,0,0,0,229.71,43.56Z" fill="#231f20"/><path d="M195.4,30.14l-4.59,5.67A82.56,82.56,0,0,0,182,38.72l4.43-5.47A86.44,86.44,0,0,1,195.4,30.14Z" fill="#fff"/><path d="M225.09,41.29l-4,4.91a12.08,12.08,0,0,1-3.35-3.83l4.75-5.86A10.59,10.59,0,0,0,225.09,41.29Z" fill="#fff"/><path d="M186.43,33.25,182,38.72a90.58,90.58,0,0,0-10.52,5L176,38.21C179.15,36.53,182.59,34.82,186.43,33.25Z" fill="#231f20"/><path d="M176,38.21l-4.48,5.54c-4.47,2.46-8.31,4.94-12.11,7l5.36-6.61C168.28,42.41,171.93,40.34,176,38.21Z" fill="#fff"/><path d="M164.73,44.1l-5.36,6.61a39.54,39.54,0,0,1-9.55,3.84l5.84-7.22A41,41,0,0,0,164.73,44.1Z" fill="#231f20"/><path d="M222.51,36.51l-4.75,5.86c-.93-1.54-1.68-3.16-2.73-4.6l5.45-6.72A21.77,21.77,0,0,1,222.51,36.51Z" fill="#231f20"/><path d="M210.5,27.44l-4.94,6.1a37.18,37.18,0,0,0-6.91.56l4.71-5.81A50.23,50.23,0,0,1,210.5,27.44Z" fill="#fff"/><path d="M220.48,31.05,215,37.77a9.28,9.28,0,0,0-3.88-3.16l5.3-6.55A7.05,7.05,0,0,1,220.48,31.05Z" fill="#fff"/><path d="M216.45,28.06l-5.3,6.55a14.7,14.7,0,0,0-5.59-1.07l4.94-6.11A17.84,17.84,0,0,1,216.45,28.06Z" fill="#231f20"/><path d="M285.55,22.42l-2.79,3.44a54.86,54.86,0,0,0-7.12.83l2.66-3.3A50.7,50.7,0,0,1,285.55,22.42Z" fill="#231f20"/><path d="M338.75,36.4l.57-.7a28.42,28.42,0,0,0,6,.53l-.57.7A30.53,30.53,0,0,1,338.75,36.4Z" fill="#fff"/><path d="M344.78,36.93l.57-.7a43.88,43.88,0,0,0,7-.72l-.62.76A43.18,43.18,0,0,1,344.78,36.93Z" fill="#231f20"/><path d="M351.77,36.27l.62-.76a68.16,68.16,0,0,0,8.08-2l-.63.78A60.58,60.58,0,0,1,351.77,36.27Z" fill="#fff"/><path d="M359.84,34.27l-.7.86a59.31,59.31,0,0,1-8,1.94l.65-.8A60.58,60.58,0,0,0,359.84,34.27Z" fill="#231f20"/><path d="M338.18,36.29q-2.34-.51-4.75-1.28l.76-.94c1.19.47,2.36.89,3.54,1.23.53.15,1.06.28,1.59.4l-.57.7Z" fill="#fff"/><path d="M313.69,27.51l2.1-2.59q2.34,1.13,4.59,2.3l-1.76,2.18C317,28.76,315.36,28.12,313.69,27.51Z" fill="#fff"/><path d="M328.39,33.26,329.46,32c1.59.78,3.16,1.5,4.73,2.12l-.76.94C331.78,34.5,330.1,33.9,328.39,33.26Z" fill="#231f20"/><path d="M318.62,29.4l1.76-2.18c1.53.8,3,1.61,4.51,2.39l-1.4,1.74C321.89,30.71,320.27,30.05,318.62,29.4Z" fill="#231f20"/><path d="M323.49,31.35l1.4-1.74c1.55.81,3.07,1.6,4.57,2.34l-1.07,1.31C326.78,32.66,325.15,32,323.49,31.35Z" fill="#fff"/><path d="M344.78,36.93l-.61.75a35.56,35.56,0,0,1-5.55-.4l-.51-.08.64-.8A30.53,30.53,0,0,0,344.78,36.93Z" fill="#fff"/><path d="M318.62,29.4l-1.73,2.13q-2.58-.78-5.22-1.52l2-2.5C315.36,28.12,317,28.76,318.62,29.4Z" fill="#231f20"/><path d="M323.49,31.35l-1.42,1.75c-1.7-.52-3.43-1.05-5.18-1.57l1.73-2.13C320.27,30.05,321.89,30.71,323.49,31.35Z" fill="#fff"/><path d="M313.69,27.51l-2,2.5q-2.62-.75-5.31-1.41l2.29-2.83C310.36,26.31,312,26.9,313.69,27.51Z" fill="#fff"/><path d="M328.39,33.26l-1.11,1.38c-1.71-.49-3.45-1-5.21-1.54l1.42-1.75C325.15,32,326.78,32.66,328.39,33.26Z" fill="#231f20"/><path d="M338.18,36.29l.57.11-.64.8c-1.8-.3-3.64-.69-5.53-1.14l.85-1.05C335,35.52,336.62,36,338.18,36.29Z" fill="#231f20"/><path d="M308.65,25.77l-2.29,2.83q-2.72-.68-5.47-1.22l2.53-3.12C305.19,24.71,306.94,25.22,308.65,25.77Z" fill="#231f20"/><path d="M333.43,35l-.85,1.05q-2.59-.64-5.3-1.42l1.11-1.38C330.1,33.9,331.78,34.5,333.43,35Z" fill="#fff"/><path d="M351.77,36.27l-.65.8a43.78,43.78,0,0,1-6.95.61l.61-.75A43.18,43.18,0,0,0,351.77,36.27Z" fill="#fff"/><path d="M148.77,47.87l6.06-7.48a23.82,23.82,0,0,0,6.69-.29l-5.86,7.23A26.56,26.56,0,0,1,148.77,47.87Z" fill="#231f20"/><path d="M379.59,25.22h0l0,0Z" fill="#fff"/><path d="M379.54,25.26l0,0,0,0,0,0Z" fill="#fff"/><path d="M367.93,32.26l-.81,1a62.52,62.52,0,0,1-9.5,3.75l.78-1A70.55,70.55,0,0,0,367.93,32.26Z" fill="#fff"/><path d="M379.52,25.28l0,0a62.74,62.74,0,0,1-12.43,8l.81-1A72.91,72.91,0,0,0,379.52,25.28Z" fill="#231f20"/><path d="M379.57,25.24l0,0v0l0,0Z" fill="#fff"/><path d="M379.61,25.21l0,0a0,0,0,0,0,0,0h0Z" fill="#fff"/><path d="M379.5,25.28l.07-.05,0,0A.05.05,0,0,0,379.5,25.28Z" fill="#fff"/><path d="M379.57,25.24l0,0,0,0h0Z" fill="#fff"/><path d="M379.57,25.23a.05.05,0,0,1,0,0h0Z" fill="#fff"/><path d="M379.51,25.27l0,0h0a.05.05,0,0,1,0,0Z" fill="#fff"/><path d="M326.12,36.07l-1.2,1.47c-1.87-.28-3.77-.59-5.71-.91l1.43-1.77C322.5,35.28,324.32,35.69,326.12,36.07Z" fill="#231f20"/><path d="M315.19,33.62l-1.67,2.07q-2.83-.46-5.72-.9l1.91-2.36C311.56,32.82,313.38,33.22,315.19,33.62Z" fill="#231f20"/><path d="M320.64,34.86l-1.43,1.77-5.69-.94,1.67-2.07Z" fill="#fff"/><path d="M309.71,32.43l-1.91,2.36c-1.92-.3-3.84-.58-5.78-.84l2.13-2.63Q307,31.85,309.71,32.43Z" fill="#fff"/><path d="M339.06,38.27a41.67,41.67,0,0,0,4.47.21l-.7.85c-1.09,0-2.2,0-3.33-.07l-2.89-.21.79-1Z" fill="#fff"/><path d="M358.4,36.05l-.78,1a53.24,53.24,0,0,1-7.89,1.77l.71-.87A57.11,57.11,0,0,0,358.4,36.05Z" fill="#231f20"/><path d="M350.44,37.91l-.71.87a49.76,49.76,0,0,1-6.9.55l.7-.85A47.13,47.13,0,0,0,350.44,37.91Z" fill="#fff"/><path d="M331.67,37.18l-1,1.2q-2.82-.37-5.78-.84l1.2-1.47C328,36.47,329.86,36.85,331.67,37.18Z" fill="#fff"/><path d="M337.4,38.08l-.79,1c-1.9-.17-3.88-.4-5.91-.67l1-1.2C333.63,37.54,335.54,37.85,337.4,38.08Z" fill="#231f20"/><path d="M379.44,25.31l0,0,0,0,0,0Z" fill="#fff"/><path d="M379.44,25.31l.06,0h0Z" fill="#fff"/><path d="M330.46,30.71l.92-1.14a32.63,32.63,0,0,0,4.05,3l-.57.7A44.7,44.7,0,0,1,330.46,30.71Z" fill="#231f20"/><path d="M322.18,25,324,22.7c1.25,1.17,2.45,2.34,3.64,3.48l-1.39,1.7C325,26.94,323.59,26,322.18,25Z" fill="#231f20"/><path d="M326.29,27.88l1.39-1.7c1.24,1.19,2.46,2.33,3.7,3.39l-.92,1.14C329.08,29.83,327.7,28.87,326.29,27.88Z" fill="#fff"/><path d="M318,22.22l2.3-2.84c1.31,1.07,2.56,2.19,3.76,3.32L322.18,25C320.82,24.05,319.42,23.12,318,22.22Z" fill="#fff"/><path d="M291.23,15.41l2.86-3.53a39.48,39.48,0,0,1,6.7-.31l-3,3.68A41.28,41.28,0,0,0,291.23,15.41Z" fill="#231f20"/><path d="M297.81,15.25l3-3.68a32.79,32.79,0,0,1,5.83.77l-3,3.71A39.09,39.09,0,0,0,297.81,15.25Z" fill="#fff"/><path d="M308.82,17.6,311.71,14a32.55,32.55,0,0,1,4.51,2.41l-2.66,3.27A45.52,45.52,0,0,0,308.82,17.6Z" fill="#fff"/><path d="M303.61,16.05l3-3.71A30.34,30.34,0,0,1,311.71,14l-2.89,3.58A39.44,39.44,0,0,0,303.61,16.05Z" fill="#231f20"/><path d="M313.56,19.7l2.66-3.27a43.29,43.29,0,0,1,4.06,2.95L318,22.22Q315.85,20.89,313.56,19.7Z" fill="#231f20"/><path d="M337.29,34.31c-.82-.31-1.62-.67-2.43-1.07l.57-.7c.47.28.94.54,1.42.78a14.35,14.35,0,0,0,3.45,1.18l-.46.56A16.2,16.2,0,0,1,337.29,34.31Z" fill="#fff"/><path d="M369.72,30.05l.41-.52c4.52-1.83,8-3.53,9.24-4.18l0,0C378.12,26,374.51,28,369.72,30.05Z" fill="#fff"/><path d="M370.48,29.1c4.33-1.65,7.63-3.16,8.89-3.75-1.28.65-4.72,2.35-9.24,4.18Z" fill="#fff"/><path d="M304.15,31.32,302,34q-2.92-.39-5.88-.7l2.33-2.88Q301.32,30.79,304.15,31.32Z" fill="#231f20"/><path d="M379.37,25.35l.07,0,0,0Z" fill="#fff"/><path d="M361.05,32.78l.52-.65c3.2-.94,6.25-2,8.91-3l-.35.43C367.42,30.63,364.32,31.78,361.05,32.78Z" fill="#231f20"/><path d="M339.84,35.06l.46-.56a25.81,25.81,0,0,0,6.08.45l-.5.62A25.52,25.52,0,0,1,339.84,35.06Z" fill="#fff"/><path d="M345.88,35.57l.5-.62a47.48,47.48,0,0,0,7.14-.84l-.55.68A45.64,45.64,0,0,1,345.88,35.57Z" fill="#231f20"/><path d="M283.64,16.81l2.68-3.32.46-.12a53.51,53.51,0,0,1,7.31-1.49l-2.86,3.53A50.19,50.19,0,0,0,283.64,16.81Z" fill="#fff"/><path d="M353,34.79l.55-.68a79.42,79.42,0,0,0,8.05-2l-.52.65A74.5,74.5,0,0,1,353,34.79Z" fill="#fff"/><path d="M97.59,47.33l-7.41,9.14a46.88,46.88,0,0,0-7,.68l7-8.65A57.83,57.83,0,0,1,97.59,47.33Z" fill="url(#linear-gradient-5)"/><path d="M117.58,54.51,109.92,64c-1.35-1-2.68-2-4.09-2.92l8-9.92A37.08,37.08,0,0,1,117.58,54.51Z" fill="#231f20"/><path d="M109.46,48.6l-8.07,10A23.86,23.86,0,0,0,96.24,57l7.81-9.64A20.61,20.61,0,0,1,109.46,48.6Z" fill="#231f20"/><path d="M104.05,47.32,96.24,57a30,30,0,0,0-6.06-.49l7.41-9.14A32.43,32.43,0,0,1,104.05,47.32Z" fill="#fff"/><path d="M113.87,51.13l-8,9.92a29.64,29.64,0,0,0-4.44-2.48l8.07-10A18.76,18.76,0,0,1,113.87,51.13Z" fill="#fff"/><path d="M130.51,62.45l-6.27,7.74A24.52,24.52,0,0,1,118.76,69l6.62-8.16A18.5,18.5,0,0,0,130.51,62.45Z" fill="#fff"/><path d="M121.21,58l-7.12,8.79c-1.47-.87-2.83-1.84-4.17-2.82l7.66-9.46C118.76,55.69,119.92,56.89,121.21,58Z" fill="#fff"/><path d="M133.49,62.78c1.11.06,2.16.07,3.18,0l-6,7.46c-1.1.07-2.25.1-3.46.09-1,0-2-.07-2.92-.17l6.27-7.75A24.92,24.92,0,0,0,133.49,62.78Z" fill="#231f20"/><path d="M125.38,60.82,118.76,69a24.53,24.53,0,0,1-4.67-2.19L121.21,58A20,20,0,0,0,125.38,60.82Z" fill="#231f20"/><path d="M52.57,63.08,46.2,70.94c-4.77,2.61-8.9,5.23-12.73,7.74l6.91-8.53C44.17,67.88,48.14,65.48,52.57,63.08Z" fill="#fff"/><path d="M40.38,70.15l-6.91,8.53c-4.7,3.08-8.95,6-13.37,8.54L28.4,77C32.38,74.94,36.26,72.62,40.38,70.15Z" fill="#231f20"/><path d="M90.19,48.5l-7,8.65A77.12,77.12,0,0,0,75.25,59L82,50.69C85,49.77,87.7,49,90.19,48.5Z" fill="#fff"/><path d="M1.13,94.71l9.18-11.33a63.21,63.21,0,0,0,8.21-2.17l-8.95,11A60.42,60.42,0,0,1,1.13,94.71Z" fill="#231f20"/><path d="M28.4,77,20.1,87.22a70.08,70.08,0,0,1-10.53,5l9-11A74.14,74.14,0,0,0,28.4,77Z" fill="#fff"/><path d="M73.06,53.7l-6.57,8.11c-3.43,1.24-6.6,2.52-9.54,3.82l6.44-7.95C66.39,56.32,69.6,55,73.06,53.7Z" fill="#fff"/><path d="M144,61.77,138.13,69a33.47,33.47,0,0,1-7.51,1.3l6-7.46A31.69,31.69,0,0,0,144,61.77Z" fill="#fff"/><path d="M81.66,50.78l.3-.09L75.25,59c-1.73.49-3.57,1.05-5.51,1.71-1.11.37-2.19.75-3.25,1.13l6.57-8.11C75.77,52.7,78.62,51.72,81.66,50.78Z" fill="#231f20"/><path d="M63.39,57.68,57,65.63c-4,1.74-7.5,3.53-10.75,5.31l6.37-7.86C55.89,61.27,59.46,59.45,63.39,57.68Z" fill="#231f20"/><path d="M205.87,41.12l-5.2,6.41a17.08,17.08,0,0,0-5.13-1.63l5-6.2A14.65,14.65,0,0,1,205.87,41.12Z" fill="#231f20"/><path d="M261,33.38c1.32-.56,2.65-1.05,4-1.48l-2.44,3a48.47,48.47,0,0,0-6.7,2.47c-1,.47-2,.92-2.87,1.38l2.14-2.64C256.84,35.22,258.79,34.3,261,33.38Z" fill="#231f20"/><path d="M237.6,49.75l-4.4,5.43c-1.84,1.33-4.25,2.18-8.4,2.4l3.67-4.53C233,52.84,235.38,51.64,237.6,49.75Z" fill="#231f20"/><path d="M255.09,36.12,253,38.76C238.78,45.91,237.61,52,233.2,55.18l4.4-5.43C241.24,46.64,244.34,41.66,255.09,36.12Z" fill="#fff"/><path d="M224.46,53c1.34.08,2.68.1,4,0l-3.67,4.53c-1,.05-2.18.07-3.44.05-1,0-1.93-.09-2.89-.2l3.78-4.66C222.94,52.87,223.67,53,224.46,53Z" fill="#fff"/><path d="M286.5,29.21l-2.63,3.24c-2.19,0-4.38,0-6.53.11L280,29.25C282.17,29.14,284.33,29.14,286.5,29.21Z" fill="#fff"/><path d="M222.25,52.77l-3.78,4.66a20.25,20.25,0,0,1-5.35-1.37l4-4.94A15.73,15.73,0,0,0,222.25,52.77Z" fill="#231f20"/><path d="M154.18,57.13l-4.89,6A38,38,0,0,1,138.13,69L144,61.77A39.08,39.08,0,0,0,154.18,57.13Z" fill="#231f20"/><path d="M280,29.25l-2.68,3.31c-2.37.12-4.71.34-7,.68L273,30A61.93,61.93,0,0,1,280,29.25Z" fill="#231f20"/><path d="M273,30l-2.64,3.26a59.29,59.29,0,0,0-7.81,1.67l2.44-3A52.75,52.75,0,0,1,273,30Z" fill="#fff"/><path d="M292.62,29.63l-2.51,3.09q-3.12-.21-6.24-.27l2.63-3.24Q289.56,29.33,292.62,29.63Z" fill="#231f20"/><path d="M186.25,41.44,181.73,47c-.8.19-1.64.4-2.51.64-2.13.58-4.11,1.2-5.95,1.84l4.34-5.36A79.91,79.91,0,0,1,186.25,41.44Z" fill="#fff"/><path d="M217.12,51.12l-4,4.94a20.21,20.21,0,0,1-4.38-2.55l4.45-5.5A15.16,15.16,0,0,0,217.12,51.12Z" fill="#fff"/><path d="M167.27,49l-4,4.95c-5.78,3.11-9.92,6.43-14,9.27l4.89-6C158.17,54.7,162.2,51.77,167.27,49Z" fill="#fff"/><path d="M187,41.24a65,65,0,0,1,6.92-1.33l-4.73,5.85A51.22,51.22,0,0,0,181.73,47l4.52-5.57Z" fill="#231f20"/><path d="M177.62,44.13l-4.35,5.36a70.37,70.37,0,0,0-10,4.41l4-4.95A74.26,74.26,0,0,1,177.62,44.13Z" fill="#231f20"/><path d="M209.83,44.19l-5,6.16a23.14,23.14,0,0,0-4.17-2.82l5.2-6.41A14.25,14.25,0,0,1,209.83,44.19Z" fill="#fff"/><path d="M213.19,48l-4.45,5.5c-1.37-1-2.61-2.11-3.9-3.16l5-6.16C211,45.42,212,46.76,213.19,48Z" fill="#231f20"/><path d="M298.47,30.37l-2.33,2.88q-3-.33-6-.53l2.51-3.09C294.57,29.83,296.52,30.07,298.47,30.37Z" fill="#fff"/><path d="M200.57,39.7l-5,6.2a26.29,26.29,0,0,0-6.33-.14l4.73-5.85A30,30,0,0,1,200.57,39.7Z" fill="#fff"/><path d="M306.36,28.6l-2.21,2.72c-1.88-.35-3.78-.67-5.68-.95l2.42-3Q303.65,27.92,306.36,28.6Z" fill="#fff"/><path d="M132.11,52.52l-6.73,8.3A20,20,0,0,1,121.21,58l7.37-9.1A16.38,16.38,0,0,0,132.11,52.52Z" fill="#fff"/><path d="M190.81,35.81l-4.56,5.63a79.06,79.06,0,0,0-8.63,2.69l4.38-5.4A80.42,80.42,0,0,1,190.81,35.81Z" fill="#231f20"/><path d="M139.83,55.2q1.5.13,2.88.15l-6,7.47c-1,0-2.07,0-3.18,0a24.92,24.92,0,0,1-3-.33l6.3-7.77A20.5,20.5,0,0,0,139.83,55.2Z" fill="#fff"/><path d="M128.58,48.9,121.21,58c-1.29-1.11-2.45-2.31-3.63-3.49l8-9.91C126.63,46,127.54,47.5,128.58,48.9Z" fill="url(#linear-gradient-6)"/><path d="M171.48,43.75,167.27,49c-5.07,2.82-9.1,5.75-13.09,8.18l5.19-6.42C163.17,48.69,167,46.21,171.48,43.75Z" fill="#231f20"/><path d="M149.82,54.55,144,61.77a31.69,31.69,0,0,1-7.3,1l6-7.47A28.83,28.83,0,0,0,149.82,54.55Z" fill="#231f20"/><path d="M182,38.72l-4.38,5.41A74.26,74.26,0,0,0,167.27,49l4.21-5.2A90.58,90.58,0,0,1,182,38.72Z" fill="#fff"/><path d="M125.61,44.6l-8,9.91a37.08,37.08,0,0,0-3.71-3.38l8.29-10.24A17.37,17.37,0,0,1,125.61,44.6Z" fill="#fff"/><path d="M159.37,50.71l-5.19,6.42A39.08,39.08,0,0,1,144,61.77l5.85-7.22A39.54,39.54,0,0,0,159.37,50.71Z" fill="#fff"/><path d="M136.81,54.68l-6.3,7.77a18.5,18.5,0,0,1-5.13-1.63l6.73-8.3A13.78,13.78,0,0,0,136.81,54.68Z" fill="#231f20"/><path d="M122.16,40.89l-8.29,10.24a18.76,18.76,0,0,0-4.41-2.53l8.11-10A13.22,13.22,0,0,1,122.16,40.89Z" fill="#231f20"/><path d="M79.76,45.43l-6.7,8.27c-3.46,1.29-6.67,2.62-9.67,4L70,49.48C73.08,48.1,76.3,46.75,79.76,45.43Z" fill="#231f20"/><path d="M88.73,42.33,82,50.69l-.3.09c-3,.94-5.89,1.92-8.6,2.92l6.7-8.26Q84,43.82,88.73,42.33Z" fill="#fff"/><path d="M59.33,54.73l-6.76,8.35c-4.43,2.4-8.41,4.8-12.19,7.07l7.46-9.21C51.48,59,55.25,56.87,59.33,54.73Z" fill="#231f20"/><path d="M70,49.48l-6.64,8.2c-3.93,1.77-7.5,3.59-10.82,5.4l6.76-8.35C62.66,53,66.2,51.22,70,49.48Z" fill="#fff"/><path d="M117.57,38.59l-8.11,10a20.61,20.61,0,0,0-5.41-1.28l7.69-9.5A21.66,21.66,0,0,1,117.57,38.59Z" fill="#fff"/><path d="M111.74,37.82l-7.69,9.5a32.43,32.43,0,0,0-6.46,0l7.26-9A44.14,44.14,0,0,1,111.74,37.82Z" fill="url(#linear-gradient-7)"/><path d="M104.85,38.36l-7.26,9a57.83,57.83,0,0,0-7.4,1.17l6.93-8.56C100,39.22,102.56,38.7,104.85,38.36Z" fill="#fff"/><path d="M93.58,40.88c1.23-.34,2.41-.66,3.54-.94L90.19,48.5C87.7,49,85,49.77,82,50.69l6.77-8.36C90.3,41.84,91.91,41.36,93.58,40.88Z" fill="#231f20"/><path d="M257.36,33.32l-2.27,2.8c-10.75,5.54-13.85,10.52-17.49,13.63l4.21-5.21C245.21,41.71,249,37.66,257.36,33.32Z" fill="#231f20"/><path d="M289.21,25.87l-2.71,3.34c-2.17-.07-4.33-.07-6.48,0l2.74-3.39Q286,25.71,289.21,25.87Z" fill="#231f20"/><path d="M282.76,25.86,280,29.25a61.93,61.93,0,0,0-7,.73l2.67-3.29A54.86,54.86,0,0,1,282.76,25.86Z" fill="#fff"/><path d="M266.14,29.38c.42-.17.83-.32,1.24-.47l-2.42,3c-1.33.43-2.66.92-4,1.48-2.19.92-4.14,1.84-5.89,2.74l2.27-2.8A85.23,85.23,0,0,1,266.14,29.38Z" fill="#fff"/><path d="M275.64,26.69,273,30a52.75,52.75,0,0,0-8,1.92l2.42-3A51.39,51.39,0,0,1,275.64,26.69Z" fill="#231f20"/><path d="M295.21,26.43l-2.59,3.2q-3.06-.3-6.12-.42l2.71-3.34C291.22,26,293.22,26.17,295.21,26.43Z" fill="#fff"/><path d="M300.89,27.38l-2.42,3q-2.93-.44-5.85-.74l2.59-3.2Q298.08,26.82,300.89,27.38Z" fill="#231f20"/><path d="M316.89,31.53l-1.7,2.09c-1.81-.4-3.63-.8-5.48-1.19l2-2.42Q314.31,30.74,316.89,31.53Z" fill="#fff"/><path d="M311.67,30l-2,2.42q-2.76-.59-5.56-1.11l2.21-2.72Q309,29.26,311.67,30Z" fill="#231f20"/><path d="M322.07,33.1l-1.43,1.76-5.45-1.24,1.7-2.09C318.64,32.05,320.37,32.58,322.07,33.1Z" fill="#231f20"/><path d="M226,48.14l-3.74,4.63a15.73,15.73,0,0,1-5.13-1.65l4-4.92A12,12,0,0,0,226,48.14Z" fill="#fff"/><path d="M281.62,17.37c-2.4.72-4.62,1.46-6.68,2.22l2.71-3.35c2.64-.95,5.52-1.87,8.67-2.75l-2.68,3.32C283,17,282.3,17.16,281.62,17.37Z" fill="#231f20"/><path d="M217.76,42.37,213.19,48c-1.18-1.25-2.2-2.59-3.36-3.82l5.2-6.42C216.08,39.21,216.83,40.83,217.76,42.37Z" fill="#fff"/><path d="M215,37.77l-5.2,6.42a14.25,14.25,0,0,0-4-3.07l5.28-6.51A9.28,9.28,0,0,1,215,37.77Z" fill="#231f20"/><path d="M205.56,33.53l-5,6.17a30,30,0,0,0-6.63.21l4.71-5.81A38.06,38.06,0,0,1,205.56,33.53Z" fill="#231f20"/><path d="M241.81,44.54l-4.21,5.21c-2.22,1.89-4.65,3.09-9.13,3.3l3.65-4.51A14.67,14.67,0,0,0,241.81,44.54Z" fill="#fff"/><path d="M221.11,46.2l-4,4.92A15.16,15.16,0,0,1,213.19,48l4.57-5.64A12.08,12.08,0,0,0,221.11,46.2Z" fill="#231f20"/><path d="M227.57,48.37a30.06,30.06,0,0,0,4.55.17l-3.65,4.51c-1.33.05-2.67,0-4,0-.79,0-1.52-.13-2.21-.23L226,48.14C226.49,48.24,227,48.31,227.57,48.37Z" fill="#231f20"/><path d="M47.84,60.94l-7.46,9.21c-4.12,2.47-8,4.79-12,6.83l8.45-10.44C40.49,64.88,44.09,63,47.84,60.94Z" fill="#fff"/><path d="M194.83,34.83c1.36-.3,2.63-.54,3.82-.73l-4.71,5.81A65,65,0,0,0,187,41.24l-.77.2,4.56-5.63C192.1,35.46,193.44,35.13,194.83,34.83Z" fill="#fff"/><path d="M211.15,34.61l-5.28,6.51a14.65,14.65,0,0,0-5.3-1.42l5-6.17A14.91,14.91,0,0,1,211.15,34.61Z" fill="#fff"/><path d="M185.64,26.26,190.75,20c3.06-1.28,6.28-2.64,9.67-4l-4.79,5.92C192.09,23.33,188.78,24.83,185.64,26.26Z" fill="#fff"/><path d="M195.63,21.9,200.42,16c2.89-1.13,5.91-2.22,9.06-3.21l-4.76,5.86C201.53,19.62,198.5,20.73,195.63,21.9Z" fill="#231f20"/><path d="M175.72,30.53l5.59-6.89c3-1,6.11-2.29,9.44-3.69l-5.11,6.31C182.14,27.85,178.86,29.34,175.72,30.53Z" fill="#231f20"/><path d="M204.72,18.63l4.76-5.86c2.64-.83,5.39-1.58,8.23-2.2l-4.83,6C210,17.12,207.33,17.83,204.72,18.63Z" fill="#fff"/><path d="M167.38,32.86l5.87-7.24a39.89,39.89,0,0,0,8.06-2l-5.59,6.89A40.65,40.65,0,0,1,167.38,32.86Z" fill="#fff"/><path d="M153.55,26l8.26-10.19c-.61,2.77-.79,5.34.65,7.16L156,31.05A6.73,6.73,0,0,1,153.55,26Z" fill="#231f20"/><path d="M158.85,32.44a8.28,8.28,0,0,1-2.9-1.39l6.51-8a6.11,6.11,0,0,0,2.73,1.85,16.14,16.14,0,0,0,1.8.53l-6.08,7.5A18,18,0,0,1,158.85,32.44Z" fill="#fff"/><path d="M160.91,32.89l6.08-7.5a18,18,0,0,0,6.26.23l-5.87,7.24A20.65,20.65,0,0,1,160.91,32.89Z" fill="#231f20"/><path d="M218.24,15.6c-1.84.26-3.62.57-5.36.93l4.83-6c2.42-.53,4.91-1,7.49-1.27l-4.92,6.06C219.63,15.42,219,15.5,218.24,15.6Z" fill="#231f20"/><path d="M226.88,15.18,232,8.88A12.37,12.37,0,0,1,237.55,10l-5.66,7C230.92,16.05,229.35,15.41,226.88,15.18Z" fill="#231f20"/><path d="M253,30.75l3.56-4.38c3.11-1.76,6.76-3.89,11.38-6.09l-2.85,3.52A131.74,131.74,0,0,0,253,30.75Z" fill="#231f20"/><path d="M243,35.13l3.62-4.47c3-.49,6.08-2.11,9.93-4.29L253,30.75C249.24,33.08,246.31,34.75,243,35.13Z" fill="#fff"/><path d="M237,34.52l3.59-4.44a12,12,0,0,0,6,.58L243,35.13A14.83,14.83,0,0,1,237,34.52Z" fill="#231f20"/><path d="M220.28,15.36,225.2,9.3l.84-.1a43.77,43.77,0,0,1,6-.32l-5.11,6.3A33.86,33.86,0,0,0,220.28,15.36Z" fill="#fff"/><path d="M265.07,23.8l2.85-3.52c2.84-1.35,6.05-2.72,9.73-4l-2.71,3.35A98.49,98.49,0,0,0,265.07,23.8Z" fill="#fff"/><path d="M231.89,17l5.66-7c2.24,1.23,2.35,3.34,1.78,5.77l-6.28,7.76C233.42,21,233.55,18.55,231.89,17Z" fill="#fff"/><path d="M153.83,17.74l9.89-12.22c.32,3-1.13,6.82-1.91,10.33L153.55,26C153.34,23.43,153.86,20.44,153.83,17.74Z" fill="#fff"/><path d="M233.05,23.5l6.28-7.76c-.85,3.6-3.2,7.89-2.43,11L233,31.53C231.94,29.29,232.64,26.31,233.05,23.5Z" fill="#231f20"/><path d="M236.91,34.49a5.73,5.73,0,0,1-3.91-3l3.9-4.82A4.58,4.58,0,0,0,240,29.86l.6.22L237,34.52Z" fill="#fff"/><path d="M147.29,9.88l8-9.84a14.09,14.09,0,0,1,5.47,1.2L152,12.08A8.54,8.54,0,0,0,147.29,9.88Z" fill="#fff"/><path d="M62.73,34.6l8.72-10.78c2.88-.85,5.82-1.86,8.86-3L72,31.17C68.8,32.44,65.73,33.6,62.73,34.6Z" fill="#fff"/><path d="M54.39,36.93l9-11.09a82.24,82.24,0,0,0,8.08-2L62.73,34.6A83.89,83.89,0,0,1,54.39,36.93Z" fill="#231f20"/><path d="M72,31.17l8.36-10.32c3-1.09,6.11-2.29,9.33-3.54l-8,9.81C78.33,28.54,75.1,29.91,72,31.17Z" fill="#231f20"/><path d="M47,38.06l9.17-11.32a54.18,54.18,0,0,0,7.18-.9l-9,11.09A55.58,55.58,0,0,1,47,38.06Z" fill="#fff"/><path d="M27.47,70.16l-8.95,11a61.61,61.61,0,0,1-8.21,2.16L19.49,72A62.08,62.08,0,0,0,27.47,70.16Z" fill="#fff"/><path d="M36.44,59.09l-9,11.07a62.08,62.08,0,0,1-8,1.88l9.18-11.33A58.9,58.9,0,0,0,36.44,59.09Z" fill="#231f20"/><path d="M45.4,48a58.42,58.42,0,0,1-7.56,1.37L47,38.06a55.58,55.58,0,0,0,7.37-1.13Z" fill="#231f20"/><path d="M81.69,27.12l8-9.81c3-1.18,6.17-2.41,9.41-3.65l-7.61,9.39C88.06,24.43,84.82,25.8,81.69,27.12Z" fill="#fff"/><path d="M45.4,48l-9,11.07a58.9,58.9,0,0,1-7.77,1.62l9.17-11.32A58.42,58.42,0,0,0,45.4,48Z" fill="#fff"/><path d="M91.44,23.05l7.61-9.39q4.45-1.71,9.21-3.41l-7.4,9.15C97.6,20.6,94.47,21.83,91.44,23.05Z" fill="#231f20"/><path d="M134,10.35l7.34-9.07c2.74-.48,5.15-.82,7.29-1l-7.54,9.3A67.42,67.42,0,0,0,134,10.35Z" fill="#fff"/><path d="M141.09,9.56l7.53-9.3A44.63,44.63,0,0,1,155.26,0l-8,9.84A26.83,26.83,0,0,0,141.09,9.56Z" fill="#231f20"/><path d="M36.85,66.54,28.4,77a74.14,74.14,0,0,1-9.88,4.23l9-11A76.65,76.65,0,0,0,36.85,66.54Z" fill="#231f20"/><path d="M129.36,11.19c-1,.2-2,.42-3,.64l7.3-9c2.48-.56,5-1.07,7.63-1.53h.06L134,10.35C132.55,10.58,131,10.85,129.36,11.19Z" fill="url(#linear-gradient-8)"/><path d="M152,12.08l8.77-10.84a5.08,5.08,0,0,1,3,4.28l-9.89,12.22C153.79,15.56,153.4,13.56,152,12.08Z" fill="url(#linear-gradient-9)"/><path d="M100.86,19.4l7.4-9.15c2.87-1,5.82-2,8.86-3l-7.31,9Q105.18,17.8,100.86,19.4Z" fill="#fff"/><path d="M118.29,13.8l7.29-9c2.62-.71,5.31-1.38,8.07-2l-7.3,9C123.58,12.44,120.9,13.1,118.29,13.8Z" fill="#fff"/><path d="M109.81,16.31l7.31-9c2.75-.86,5.57-1.69,8.46-2.47l-7.29,9Q113.91,15,109.81,16.31Z" fill="#231f20"/><polygon points="10.26 100.28 1.55 100.28 1.4 101.01 10.1 101.01 10.26 100.28" fill="#c6c5c5"/><polygon points="57.97 100.28 40.05 100.28 38.87 105.88 39.98 105.88 41 101.01 58.92 101.01 60.5 93.42 59.39 93.42 57.97 100.28" fill="#c6c5c5"/><polygon points="57.14 106.61 56.04 106.61 54.61 113.47 37.27 113.47 35.63 120.56 36.75 120.56 38.22 114.2 55.56 114.2 57.14 106.61" fill="#c6c5c5"/><polygon points="78.75 120.75 66.94 120.75 62.93 128.15 54.91 128.15 54.49 128.88 63.88 128.88 67.89 121.48 78.86 121.48 78.75 120.75" fill="#c6c5c5"/><polygon points="31.38 93.42 30.27 93.42 28.85 100.28 19.17 100.28 13.35 128.15 5.52 128.15 5.37 128.88 14.3 128.88 20.12 101.01 29.8 101.01 31.38 93.42" fill="#c6c5c5"/><polyline points="51.93 128.15 24.86 128.15 24.71 128.88 52.88 128.88 53.04 128.15 52.01 128.15" fill="#c6c5c5"/><polygon points="223.3 115.99 223.93 114.83 220.34 93.42 219.51 93.42 223.3 115.99" fill="#c6c5c5"/><polygon points="82.9 93.42 88.54 128.15 80.82 128.15 80.93 128.88 89.49 128.88 83.73 93.42 82.9 93.42" fill="#c6c5c5"/><polygon points="70.51 113.18 71.9 113.18 76.5 105.51 76.24 103.64 70.51 113.18" fill="#c6c5c5"/><polygon points="290.47 120.56 291.57 120.56 297.24 93.42 296.14 93.42 290.47 120.56" fill="#c6c5c5"/><polygon points="261.93 120.56 263.03 120.56 268.69 93.42 267.59 93.42 261.93 120.56" fill="#c6c5c5"/><path d="M158,100.94h3.18a13.39,13.39,0,0,1,3.89.36,4.29,4.29,0,0,1,.58.26,4.08,4.08,0,0,0-1.53-1,13.39,13.39,0,0,0-3.89-.36H157l-4.28,20.55h1.1Z" fill="#c6c5c5"/><polygon points="110.08 113.15 110.92 111.42 110.14 93.42 109.22 93.42 110.08 113.15" fill="#c6c5c5"/><polygon points="245.22 93.42 244.76 93.42 225.62 128.15 217.66 128.15 217.79 128.88 226.57 128.88 244.67 96.04 245.22 93.42" fill="#c6c5c5"/><polygon points="307.34 121.28 305.92 128.15 281.06 128.15 280.9 128.88 306.87 128.88 308.45 121.28 307.34 121.28" fill="#c6c5c5"/><polygon points="336.5 128.15 309.43 128.15 309.27 128.88 337.45 128.88 339.06 121.28 337.95 121.28 336.5 128.15" fill="#c6c5c5"/><polygon points="102.33 107.84 98.47 128.15 91.3 128.15 91.15 128.88 99.42 128.88 102.53 112.5 102.33 107.84" fill="#c6c5c5"/><polygon points="277.37 128.15 252.51 128.15 252.36 128.88 278.32 128.88 279.9 121.28 278.8 121.28 277.37 128.15" fill="#c6c5c5"/><polygon points="337.64 113.47 320.3 113.47 318.66 120.56 319.78 120.56 321.25 114.2 338.59 114.2 340.17 106.61 339.06 106.61 337.64 113.47" fill="#c6c5c5"/><polygon points="342.42 93.42 340.99 100.28 323.08 100.28 321.9 105.88 323 105.88 324.03 101.01 341.94 101.01 343.52 93.42 342.42 93.42" fill="#c6c5c5"/><polygon points="254.13 93.42 246.88 128.15 239.05 128.15 238.89 128.88 247.83 128.88 255.23 93.42 254.13 93.42" fill="#c6c5c5"/><polygon points="124.4 128.15 117.17 128.15 117 128.88 125.35 128.88 132.77 93.42 131.67 93.42 124.4 128.15" fill="#c6c5c5"/><polygon points="210.61 93.42 209.99 93.42 208.56 100.28 190.65 100.28 189.47 105.88 190.57 105.88 191.6 101.01 209.51 101.01 210.84 94.67 210.61 93.42" fill="#c6c5c5"/><path d="M176.72,103.43a14.91,14.91,0,0,0-1.61-4,12.54,12.54,0,0,0-2.51-3,10.65,10.65,0,0,0-.94-.72,12.27,12.27,0,0,1,2.5,3,14.91,14.91,0,0,1,1.61,4,20.44,20.44,0,0,1,.55,4.87,22.45,22.45,0,0,1-2.17,10,19.88,19.88,0,0,1-5.47,7,16.78,16.78,0,0,1-6.57,3,32.57,32.57,0,0,1-6.83.53H143.36l-.15.73h13a32.67,32.67,0,0,0,6.83-.53,16.8,16.8,0,0,0,6.56-3,19.79,19.79,0,0,0,5.47-7,22.45,22.45,0,0,0,2.17-10A19.94,19.94,0,0,0,176.72,103.43Z" fill="#c6c5c5"/><polygon points="120.75 108.35 111.32 128.15 104.13 128.15 104.16 128.88 112.27 128.88 119.46 113.79 120.75 108.35" fill="#c6c5c5"/><polygon points="204.06 128.15 177 128.15 176.84 128.88 205.02 128.88 206.63 121.28 205.52 121.28 204.06 128.15" fill="#c6c5c5"/><polygon points="205.21 113.47 187.87 113.47 186.23 120.56 187.35 120.56 188.82 114.2 206.16 114.2 207.74 106.61 206.64 106.61 205.21 113.47" fill="#c6c5c5"/><path d="M28.4,99.61H18.72L12.9,127.48H4L9.81,99.61H0L1.58,92H30Zm6.79,20.28,1.64-7.08H54.17l1.58-7.6H38.43l1.17-5.6H57.52L59.1,92H32.25l-7.4,35.46H53l1.61-7.59ZM82.23,92,88,127.48H79.42l-1.12-7.39H66.5l-4,7.39H53.1L73.15,92Zm-5.07,20.5L75.79,103l-5.72,9.54Zm32.48,0L108.74,92H97.16l-7.41,35.46H98l3.86-20.31.88,20.31h8.12l9.42-19.8-4.7,19.8H124L131.38,92H119.59Zm66.24-5.58a22.63,22.63,0,0,1-2.17,10,20.08,20.08,0,0,1-5.47,7,16.56,16.56,0,0,1-6.57,3,31.91,31.91,0,0,1-6.83.53h-13L149.23,92h9.83c2.57,0,4.18,0,4.93.12a15,15,0,0,1,4,.91,11.32,11.32,0,0,1,3.26,2,12.53,12.53,0,0,1,2.51,3,14.5,14.5,0,0,1,1.6,4,20.37,20.37,0,0,1,.56,4.86Zm-12.24-7a13.1,13.1,0,0,0-3.89-.35h-3.19l-4.28,20.54h2.26a21.88,21.88,0,0,0,5.23-.43,6.81,6.81,0,0,0,2.71-1.52,14,14,0,0,0,3.18-4.6,16.58,16.58,0,0,0,1.3-6.85,9.14,9.14,0,0,0-1-4.81,4.61,4.61,0,0,0-2.33-2Zm11.81,27.58h28.17l1.61-7.59H185.79l1.63-7.08h17.34l1.58-7.59H189l1.17-5.6h17.92L209.7,92H182.85ZM235.6,92l-12.75,23.3L219,92H210l6.36,35.46h8.77L244.71,92Zm9.32,0-7.42,35.46h8.93L253.84,92Zm22.38,0h-8.91L251,127.48h26l1.58-7.59h-17Zm28.55,0h-8.92l-7.42,35.46h26l1.58-7.59H290Zm44.7,7.6,1.58-7.6H315.28l-7.4,35.46h28.17l1.61-7.59H318.22l1.63-7.08h17.34l1.58-7.6H321.46l1.17-5.6Z" fill="#020202"/><polygon points="35.16 120.89 34.93 121.89 53.19 121.89 53.4 120.89 35.16 120.89" fill="#fbfcf5"/><polygon points="34.06 94.02 57.66 94.02 57.87 93.02 33.06 93.02 26.08 126.48 27.29 126.48 34.06 94.02" fill="#fbfcf5"/><polygon points="3.39 94.02 28.54 94.02 28.75 93.02 2.39 93.02 1.23 98.61 2.44 98.61 3.39 94.02" fill="#fbfcf5"/><polygon points="12.04 99.61 10.83 99.61 5.2 126.48 6.41 126.48 12.04 99.61" fill="#fbfcf5"/><polygon points="77.38 101.05 76.69 102.2 78.32 113.52 69.9 113.52 69.3 114.52 79.32 114.52 77.38 101.05" fill="#fbfcf5"/><polygon points="74.73 94.02 81.54 94.02 81.38 93.02 73.73 93.02 54.81 126.48 56.38 126.48 74.73 94.02" fill="#fbfcf5"/><path d="M161,121.63a7.73,7.73,0,0,0,3.12-1.75,14.82,14.82,0,0,0,3.42-4.93,17.56,17.56,0,0,0,1.39-7.26,10.07,10.07,0,0,0-1.15-5.35,6.37,6.37,0,0,0-1.45-1.61c.16.2.31.4.45.61a10.07,10.07,0,0,1,1.15,5.35,17.56,17.56,0,0,1-1.39,7.26,14.82,14.82,0,0,1-3.42,4.93,7.73,7.73,0,0,1-3.12,1.75,22.94,22.94,0,0,1-5.49.46h-2.28l-.21,1h3.49A23,23,0,0,0,161,121.63Z" fill="#fbfcf5"/><polygon points="261.25 121.89 277.06 121.89 277.27 120.89 261.46 120.89 261.25 121.89" fill="#fbfcf5"/><polygon points="289.8 121.89 305.61 121.89 305.82 120.89 290.01 120.89 289.8 121.89" fill="#fbfcf5"/><polygon points="223.34 119.33 237.2 94.02 242.47 94.02 243.02 93.02 236.2 93.02 222.98 117.17 223.34 119.33" fill="#fbfcf5"/><polygon points="80.16 120.08 79.31 120.08 80.28 126.48 81.13 126.48 80.16 120.08" fill="#fbfcf5"/><polygon points="38.2 107.21 54.31 107.21 54.52 106.21 38.41 106.21 38.2 107.21" fill="#fbfcf5"/><polyline points="111.53 113.92 121.22 94.02 129.94 94.02 130.15 93.02 120.22 93.02 110.53 112.92" fill="#fbfcf5"/><polygon points="212.23 94.02 218.27 94.02 218.1 93.02 211.23 93.02 217.23 126.48 218.05 126.48 212.23 94.02" fill="#fbfcf5"/><polygon points="260.2 94.02 265.86 94.02 266.07 93.02 259.2 93.02 252.19 126.48 253.4 126.48 260.2 94.02" fill="#fbfcf5"/><polygon points="288.75 94.02 294.41 94.02 294.62 93.02 287.75 93.02 280.74 126.48 281.95 126.48 288.75 94.02" fill="#fbfcf5"/><polygon points="321.22 107.21 337.34 107.21 337.54 106.21 321.43 106.21 321.22 107.21" fill="#fbfcf5"/><polygon points="246.74 94.02 252.4 94.02 252.6 93.02 245.74 93.02 238.73 126.48 239.94 126.48 246.74 94.02" fill="#fbfcf5"/><polygon points="318.19 120.89 317.96 121.89 336.21 121.89 336.43 120.89 318.19 120.89" fill="#fbfcf5"/><polygon points="317.09 94.02 340.69 94.02 340.9 93.02 316.09 93.02 309.11 126.48 310.32 126.48 317.09 94.02" fill="#fbfcf5"/><polygon points="184.66 94.02 208.26 94.02 208.47 93.02 183.66 93.02 176.68 126.48 177.89 126.48 184.66 94.02" fill="#fbfcf5"/><polygon points="122.28 108.92 121.14 108.51 116.86 126.48 118.1 126.48 122.28 108.92" fill="#fbfcf5"/><path d="M151.05,94h9c2.5,0,4.12,0,4.82.12a13.89,13.89,0,0,1,3.7.84,10.32,10.32,0,0,1,3,1.79h0a10.49,10.49,0,0,0-1-1,10.32,10.32,0,0,0-3-1.79,13.89,13.89,0,0,0-3.7-.84c-.7-.08-2.32-.12-4.82-.12h-9l-7,33.46h1.21Z" fill="#fbfcf5"/><polygon points="103.88 108.13 102.92 108.06 103.72 126.48 104.68 126.48 103.88 108.13" fill="#fbfcf5"/><polygon points="188.79 107.21 204.91 107.21 205.12 106.21 189 106.21 188.79 107.21" fill="#fbfcf5"/><polygon points="185.76 120.89 185.53 121.89 203.78 121.89 204 120.89 185.76 120.89" fill="#fbfcf5"/><polygon points="98.97 94.02 107.83 94.02 107.78 93.02 97.97 93.02 90.98 126.48 92.19 126.48 98.97 94.02" fill="#fbfcf5"/><path d="M80.27,82.44l2.07.7A6.83,6.83,0,0,1,81,84.78a5.34,5.34,0,0,1-1.61,1,5.56,5.56,0,0,1-2,.33,4.62,4.62,0,0,1-2.14-.4,2.17,2.17,0,0,1-1-1.44,4.45,4.45,0,0,1,.31-2.62,6.91,6.91,0,0,1,2.32-3.28,6,6,0,0,1,3.63-1.14,3.26,3.26,0,0,1,2.31.66,2.55,2.55,0,0,1,.65,2l-2.54.52a1.38,1.38,0,0,0-.05-.57.87.87,0,0,0-.37-.47,1.18,1.18,0,0,0-.66-.16,2.33,2.33,0,0,0-1.65.72,4.49,4.49,0,0,0-1,1.69,3,3,0,0,0-.28,2,1,1,0,0,0,1,.53,2.08,2.08,0,0,0,1.31-.43A4.23,4.23,0,0,0,80.27,82.44Z"/><path d="M85.73,77.37h2.65L86,83.84h4.14L89.4,86H82.6Z"/><path d="M96.4,84.54h-3L92.45,86H89.74l6.36-8.59H99L99.1,86H96.32Zm.13-1.86.17-3.09-2.06,3.09Z"/><path d="M100.51,83.11l2.58-.15a1.55,1.55,0,0,0,0,.93,1,1,0,0,0,1,.53,1.76,1.76,0,0,0,1-.27,1.24,1.24,0,0,0,.53-.62.59.59,0,0,0-.07-.6,2.33,2.33,0,0,0-1.18-.49,3.86,3.86,0,0,1-2.11-1,1.65,1.65,0,0,1-.15-1.66,3.54,3.54,0,0,1,.84-1.25,4.27,4.27,0,0,1,1.49-.92,6.32,6.32,0,0,1,2.24-.34,3.34,3.34,0,0,1,2.29.61,1.94,1.94,0,0,1,.32,2l-2.56.15a.8.8,0,0,0-.39-1.06.81.81,0,0,0-.51-.05,1.41,1.41,0,0,0-.77.2,1,1,0,0,0-.4.47.33.33,0,0,0,.06.37,1.47,1.47,0,0,0,.77.32,8,8,0,0,1,2.22.76,1.52,1.52,0,0,1,.75,1,2.29,2.29,0,0,1-.12,1.27,4.16,4.16,0,0,1-1,1.53,4.74,4.74,0,0,1-1.66,1,6.09,6.09,0,0,1-2.2.36q-2.19,0-2.73-.84A2.61,2.61,0,0,1,100.51,83.11Z"/><path d="M109.18,83.11l2.58-.15a1.55,1.55,0,0,0,0,.93,1,1,0,0,0,1,.53,1.77,1.77,0,0,0,1-.27,1.29,1.29,0,0,0,.53-.62.59.59,0,0,0-.08-.6,2.27,2.27,0,0,0-1.17-.49,3.82,3.82,0,0,1-2.11-1,1.63,1.63,0,0,1-.15-1.66,3.41,3.41,0,0,1,.84-1.25,4.18,4.18,0,0,1,1.49-.92,6.32,6.32,0,0,1,2.24-.34,3.31,3.31,0,0,1,2.28.61,1.92,1.92,0,0,1,.32,2l-2.55.15a.81.81,0,0,0-.39-1.06.81.81,0,0,0-.51-.05,1.39,1.39,0,0,0-.77.2.94.94,0,0,0-.41.47.35.35,0,0,0,.06.37,1.46,1.46,0,0,0,.78.32,7.82,7.82,0,0,1,2.21.76,1.52,1.52,0,0,1,.75,1,2.12,2.12,0,0,1-.12,1.27,4.13,4.13,0,0,1-1,1.53,4.74,4.74,0,0,1-1.66,1,6.12,6.12,0,0,1-2.2.36q-2.19,0-2.73-.84A2.57,2.57,0,0,1,109.18,83.11Z"/><path d="M120.5,77.37h2.66L120,86h-2.66Z"/><path d="M128.94,82.44l2.07.7a7.25,7.25,0,0,1-1.33,1.64,5.39,5.39,0,0,1-1.62,1,5.53,5.53,0,0,1-2,.33,4.64,4.64,0,0,1-2.14-.4,2.2,2.2,0,0,1-1-1.44,4.53,4.53,0,0,1,.31-2.62,6.86,6.86,0,0,1,2.33-3.28,6,6,0,0,1,3.62-1.14,3.25,3.25,0,0,1,2.31.66,2.52,2.52,0,0,1,.65,2l-2.53.52a1.58,1.58,0,0,0-.05-.57.88.88,0,0,0-.38-.47,1.18,1.18,0,0,0-.66-.16,2.3,2.3,0,0,0-1.64.72,4.37,4.37,0,0,0-1,1.69,3,3,0,0,0-.28,2,1,1,0,0,0,1,.53,2,2,0,0,0,1.31-.43A4.08,4.08,0,0,0,128.94,82.44Z"/><path d="M135.31,86l3.13-8.59h4.42a5.54,5.54,0,0,1,1.81.21,1.18,1.18,0,0,1,.76.78,2.08,2.08,0,0,1-.11,1.39,3.46,3.46,0,0,1-.75,1.23,4.19,4.19,0,0,1-1.15.85,4.77,4.77,0,0,1-1,.34,1.59,1.59,0,0,1,.57.31,1.46,1.46,0,0,1,.26.45,1.72,1.72,0,0,1,.18.54l.38,2.49h-3l-.46-2.63a1.29,1.29,0,0,0-.24-.66.82.82,0,0,0-.58-.2h-.23L138,86Zm4.53-5.11H141a4.57,4.57,0,0,0,.74-.12,1.08,1.08,0,0,0,.53-.27,1.11,1.11,0,0,0,.35-.5.61.61,0,0,0,0-.64c-.12-.15-.43-.22-.91-.22h-1.17Z"/><path d="M150.41,84.54h-3L146.46,86h-2.71l6.36-8.59H153l.1,8.59h-2.78Zm.12-1.86.18-3.09-2.06,3.09Z"/><path d="M160.73,82.44l2.07.7a7,7,0,0,1-1.34,1.64,5.34,5.34,0,0,1-1.61,1,5.56,5.56,0,0,1-2,.33,4.62,4.62,0,0,1-2.14-.4,2.17,2.17,0,0,1-1-1.44,4.45,4.45,0,0,1,.31-2.62,6.91,6.91,0,0,1,2.32-3.28,6,6,0,0,1,3.63-1.14,3.26,3.26,0,0,1,2.31.66,2.52,2.52,0,0,1,.65,2l-2.54.52a1.57,1.57,0,0,0,0-.57.88.88,0,0,0-.38-.47,1.18,1.18,0,0,0-.66-.16,2.34,2.34,0,0,0-1.65.72,4.63,4.63,0,0,0-1,1.69,3,3,0,0,0-.27,2,1,1,0,0,0,1,.53,2.08,2.08,0,0,0,1.31-.43A4.23,4.23,0,0,0,160.73,82.44Z"/><path d="M166.18,77.37h7.12l-.67,1.83h-4.45l-.5,1.37h4.13l-.64,1.75H167L166.43,84H171L170.3,86h-7.24Z"/><path d="M178.85,77.37h4.41a2.18,2.18,0,0,1,1.91.68,2.1,2.1,0,0,1,0,2,4.13,4.13,0,0,1-1.52,2,4.52,4.52,0,0,1-2.65.73h-1.46L178.38,86h-2.66ZM180.18,81h.65a2.15,2.15,0,0,0,1.17-.27,1.33,1.33,0,0,0,.56-.68.76.76,0,0,0,0-.69c-.11-.18-.41-.28-.91-.28h-.75Z"/><path d="M189.17,84.54h-3L185.22,86h-2.7l6.35-8.59h2.9l.1,8.59h-2.78Zm.13-1.86.17-3.09-2.06,3.09Z"/><path d="M192.75,86l3.12-8.59h4.43a5.48,5.48,0,0,1,1.8.21,1.16,1.16,0,0,1,.76.78,2.08,2.08,0,0,1-.1,1.39A3.48,3.48,0,0,1,202,81a4.14,4.14,0,0,1-1.14.85,4.86,4.86,0,0,1-1.06.34,1.63,1.63,0,0,1,.58.31,1.7,1.7,0,0,1,.26.45,2.45,2.45,0,0,1,.18.54L201.2,86h-3l-.47-2.63a1.21,1.21,0,0,0-.24-.66.8.8,0,0,0-.57-.2h-.24L195.41,86Zm4.52-5.11h1.12a4.88,4.88,0,0,0,.75-.12,1,1,0,0,0,.52-.27A1.11,1.11,0,0,0,200,80a.61.61,0,0,0,0-.64c-.12-.15-.42-.22-.91-.22h-1.16Z"/><path d="M204.46,77.37h8.07l-.77,2.12h-2.71L206.7,86H204l2.36-6.47h-2.71Z"/><path d="M211.18,83.11l2.58-.15a1.55,1.55,0,0,0,0,.93,1,1,0,0,0,1,.53,1.76,1.76,0,0,0,1-.27,1.29,1.29,0,0,0,.53-.62.59.59,0,0,0-.08-.6,2.27,2.27,0,0,0-1.17-.49,3.82,3.82,0,0,1-2.11-1,1.63,1.63,0,0,1-.15-1.66,3.41,3.41,0,0,1,.84-1.25,4.18,4.18,0,0,1,1.49-.92,6.32,6.32,0,0,1,2.24-.34,3.31,3.31,0,0,1,2.28.61,1.92,1.92,0,0,1,.32,2l-2.55.15a1,1,0,0,0-.12-.85,1,1,0,0,0-.78-.26,1.39,1.39,0,0,0-.77.2,1,1,0,0,0-.41.47.35.35,0,0,0,.06.37,1.46,1.46,0,0,0,.78.32,7.82,7.82,0,0,1,2.21.76,1.52,1.52,0,0,1,.75,1,2.12,2.12,0,0,1-.12,1.27,4,4,0,0,1-1,1.53,4.74,4.74,0,0,1-1.66,1,6.12,6.12,0,0,1-2.2.36q-2.19,0-2.73-.84A2.57,2.57,0,0,1,211.18,83.11Z"/><path d="M146,135H154l-.77,2.12h-2.7l-2.36,6.47h-2.65l2.35-6.47h-2.71Z"/><path d="M155.23,135h2.65l-1.09,3h2.9l1.09-3h2.67l-3.13,8.59h-2.66l1.26-3.47H156l-1.26,3.47H152.1Z"/><path d="M165.21,135h7.11l-.67,1.84H167.2l-.5,1.36h4.13L170.2,140h-4.13l-.62,1.7H170l-.71,1.94h-7.24Z"/><path d="M174.79,143.61l3.12-8.59h4.43a5.73,5.73,0,0,1,1.8.21,1.24,1.24,0,0,1,.77.79,2.14,2.14,0,0,1-.11,1.39,3.46,3.46,0,0,1-.75,1.23,4,4,0,0,1-1.15.84,4.37,4.37,0,0,1-1.06.34,1.73,1.73,0,0,1,.58.32,1.56,1.56,0,0,1,.26.45,2.55,2.55,0,0,1,.18.53l.38,2.49h-3l-.46-2.62a1.36,1.36,0,0,0-.24-.67.81.81,0,0,0-.58-.19h-.24l-1.26,3.48Zm4.53-5.11h1.11a4.52,4.52,0,0,0,.75-.12,1.08,1.08,0,0,0,.53-.27,1.23,1.23,0,0,0,.35-.49.66.66,0,0,0,0-.64c-.13-.15-.43-.22-.91-.22H180Z"/><path d="M189.88,142.19h-3l-.93,1.42h-2.71l6.35-8.59h2.9l.1,8.59H189.8Zm.13-1.85.17-3.09-2.06,3.09Z"/><path d="M200.2,140.1l2.07.7a6.51,6.51,0,0,1-1.33,1.63,5.15,5.15,0,0,1-1.61,1,5.61,5.61,0,0,1-2,.34,4.54,4.54,0,0,1-2.15-.41,2.16,2.16,0,0,1-1-1.43,4.52,4.52,0,0,1,.31-2.62,6.86,6.86,0,0,1,2.33-3.28,5.89,5.89,0,0,1,3.62-1.14,3.31,3.31,0,0,1,2.32.65,2.53,2.53,0,0,1,.64,2l-2.53.52a1.63,1.63,0,0,0-.05-.58.89.89,0,0,0-.37-.46,1.19,1.19,0,0,0-.66-.17,2.3,2.3,0,0,0-1.65.73,4.42,4.42,0,0,0-1,1.69,3,3,0,0,0-.28,2,1,1,0,0,0,1,.53,2,2,0,0,0,1.3-.43A4.34,4.34,0,0,0,200.2,140.1Z"/><path d="M205.66,135h7.11l-.66,1.84h-4.46l-.49,1.36h4.13l-.64,1.75h-4.13l-.62,1.7h4.58l-.7,1.94h-7.25Z"/><path d="M220.66,140.5l.65-1.79h4.1l-1.33,3.67a13.15,13.15,0,0,1-2.49,1.09,8.13,8.13,0,0,1-2.25.29,4.19,4.19,0,0,1-2.3-.52,2.19,2.19,0,0,1-.93-1.56,4.89,4.89,0,0,1,.33-2.36,7.12,7.12,0,0,1,1.47-2.45,6.24,6.24,0,0,1,2.28-1.58,6.44,6.44,0,0,1,2.5-.41,5.81,5.81,0,0,1,2,.25,1.68,1.68,0,0,1,.88.8,2.61,2.61,0,0,1,.2,1.38l-2.72.45a.9.9,0,0,0-.27-.74,1.3,1.3,0,0,0-.87-.26,2.52,2.52,0,0,0-1.61.61,4.34,4.34,0,0,0-1.22,1.92,2.69,2.69,0,0,0-.2,2,1.28,1.28,0,0,0,1.25.6,3.36,3.36,0,0,0,.89-.13,6.9,6.9,0,0,0,1.09-.44l.29-.81Z"/><path d="M226.43,139.32a6.84,6.84,0,0,1,2.36-3.27,6,6,0,0,1,3.69-1.17,3.17,3.17,0,0,1,2.89,1.15,3.61,3.61,0,0,1,0,3.22,7.59,7.59,0,0,1-1.41,2.47,6,6,0,0,1-4.59,2,4.44,4.44,0,0,1-2.24-.47,2.15,2.15,0,0,1-1-1.46A4.59,4.59,0,0,1,226.43,139.32Zm2.65,0a2.59,2.59,0,0,0-.2,1.87,1.11,1.11,0,0,0,1.11.57,2.28,2.28,0,0,0,1.53-.56,4.62,4.62,0,0,0,1.19-2,2.37,2.37,0,0,0,.16-1.77,1.12,1.12,0,0,0-1.12-.56,2.3,2.3,0,0,0-1.5.56,4.37,4.37,0,0,0-1.17,1.88Z"/><path d="M238.32,135h7.11l-.66,1.84h-4.46l-.49,1.36H244l-.64,1.75h-4.13l-.62,1.7h4.58l-.7,1.94h-7.25Z"/><path d="M244.44,140.77l2.58-.16a1.59,1.59,0,0,0,0,.94,1,1,0,0,0,1,.52,1.68,1.68,0,0,0,1-.27,1.31,1.31,0,0,0,.53-.61.59.59,0,0,0-.08-.6,2.2,2.2,0,0,0-1.17-.5,3.81,3.81,0,0,1-2.11-1,1.63,1.63,0,0,1-.15-1.66,3.33,3.33,0,0,1,.84-1.25,4.12,4.12,0,0,1,1.49-.93,6.29,6.29,0,0,1,2.23-.33,3.27,3.27,0,0,1,2.29.61,1.92,1.92,0,0,1,.32,1.95l-2.55.14a.79.79,0,0,0-.39-1.05.81.81,0,0,0-.51-.05,1.38,1.38,0,0,0-.77.19,1,1,0,0,0-.41.48.36.36,0,0,0,.06.37,1.38,1.38,0,0,0,.78.31,8.27,8.27,0,0,1,2.21.76,1.57,1.57,0,0,1,.75,1,2.14,2.14,0,0,1-.12,1.27,4,4,0,0,1-1,1.52,4.62,4.62,0,0,1-1.66,1.06,6.35,6.35,0,0,1-2.2.36c-1.46,0-2.37-.28-2.73-.85A2.55,2.55,0,0,1,244.44,140.77Z"/><path d="M257.76,139.32a6.84,6.84,0,0,1,2.36-3.27,6,6,0,0,1,3.69-1.17A3.17,3.17,0,0,1,266.7,136a3.61,3.61,0,0,1,0,3.22,7.59,7.59,0,0,1-1.41,2.47,6,6,0,0,1-4.59,2,4.44,4.44,0,0,1-2.24-.47,2.15,2.15,0,0,1-1-1.46A4.59,4.59,0,0,1,257.76,139.32Zm2.65,0a2.59,2.59,0,0,0-.2,1.87,1.11,1.11,0,0,0,1.11.57,2.28,2.28,0,0,0,1.53-.56,4.62,4.62,0,0,0,1.19-2,2.37,2.37,0,0,0,.16-1.77,1.12,1.12,0,0,0-1.12-.56,2.3,2.3,0,0,0-1.5.56,4.37,4.37,0,0,0-1.17,1.88Z"/><path d="M269.67,135h2.48l1.51,4.75,1.73-4.75h2.5l-3.13,8.59h-2.5l-1.5-4.71L269,143.61h-2.49Z"/></svg>