<?xml version="1.0" encoding="utf-8"?>
<!-- Generator: Adobe Illustrator 23.0.4, SVG Export Plug-In . SVG Version: 6.00 Build 0)  -->
<svg version="1.1" id="Layer_1" xmlns="http://www.w3.org/2000/svg" xmlns:xlink="http://www.w3.org/1999/xlink" x="0px" y="0px"
	 viewBox="0 0 1017.8 1030.6" style="enable-background:new 0 0 1017.8 1030.6;" xml:space="preserve">
<title>pattern-swirl</title>
<g id="d74c9eb9-7d6e-418f-9311-00b7c3f7c9b5" style="opacity:0.4;">
	<g id="b737c363-d46d-47a9-8f27-16bcdaf41625">
		<path style="fill:#2B2B2B;" d="M525.7,5.3c1.1,7,2.9,14,4.6,20.7c1.1,4.3,2.2,8.8,3.2,13.3c1.3,6.2,0.1,12.5-3.2,16.6
			c-3.2,4-8.3,6.1-14.8,6.1c-4.7,0-9.5-0.3-14.2-0.6c-1.7-0.1-3.5-0.2-5.2-0.3c-13.4-0.8-23.7-1.4-33.5-2
			c-9.8-0.5-19.3-4.1-26.9-10.3C419.7,35.7,405.9,20,395,2.5c-0.5-0.8-0.9-1.6-1.2-2.5h-2.2c0.5,1.2,1.1,2.4,1.7,3.5
			c11,17.8,24.9,33.6,41.1,46.8c7.9,6.5,17.8,10.3,28,10.8c9.8,0.6,20.1,1.2,33.5,2c1.7,0.1,3.5,0.2,5.2,0.3
			c4.6,0.3,9.3,0.6,13.9,0.6h0.4c7.1,0,12.7-2.4,16.3-6.8c3.7-4.6,5.1-11.5,3.6-18.3c-1-4.5-2.1-9-3.2-13.3
			c-1.7-6.7-3.5-13.7-4.6-20.6c0-0.1,0-0.2-0.1-0.2c0-0.1-0.7-1.8-1.6-4.7h-2C524.8,2.9,525.5,4.8,525.7,5.3z"/>
		<path style="fill:#2B2B2B;" d="M436.2,602.3c0.6,0,1-0.4,1-1c0-0.4-0.2-0.7-0.5-0.9c-3.6-1.9-7.3-3.5-11.1-4.9
			c-0.5-0.2-1.1,0.1-1.3,0.6c-0.2,0.5,0.1,1.1,0.6,1.3c3.7,1.4,7.3,3,10.9,4.8C435.9,602.2,436,602.3,436.2,602.3z"/>
		<path style="fill:#2B2B2B;" d="M405.3,671.8c0.2,0,0.3,0,0.5-0.1c3.5-1.9,7-4.1,10.2-6.5c0.5-0.3,0.6-0.9,0.3-1.4
			c-0.3-0.5-0.9-0.6-1.4-0.3c0,0,0,0-0.1,0c-3.2,2.3-6.5,4.4-10,6.3c-0.5,0.3-0.7,0.9-0.4,1.4C404.6,671.6,404.9,671.8,405.3,671.8z
			"/>
		<path style="fill:#2B2B2B;" d="M452.9,618.5c0.6,0,1-0.4,1-1c0-0.1,0-0.2,0-0.3c-0.9-3.5-3.3-7-7-10.2c-0.4-0.4-1.1-0.3-1.4,0.1
			c-0.4,0.4-0.3,1.1,0.1,1.4c3.4,3,5.6,6,6.4,9.2C452.1,618.2,452.5,618.5,452.9,618.5z"/>
		<path style="fill:#2B2B2B;" d="M432.7,647.8c-1.6,1.7-3.1,3.1-4.5,4.5s-2.7,2.6-4.1,3.8c-0.4,0.4-0.5,1-0.1,1.4
			c0.4,0.4,1,0.5,1.4,0.1c1.4-1.2,2.7-2.5,4.1-3.8s3-2.9,4.6-4.6c0.4-0.4,0.4-1,0-1.4C433.7,647.4,433.1,647.5,432.7,647.8
			L432.7,647.8z"/>
		<path style="fill:#2B2B2B;" d="M413.9,593.5c0.6,0.1,1.1-0.3,1.1-0.9c0.1-0.6-0.3-1.1-0.9-1.1c-3.7-1.1-7.7-2.2-11.7-3.2
			c-0.5-0.2-1.1,0.1-1.3,0.7c-0.2,0.5,0.1,1.1,0.7,1.3c0,0,0.1,0,0.1,0c4,1,7.9,2,11.6,3.1C413.7,593.5,413.8,593.5,413.9,593.5z"/>
		<path style="fill:#2B2B2B;" d="M449.8,628.4c-0.3,0.5-0.7,1.1-1.1,1.6c-2.1,2.3-4.2,4.7-6.2,7l-1.8,2c-0.4,0.4-0.4,1,0,1.4
			c0.4,0.4,1,0.4,1.4,0c0,0,0,0,0.1-0.1l1.8-2c2-2.3,4.1-4.7,6.2-7c0.5-0.6,0.9-1.2,1.2-1.8c0.3-0.5,0.1-1.1-0.3-1.4
			S450.1,628,449.8,628.4L449.8,628.4L449.8,628.4z"/>
		<path style="fill:#2B2B2B;" d="M270.4,674.3l1.1,0.7c2.7,1.6,5.6,3.2,9.5,5.2c0.5,0.2,1.1,0,1.3-0.4c0.2-0.5,0-1.1-0.4-1.3
			c-3.8-1.9-6.7-3.5-9.4-5.1l-1-0.7c-0.5-0.3-1.1-0.2-1.4,0.3S270,674,270.4,674.3L270.4,674.3L270.4,674.3z"/>
		<path style="fill:#2B2B2B;" d="M264.2,642.9c0.4,0,0.7-0.2,0.9-0.6c1.7-3.5,3.8-6.9,6.3-9.9c0.3-0.4,0.2-1.1-0.2-1.4
			c-0.4-0.3-1-0.3-1.4,0.2c-2.6,3.2-4.8,6.6-6.5,10.3c-0.2,0.5,0,1.1,0.5,1.3C263.9,642.9,264.1,642.9,264.2,642.9L264.2,642.9z"/>
		<path style="fill:#2B2B2B;" d="M295.4,605.6c2.3-3.3,4.4-6.8,6.3-10.3c0.3-0.5,0.1-1.1-0.4-1.4s-1.1-0.1-1.4,0.4
			c-1.9,3.5-4,6.9-6.2,10.1c-0.3,0.5-0.2,1.1,0.3,1.4C294.4,606.1,295,606,295.4,605.6L295.4,605.6z"/>
		<path style="fill:#2B2B2B;" d="M291.4,684.1c-0.2,0.5,0,1.1,0.5,1.3l1.4,0.7c3.1,1.5,6.2,3.1,9.4,4.6c0.5,0.3,1.1,0.1,1.4-0.4
			c0.3-0.5,0.1-1.1-0.4-1.4c0,0-0.1,0-0.1-0.1c-3.1-1.5-6.3-3-9.3-4.6l-1.4-0.7C292.2,683.4,291.6,683.6,291.4,684.1z"/>
		<path style="fill:#2B2B2B;" d="M287.9,613.8c-0.4-0.4-1.1-0.3-1.4,0.1c0,0,0,0,0,0c-2.5,3-5.2,5.9-8,8.8c-0.4,0.4-0.4,1,0,1.4
			c0.4,0.4,1,0.4,1.4,0c2.9-2.9,5.6-5.9,8.1-8.9C288.4,614.8,288.3,614.2,287.9,613.8C287.9,613.8,287.9,613.8,287.9,613.8z"/>
		<path style="fill:#2B2B2B;" d="M261.1,652.4c-0.5-0.1-1,0.4-1.1,0.9c-0.1,1.1-0.1,2.2-0.1,3.2c0,1.2,0.1,2.5,0.2,3.7
			c0.2,1.9,0.7,3.7,1.6,5.3c0.2,0.5,0.8,0.7,1.3,0.5c0.5-0.2,0.7-0.8,0.5-1.3c0,0,0,0,0-0.1c-0.7-1.4-1.2-3-1.4-4.6
			c-0.1-1.2-0.2-2.4-0.2-3.5c0-1,0-2,0.1-3.1C262.1,653,261.7,652.5,261.1,652.4z"/>
		<path style="fill:#2B2B2B;" d="M390.2,587.8c0.1,0,0.2,0,0.2,0c0.6,0.1,1.1-0.3,1.1-0.9s-0.3-1.1-0.9-1.1
			c-3.8-0.9-7.6-2.1-11.4-3.5c-0.5-0.2-1.1,0.1-1.3,0.6c-0.2,0.5,0.1,1.1,0.6,1.3C382.4,585.6,386.3,586.8,390.2,587.8z"/>
		<path style="fill:#2B2B2B;" d="M383.1,680.7c0.1,0,0.2,0,0.3,0c4.3-1.4,8-2.7,11.4-4c0.5-0.2,0.7-0.8,0.5-1.3
			c-0.2-0.5-0.7-0.7-1.2-0.6c-3.3,1.2-7,2.5-11.3,4c-0.5,0.2-0.8,0.7-0.6,1.3C382.2,680.4,382.6,680.7,383.1,680.7L383.1,680.7z"/>
		<path style="fill:#2B2B2B;" d="M313.6,695.6c3.8,1.5,7.9,2.2,12,2.2h0.1c0.6,0,1-0.4,1-1s-0.4-1-1-1h-0.1c-3.8,0-7.6-0.7-11.2-2.1
			c-0.5-0.2-1.1,0-1.3,0.5S313.1,695.4,313.6,695.6C313.6,695.6,313.6,695.6,313.6,695.6L313.6,695.6z"/>
		<path style="fill:#2B2B2B;" d="M309,572.4c-1.1,3.8-2.4,7.6-3.9,11.2c-0.2,0.5,0,1.1,0.5,1.3c0.5,0.2,1.1,0,1.3-0.5
			c1.5-3.7,2.9-7.5,4-11.4c0.1-0.5-0.2-1.1-0.8-1.2C309.7,571.6,309.2,571.9,309,572.4L309,572.4z"/>
		<path style="fill:#2B2B2B;" d="M368,579.4c0.6,0,1-0.5,1-1c0-0.4-0.2-0.7-0.5-0.9c-3.5-1.9-6.8-4-10-6.3c-0.4-0.3-1.1-0.2-1.4,0.2
			c-0.3,0.4-0.2,1.1,0.2,1.4c3.3,2.4,6.7,4.5,10.3,6.4C367.7,579.3,367.9,579.4,368,579.4z"/>
		<path style="fill:#2B2B2B;" d="M312.4,537.1c0.1,0.5,0.5,0.9,1,0.9h0.1c0.5-0.1,1-0.5,0.9-1.1c-0.2-2.8-0.7-5.5-1.4-8.2l0,0
			c-0.5-1.5-0.8-2.6-1.1-3.7c-0.1-0.5-0.7-0.9-1.2-0.7c-0.5,0.1-0.9,0.7-0.7,1.2c0.3,1.1,0.6,2.3,1.2,3.8
			C311.7,531.9,312.1,534.5,312.4,537.1z"/>
		<path style="fill:#2B2B2B;" d="M312.4,562h0.2c0.5,0,0.9-0.4,1-0.8c0.6-4,1-8,1.2-12.1c0-0.6-0.4-1-1-1s-1,0.4-1,1
			c-0.1,4-0.5,7.9-1.2,11.8C311.5,561.4,311.9,561.9,312.4,562z"/>
		<path style="fill:#2B2B2B;" d="M371.3,682.4l-0.3,0.1c-3.3,1.1-6.6,2.1-9.9,3.2l-1.2,0.4c-0.6,0.1-0.9,0.6-0.8,1.2
			c0.1,0.6,0.6,0.9,1.2,0.8c0.1,0,0.2,0,0.3,0l1.2-0.4c3.3-1.1,6.6-2.1,9.9-3.2l0.3-0.1c0.5-0.2,0.8-0.8,0.6-1.3
			c-0.2-0.5-0.7-0.7-1.2-0.6L371.3,682.4z"/>
		<path style="fill:#2B2B2B;" d="M338.8,542.6c0,0.6,0.4,1,1,1s1-0.4,1-1v-0.5c0-0.7,0-1.3,0-1.9c0-3.1-0.1-6.4-0.4-9.6
			c0-0.6-0.5-1-1.1-0.9s-1,0.5-0.9,1.1c0.2,3.2,0.4,6.4,0.4,9.5c0,0.6,0,1.3,0,1.9L338.8,542.6z"/>
		<path style="fill:#2B2B2B;" d="M332.8,507.8c-0.4-0.3-1.1-0.2-1.4,0.2s-0.2,1.1,0.2,1.4c2.7,2,4.6,5,5.2,8.4l0.2,1.1
			c0.1,0.5,0.5,0.8,1,0.8h0.2c0.5-0.1,0.9-0.6,0.8-1.2l-0.2-1.1C338.1,513.6,336,510.1,332.8,507.8z"/>
		<path style="fill:#2B2B2B;" d="M348.5,689.8c-3.4,1.1-7.4,2.4-11.4,3.9c-0.5,0.2-0.8,0.7-0.6,1.3c0.2,0.5,0.7,0.8,1.3,0.6
			c0,0,0,0,0.1,0c4-1.5,8-2.8,11.3-3.8c0.5-0.2,0.8-0.8,0.6-1.3C349.5,690,349,689.7,348.5,689.8L348.5,689.8z"/>
		<path style="fill:#2B2B2B;" d="M348.8,565.2c0.6,0,1-0.5,1-1c0-0.3-0.1-0.5-0.3-0.7c-2.7-2.8-4.9-6-6.5-9.6
			c-0.2-0.5-0.8-0.8-1.3-0.6s-0.8,0.8-0.6,1.3c0,0,0,0,0,0.1c1.6,3.8,4,7.2,6.9,10.2C348.2,565.1,348.5,565.2,348.8,565.2z"/>
		<path style="fill:#2B2B2B;" d="M311.1,514.5c0.5,0.3,1.1,0.1,1.4-0.4c0,0,0,0,0,0c1.9-3.3,5-5.7,8.6-6.7c0.5-0.1,0.9-0.7,0.7-1.2
			s-0.7-0.9-1.2-0.7c0,0,0,0-0.1,0c-4.2,1.1-7.7,3.9-9.9,7.7C310.5,513.7,310.6,514.3,311.1,514.5z"/>
		<path style="fill:#2B2B2B;" d="M258.4,444.4c7.2,2.5,15.1,3.5,24.8,2.9c10.7-0.6,20.7-2.9,29.9-5.2c17.8-4.6,34.8-11.7,50.6-21.2
			c4.2-2.5,8.7-4.5,13.4-5.7c3.7-1,6.2,0.9,8.6,6.2c1.5,3.3,3,6.6,4.5,9.8c3.3,7.2,6.8,14.7,9.9,22.2l0.8,2c3.4,8.1,7,16.4,9.4,24.9
			c1.3,4.5,1.7,9.3,2.1,14.3c0.2,2.1,0.3,4.2,0.6,6.3l0.2,1.8c0.8,7.2,1.6,14.6,6.8,20.8c4.5,5.3,10.6,8,18.3,8
			c1.8,0,3.6-0.1,5.4-0.4c17.4-2.5,30-8.2,39.7-17.9c7.5-7.6,10-17.3,12.4-26.8l0.6-2.3c2.5-9.6,5-19.6,6.4-29.6
			c1.6-11.5-2-22.1-10.8-31.6c-9-9.7-20.6-15.1-31.7-19.5c-13.1-5.2-27.5-9-45.4-12c-6.2-1-12.6-1.3-18.9-1c-4.9,0.2-8.3-2.1-10.4-7
			c-2.4-5.6-4.3-11.5-5.4-17.5c-0.9-4.5-1.4-9.1-2-13.6c-0.4-3-0.7-6.2-1.2-9.3c-1.1-7.4-9-14.9-17.7-13.8c-2.1,0.2-4.1,0.2-6.2,0.1
			c-1,0-2-0.1-3-0.1h-0.2c-0.3,0-0.6,0-0.9,0.1l-7.4,2.6c-5.5,1.9-11.1,3.9-16.6,5.9c-11.5,4.3-20,13.3-26,27.6
			c-6.7,15.8-16.3,31.4-30.4,49c-4.2,5.2-9,11.3-13.5,17.6c-2.4,3.4-2.3,6-1.8,7.6S254.9,443.2,258.4,444.4z M258.2,434.3
			c4.5-6.2,9.3-12.2,13.4-17.4c14.3-17.9,24.1-33.8,30.9-49.9c5.7-13.4,13.2-21.5,23.7-25.4c5.5-2,11.1-4,16.5-5.9l7.1-2.5h0.2
			c1,0,1.9,0,2.9,0.1c2.3,0.1,4.6,0.1,6.8-0.1c6.4-0.8,12.4,4.9,13.2,10.4c0.5,3,0.8,6.1,1.2,9.1c0.5,4.6,1.1,9.3,2,13.9
			c1.2,6.3,3.1,12.5,5.7,18.4c2.8,6.4,7.8,9.6,14.2,9.4c6-0.3,12.1,0,18.1,1c17.6,3,31.8,6.7,44.6,11.8c10.7,4.2,21.8,9.4,30.3,18.5
			c8,8.6,11.2,18.1,9.8,28.3c-1.4,9.8-3.9,19.7-6.3,29.2l-0.6,2.3c-2.4,9.3-4.6,18.1-11.4,24.9c-9,9.1-20.9,14.4-37.4,16.8
			c-9,1.3-15.6-0.7-20.1-6.2c-4.4-5.2-5.1-11.8-5.9-18.6l-0.2-1.8c-0.2-2-0.4-4.1-0.6-6.2c-0.2-5.1-1-10.1-2.2-15.1
			c-2.5-8.7-6.1-17.1-9.6-25.3l-0.8-2c-3.2-7.5-6.6-15-10-22.3c-1.5-3.3-3-6.5-4.5-9.8c-1-2.3-4-8.8-10.5-8.8
			c-0.9,0-1.9,0.1-2.8,0.4c-5.1,1.4-10,3.4-14.5,6.1c-15.4,9.2-32.1,16.2-49.5,20.7c-9,2.3-18.8,4.5-29.1,5.1
			c-9.1,0.5-16.5-0.3-23.2-2.7c-1.1-0.4-2.4-1.1-2.8-2.2S257,435.9,258.2,434.3L258.2,434.3z"/>
		<path style="fill:#2B2B2B;" d="M315.8,414.1c0.6,0,1.2,0,1.8-0.1c11.5-1.6,19.9-7.7,24.8-18c3-6.2,3.5-13,1.5-20.7
			c-1.3-5.5-6.3-9.3-11.9-9.2c-0.1,0-0.2,0-0.3,0c-0.2,0-0.3,0-0.5,0c-6.1,1.7-10.9,6.1-14.5,13.1c-3.6,7.5-6.6,15.2-9.1,23.1
			c-1.1,3.3-0.7,6.5,1.2,8.8C310.6,413.1,313.2,414.2,315.8,414.1z M309.5,402.9c2.5-7.8,5.5-15.4,9-22.8
			c3.2-6.4,7.7-10.5,13.2-12.1h0.2c4.7-0.1,8.9,3.1,10,7.8c1.8,7.2,1.4,13.6-1.4,19.3c-4.6,9.6-12.5,15.3-23.3,16.8
			c-2.9,0.4-5.4-0.4-6.9-2.2C308.9,407.8,308.6,405.2,309.5,402.9z"/>
		<path style="fill:#2B2B2B;" d="M424.8,447.1c6.5,9.7,13.5,19.4,20.3,28.7l0.6,0.9c2.1,2.9,5.4,4.7,9,4.7h0.4
			c4.2-0.2,8-2.6,10.2-6.2c4.8-7.8,9.5-17.2,7.2-28.7c-2.2-11.1-9.3-18.9-21.7-23.6c-3.7-1.3-7.6-2.2-11.5-2.7
			c-1.7-0.3-3.5-0.6-5.1-1c-0.2,0-0.3,0-0.5,0c-0.2-0.1-0.4-0.1-0.6,0c-11,3.5-13.2,6.8-12.1,17.5
			C421.5,440.3,422.8,443.9,424.8,447.1z M433.8,421.1L433.8,421.1c1.7,0.4,3.5,0.7,5.2,1c3.8,0.5,7.5,1.4,11.1,2.6
			c11.7,4.5,18.4,11.7,20.5,22.1c2.1,10.8-2.3,19.8-6.9,27.3c-1.8,3.1-5,5.1-8.6,5.3c-3.1,0.1-6-1.3-7.7-3.8l-0.6-0.9
			c-6.8-9.3-13.8-18.9-20.3-28.6c-1.8-2.9-3-6.1-3.3-9.5C422,426.8,423.7,424.3,433.8,421.1L433.8,421.1z"/>
		<path style="fill:#2B2B2B;" d="M221,457.8c0.6-0.5,1.1-1.2,1.3-2c0.4-1.6,0.7-3.1,0.8-4.7c0.1-0.6,0.2-1.2,0.3-1.9
			c0.1-0.5-0.3-1.1-0.8-1.1c0,0,0,0,0,0c-0.6-0.1-1.3-0.3-2-0.4c-1.6-0.5-3.2-0.7-4.9-0.5c-3,0.6-5.9,1.5-8.8,2.3
			c-3.3,0.9-6.8,1.9-10.2,2.5c-10.8,2-21.8,3.7-32.4,5l-5,0.6c-11.1,1.4-22.6,2.9-33.9,3.3c-19.6,0.8-37.5-5.8-53.4-19.5
			c-7.1-6.2-14.9-12.4-24.3-15.7c-3.3-1.1-6.7-1.9-10.1-2.6c-1.5-0.3-3-0.6-4.5-1c-0.2,0-0.3,0-0.5,0c-0.1,0-0.3,0-0.5,0
			c-5.7,1.1-10.2,4.4-14.2,10.4C13.7,439,8.2,446.2,0,451v2.3c9.1-5.1,15.1-12.8,19.8-19.8c3.7-5.5,7.7-8.5,12.9-9.5h0.1
			c1.5,0.4,3,0.7,4.5,1c3.3,0.6,6.6,1.5,9.8,2.5c9.1,3.1,16.7,9.3,23.6,15.3c16.3,14,34.7,20.8,54.7,20c11.4-0.4,22.9-1.9,34.1-3.3
			l5-0.6c10.7-1.3,21.7-3,32.6-5c3.5-0.6,7-1.6,10.4-2.6c2.8-0.8,5.8-1.6,8.7-2.2c1.3-0.1,2.7,0,4,0.4l1.2,0.3c0,0.3-0.1,0.6-0.1,1
			c-0.2,1.5-0.4,3-0.8,4.5c-0.2,0.4-0.5,0.8-0.9,1.1c-0.3,0.3-0.7,0.7-0.9,1.1c-11,16.6-14.3,35.4-10,57.7
			c1.5,7.6,3.7,15.2,5.8,22.6c1,3.6,2.1,7.3,3.1,11c2.6,9.9-4.4,25.5-11.5,30c-2.4,1.5-4.4,1.5-6.3-0.1c-3.1-2.7-6-5.6-8.8-8.7
			l-0.7-0.7c-5.4-5.7-12-10-19.4-12.7c-9.1-3.4-18.6-5.6-28.2-6.7c-5.4-0.6-10.8-1-16.2-1c-6.7,0-13.4,0.5-20.1,1.6
			c-2.7,0.4-5.5,0.9-8.1,1.4c-8.5,1.6-17.2,3.2-26.1,2.2c-7-0.8-14.2-2-19.3-7.4c-5.1-5.2-9.6-11-13.3-17.3
			C31,515,19,504.6,2.9,497.6l-1.2-0.5L0,496.4v2.2l1,0.4l1.2,0.5c15.7,6.8,27.4,16.9,35.7,31c3.8,6.4,8.4,12.3,13.6,17.7
			c5.5,5.9,13.2,7.2,20.5,8c9.2,1.1,18.1-0.6,26.7-2.2c2.7-0.5,5.4-1,8.1-1.4c11.8-1.8,23.9-2,35.8-0.6c9.5,1.1,18.8,3.3,27.7,6.6
			c7.1,2.6,13.5,6.7,18.7,12.2l0.7,0.7c2.8,3.1,5.8,6,9,8.8c1.2,1.1,2.7,1.7,4.3,1.7c1.6-0.1,3.1-0.6,4.4-1.4
			c7.8-4.9,15.2-21.4,12.4-32.2c-1-3.7-2.1-7.4-3.1-11c-2.1-7.3-4.3-14.9-5.7-22.4c-4.2-21.7-1-40.1,9.7-56.2
			C220.6,458.3,220.8,458.1,221,457.8z"/>
		<path style="fill:#2B2B2B;" d="M268.4,6.1c1.1-1.9,2-4,2.7-6.1h-2.1c-0.6,1.8-1.4,3.5-2.3,5.1c-8.9,16.3-18.6,29.6-29.4,40.7
			c-13.3,13.5-17.6,30.4-13.6,52.9c0.5,2.9,1.1,5.8,1.6,8.6c2.2,11.4,4.5,23.2,3.8,35.2c-1.1,18.6-11,23.6-19.2,24.5
			c-5.4,0.6-10.9,1-16.4,1h-0.2c-13,0-22.2-8.4-23.4-21.5c-1.3-14.6-3.7-26.4-7.6-37.2c-4.7-13.3-9.5-27.4-11.2-42.3
			c-1.9-16.8-5.8-30-12.3-41.4c-4.8-8.5-6.3-17-4.6-25.6h-2c-1.7,8.9-0.1,17.9,4.8,26.6c6.3,11.2,10.2,24.1,12.1,40.6
			c1.7,15.1,6.5,29.4,11.3,42.8c3.8,10.6,6.2,22.3,7.5,36.7c1.3,14.2,11.2,23.4,25.3,23.4h0.2c5.5,0,11.1-0.4,16.6-1
			c12.6-1.5,20-10.8,20.9-26.4c0.7-12.2-1.6-24.1-3.8-35.7c-0.6-2.9-1.1-5.7-1.6-8.6c-3.9-21.8,0.2-38.1,13-51.2
			C249.6,36,259.3,22.6,268.4,6.1z"/>
		<path style="fill:#2B2B2B;" d="M165.5,475.7c-4-0.5-8.1-0.8-12.1-0.9l0,0c-0.8,0-1.5,0.7-1.5,1.5s0.7,1.5,1.5,1.5
			c3.9,0,7.9,0.3,11.8,0.8h0.2c0.8,0.1,1.5-0.6,1.6-1.4C167.1,476.4,166.4,475.7,165.5,475.7L165.5,475.7z"/>
		<path style="fill:#2B2B2B;" d="M140.6,532.7c0,0.8,0.7,1.4,1.5,1.4h0.1c4.4-0.3,8.4-0.7,12.1-1.2c0.8-0.1,1.4-0.9,1.3-1.7
			c-0.1-0.8-0.9-1.4-1.7-1.3l0,0c-3.6,0.5-7.4,1-11.8,1.2C141.1,531.2,140.5,531.9,140.6,532.7C140.5,532.7,140.5,532.7,140.6,532.7
			z"/>
		<path style="fill:#2B2B2B;" d="M183.6,502.3c-0.1,0.9-0.1,1.9-0.1,2.8c0,2.9-0.5,5.8-1.5,8.5c-0.3,0.8,0.1,1.6,0.9,1.9
			c0.2,0.1,0.3,0.1,0.5,0.1c0.6,0,1.2-0.4,1.4-1c1.1-3.1,1.6-6.3,1.7-9.5c0-0.9,0.1-1.8,0.1-2.7c0-0.8-0.6-1.5-1.4-1.5c0,0,0,0,0,0
			C184.4,500.8,183.7,501.5,183.6,502.3z"/>
		<path style="fill:#2B2B2B;" d="M177.4,479.8c-0.7-0.5-1.6-0.3-2.1,0.4c-0.5,0.7-0.3,1.6,0.4,2.1c3,2.2,5.3,5.2,6.4,8.8
			c0.3,0.8,1.2,1.1,2,0.8c0.7-0.3,1-1.1,0.8-1.8C183.6,485.9,181,482.3,177.4,479.8z"/>
		<path style="fill:#2B2B2B;" d="M165.2,527.4c-0.8,0.2-1.2,1.1-1,1.9s1.1,1.2,1.9,1c1.2-0.4,2.3-0.7,3.4-1.1c2.8-1,5.5-2.4,7.8-4.2
			c0.7-0.5,0.8-1.5,0.3-2.1c-0.5-0.7-1.5-0.8-2.1-0.3l0,0c-2.1,1.6-4.5,2.9-7,3.8C167.5,526.7,166.4,527,165.2,527.4z"/>
		<path style="fill:#2B2B2B;" d="M93,484.3c-3.8,1.5-7.5,3.4-10.9,5.6c-0.7,0.5-0.9,1.4-0.4,2.1c0.5,0.7,1.4,0.9,2.1,0.4l0,0
			c3.3-2.1,6.8-3.9,10.4-5.3c0.8-0.3,1.1-1.2,0.8-2C94.6,484.4,93.8,484,93,484.3L93,484.3z"/>
		<path style="fill:#2B2B2B;" d="M74.8,520.9c-0.5-0.7-1.4-0.9-2.1-0.4c-0.7,0.5-0.9,1.4-0.4,2.1c2.4,3.5,5.7,6.4,9.5,8.4
			c0.8,0.3,1.6,0,2-0.8c0.3-0.7,0-1.5-0.6-1.9C79.8,526.6,76.9,524,74.8,520.9z"/>
		<path style="fill:#2B2B2B;" d="M75,498c-0.7-0.5-1.6-0.3-2.1,0.4c0,0,0,0,0,0c-2.5,3.5-3.9,7.7-4.1,12c0,0.8,0.6,1.5,1.5,1.5
			c0,0,0,0,0,0l0,0c0.8,0,1.5-0.7,1.5-1.5c0.1-3.7,1.3-7.3,3.5-10.4C75.8,499.4,75.7,498.5,75,498z"/>
		<path style="fill:#2B2B2B;" d="M116.5,478.2c-3.3,0.6-7.6,1.4-11.8,2.4c-0.8,0.2-1.4,0.9-1.2,1.7c0.2,0.8,0.9,1.4,1.7,1.2
			c0.1,0,0.1,0,0.2,0c4.2-1,8.4-1.8,11.7-2.4c0.8-0.1,1.4-0.9,1.2-1.8C118.1,478.6,117.3,478,116.5,478.2L116.5,478.2z"/>
		<path style="fill:#2B2B2B;" d="M92.6,532c-0.1,0.8,0.6,1.5,1.4,1.6c0,0,0,0,0,0c4.7,0.2,8.5,0.4,12,0.5h0.1c0.8,0,1.5-0.6,1.5-1.5
			c0-0.8-0.6-1.5-1.5-1.5l0,0c-3.5-0.1-7.3-0.3-12-0.5C93.3,530.6,92.6,531.2,92.6,532z"/>
		<path style="fill:#2B2B2B;" d="M118.1,531.5c-0.8,0-1.5,0.6-1.5,1.5s0.6,1.5,1.5,1.5c2.5,0,5.1,0.1,7.4,0.1h4.6
			c0.8,0,1.5-0.7,1.5-1.5s-0.7-1.5-1.5-1.5l0,0C126.1,531.6,122.2,531.6,118.1,531.5z"/>
		<path style="fill:#2B2B2B;" d="M141.4,474.6H141c-0.1,0-0.2,0-0.3,0c-0.2,0-0.3,0-0.5,0c-2.1,0.3-4.2,0.6-6.4,0.9l-5.5,0.8
			c-0.8,0.1-1.5,0.8-1.4,1.6s0.8,1.5,1.6,1.4h0.2l5.5-0.8c2.1-0.3,4.3-0.6,6.4-0.9l0,0h0.2h0.4c0.8,0,1.5-0.6,1.6-1.4
			S142.2,474.6,141.4,474.6L141.4,474.6z"/>
		<path style="fill:#2B2B2B;" d="M12.1,161.6c-0.6-5.4-0.9-10.8-0.9-16.2c0-2.6-0.1-5.3-0.2-8c-0.3-6.6-0.6-13.1-1-19.6
			c-0.5-7.8-4.1-15-10-20v9c2.4,3.4,3.8,7.3,4,11.4c0.4,6.4,0.7,12.9,1,19.4c0.1,2.6,0.2,5.3,0.2,7.8c0,5.7,0.3,11.3,1,16.9
			c1.6,11.5,1.1,20.2-1.6,28.1c-1.2,3.4-2.7,6.7-4.6,9.9v11c4.3-5.8,7.8-12.2,10.2-19C13.3,183.7,13.9,174.1,12.1,161.6z"/>
		<path style="fill:#2B2B2B;" d="M529.2,179.7c-1.9,1.6-3.8,3.3-5.8,4.8c-0.4,0.3-0.5,1-0.2,1.4c0.3,0.4,1,0.5,1.4,0.2
			c2-1.6,4-3.2,5.8-4.9l1.6-1.4c0.6-0.5,1.2-1.1,1.8-1.7c0.4-0.4,0.4-1,0-1.4c-0.4-0.4-1-0.4-1.4,0l0,0c-0.5,0.5-1,1.1-1.6,1.5
			L529.2,179.7z"/>
		<path style="fill:#2B2B2B;" d="M358.3,135.2c1.6,1.6,3.2,3.2,4.9,4.7c0.4,0.4,1,0.4,1.4,0c0.4-0.4,0.4-1,0-1.4
			c-1.6-1.5-3.3-3.1-4.8-4.7c-1.2-1.2-2.3-2.5-3.3-3.8c-0.3-0.4-1-0.5-1.4-0.2c-0.4,0.3-0.5,1-0.2,1.4
			C355.9,132.6,357.1,134,358.3,135.2z"/>
		<path style="fill:#2B2B2B;" d="M423.4,84.2c0.7,0.7,1.4,1.3,2.2,1.9c0.4,0.4,1.1,0.3,1.4-0.1c0.4-0.4,0.3-1.1-0.1-1.4
			c-0.7-0.6-1.4-1.2-2.1-1.9c-2-1.9-4.2-4-6.5-6.4c-0.4-0.4-1-0.5-1.4-0.1c-0.4,0.4-0.5,1-0.1,1.4c0,0,0.1,0.1,0.1,0.1
			C419.2,80.2,421.4,82.3,423.4,84.2z"/>
		<path style="fill:#2B2B2B;" d="M419,153.2c1.7,0,3.3,0,5,0c2.5,0.1,4.8,0.2,7,0.3l0,0c0.6,0,1-0.4,1-1s-0.4-1-1-1
			c-2.2-0.1-4.5-0.2-7-0.3c-1.7,0-3.3,0-5,0c-0.6,0-1,0.4-1,1C418,152.8,418.5,153.2,419,153.2z"/>
		<path style="fill:#2B2B2B;" d="M358.1,61.8c0.2-0.5,0-1.1-0.5-1.3c-0.5-0.2-1.1,0-1.3,0.5c-0.6,1.3-1.2,2.8-1.8,4.3
			c-0.8,2.3-1.6,4.7-2.3,7.1c-0.2,0.5,0.1,1.1,0.6,1.3c0.5,0.2,1.1-0.1,1.3-0.6c0,0,0-0.1,0-0.1c0.7-2.4,1.5-4.7,2.3-7
			C356.9,64.4,357.5,63,358.1,61.8z"/>
		<path style="fill:#2B2B2B;" d="M375.5,45.9c-0.1-0.5-0.7-0.9-1.2-0.7c-4.1,0.9-7.9,2.9-11,5.7c-0.4,0.4-0.4,1,0,1.4
			c0.4,0.3,0.9,0.4,1.3,0.1c2.8-2.6,6.3-4.4,10.1-5.2C375.2,47,375.6,46.4,375.5,45.9C375.5,45.9,375.5,45.9,375.5,45.9z"/>
		<path style="fill:#2B2B2B;" d="M382.2,48.1c3.3,0.9,6.5,2.3,9.3,4.4c0.5,0.3,1.1,0.2,1.4-0.2c0.3-0.5,0.2-1.1-0.2-1.4l0,0
			c-3-2.2-6.4-3.8-10-4.7c-0.4-0.1-0.9-0.2-1.3-0.3c-0.6-0.1-1.1,0.3-1.2,0.8s0.3,1.1,0.8,1.2l0,0C381.5,47.9,381.8,48,382.2,48.1z"
			/>
		<path style="fill:#2B2B2B;" d="M374.4,149.8c2.5,2,5.4,3.5,8.5,4.3c0.5,0.1,1.1-0.2,1.2-0.7c0.1-0.5-0.2-1.1-0.7-1.2
			c-2.8-0.8-5.5-2.1-7.7-4l-2.2-1.8c-0.4-0.4-1.1-0.3-1.4,0.1s-0.3,1.1,0.1,1.4L374.4,149.8z"/>
		<path style="fill:#2B2B2B;" d="M523.7,143.9c-2.1-2.4-4.1-4.8-6.2-7.1c-0.4-0.4-1-0.4-1.4-0.1c-0.4,0.4-0.4,1-0.1,1.4
			c2.1,2.4,4.1,4.7,6.2,7.1l1.7,1.9c0.4,0.4,1,0.4,1.4,0c0.4-0.4,0.4-0.9,0.1-1.3C524.9,145.2,524.3,144.6,523.7,143.9z"/>
		<path style="fill:#2B2B2B;" d="M395,154.8L395,154.8c2.8-0.2,5.6-0.4,8.4-0.6l3.7-0.3c0.6,0,1-0.5,0.9-1.1c0-0.6-0.5-1-1.1-0.9
			l-3.7,0.3c-2.7,0.2-5.5,0.5-8.3,0.6c-0.6,0-1,0.5-1,1S394.4,154.9,395,154.8z"/>
		<path style="fill:#2B2B2B;" d="M493.3,110c-3.2-2.5-6.7-4.7-10.4-6.4c-0.5-0.2-1.1,0-1.3,0.5c-0.2,0.5,0,1.1,0.5,1.3
			c3.6,1.6,6.9,3.7,10,6.2c0.4,0.3,1.1,0.3,1.4-0.2C493.8,111,493.8,110.3,493.3,110z"/>
		<path style="fill:#2B2B2B;" d="M471.4,99.7c-1.4-0.3-2.8-0.6-4.2-0.8c-2.5-0.4-5.1-0.9-7.6-1.4c-0.6-0.1-1.1,0.2-1.2,0.8
			c-0.1,0.6,0.2,1.1,0.8,1.2c2.5,0.5,5.1,1,7.7,1.4c1.4,0.2,2.8,0.5,4.1,0.8h0.2c0.6,0.1,1-0.3,1.1-0.9
			C472.3,100.3,471.9,99.8,471.4,99.7L471.4,99.7z"/>
		<path style="fill:#2B2B2B;" d="M465,159.9c-0.2,0.5,0,1.1,0.5,1.3c3.5,1.8,6.8,3.9,9.8,6.4c0.4,0.4,1.1,0.3,1.4-0.1
			c0.4-0.4,0.3-1.1-0.1-1.4c-3.1-2.6-6.6-4.8-10.2-6.6C465.9,159.2,465.3,159.4,465,159.9C465,159.9,465,159.9,465,159.9z"/>
		<path style="fill:#2B2B2B;" d="M490.7,181.7c-1.7-1.8-3.4-3.7-4.9-5.7l-0.8-1.1c-0.3-0.4-1-0.5-1.4-0.2c-0.4,0.3-0.5,1-0.2,1.4
			l0.8,1.1c1.5,2.1,3.3,4,5,5.9l1.5,1.7l0.5,0.6c0.4,0.4,1,0.4,1.4,0.1c0.4-0.4,0.4-1,0.1-1.4l-0.5-0.5L490.7,181.7z"/>
		<path style="fill:#2B2B2B;" d="M442.8,154.6c3.9,0.5,7.8,1.3,11.6,2.4c0.5,0.1,1.1-0.2,1.2-0.7c0.1-0.5-0.2-1.1-0.7-1.2
			c-3.9-1.1-7.9-1.9-11.9-2.4c-0.5-0.1-1.1,0.3-1.1,0.9C441.8,154,442.2,154.6,442.8,154.6C442.8,154.6,442.8,154.6,442.8,154.6z"/>
		<path style="fill:#2B2B2B;" d="M502.1,190.3c-0.5-0.2-1.1,0-1.3,0.6c-0.2,0.5,0,1.1,0.6,1.3c0,0,0.1,0,0.1,0
			c1.9,0.6,3.9,0.9,5.8,0.9c2.2,0,4.4-0.4,6.6-1.1c0.5-0.2,0.8-0.7,0.7-1.3s-0.7-0.8-1.3-0.7C509.7,191.3,505.8,191.4,502.1,190.3z"
			/>
		<path style="fill:#2B2B2B;" d="M536.2,166.6c0,0.5,0.5,0.9,1,0.9h0.1c0.5-0.1,1-0.5,0.9-1.1c-0.5-3.6-1.8-7-3.9-9.9
			c-0.3-0.5-0.7-1-1-1.5c-0.3-0.4-1-0.5-1.4-0.2c-0.4,0.3-0.5,1-0.2,1.4c0.3,0.5,0.7,0.9,1,1.4C534.5,160.3,535.7,163.4,536.2,166.6
			z"/>
		<path style="fill:#2B2B2B;" d="M447.7,96.6c0.6,0.1,1.1-0.3,1.1-0.9c0.1-0.6-0.3-1.1-0.9-1.1c-2.9-0.8-5.8-1.8-8.6-2.8
			c-0.9-0.3-1.8-0.7-2.6-1.1c-0.5-0.2-1.1,0.1-1.3,0.6c-0.2,0.5,0,1,0.5,1.2c0.9,0.4,1.9,0.8,2.8,1.1c2.9,1,5.8,1.9,8.7,2.8
			C447.5,96.6,447.6,96.6,447.7,96.6z"/>
		<path style="fill:#2B2B2B;" d="M409.3,69.4c0.6,0,1-0.4,1-1c0-0.3-0.1-0.5-0.3-0.7l-0.7-0.7c-2.5-2.6-5-5.3-7.6-8
			c-0.4-0.4-1-0.4-1.4,0c-0.4,0.4-0.4,1,0,1.4c2.5,2.6,5.1,5.3,7.6,7.9l0.7,0.7C408.7,69.3,409,69.4,409.3,69.4z"/>
		<path style="fill:#2B2B2B;" d="M348.1,107.2L348.1,107.2c-0.6,0-1,0.4-1,1c0.1,4.1,0.7,8.2,2,12.1c0.1,0.4,0.5,0.7,1,0.7
			c0.1,0,0.2,0,0.3,0c0.5-0.2,0.8-0.7,0.6-1.3c-1.2-3.7-1.8-7.6-1.9-11.5C349.2,107.7,348.8,107.2,348.1,107.2
			C348.2,107.2,348.2,107.2,348.1,107.2z"/>
		<path style="fill:#2B2B2B;" d="M502,118.6c-0.4-0.4-1-0.5-1.4-0.1c-0.4,0.4-0.5,1-0.1,1.4l0,0c2.3,2.8,4.8,5.7,7.8,9.2
			c0.4,0.4,1,0.5,1.4,0.1c0.4-0.4,0.5-1,0.1-1.4C506.7,124.3,504.2,121.4,502,118.6z"/>
		<path style="fill:#2B2B2B;" d="M350.6,83.3c-0.5-0.1-1.1,0.3-1.2,0.8c-0.7,3.8-1.3,7.9-1.7,12c-0.1,0.5,0.4,1,0.9,1.1h0.1
			c0.5,0,0.9-0.4,1-0.9c0.4-4,0.9-8,1.6-11.8C351.5,84,351.2,83.5,350.6,83.3C350.6,83.4,350.6,83.4,350.6,83.3z"/>
		<path style="fill:#2B2B2B;" d="M389.4,106.5c0.3,0,0.6,0,0.8,0c1.1,0.1,2.3-0.3,3.1-1c1.1-1,1.7-2.4,1.7-3.9
			c0.4-6.1-3.1-10.6-9.3-12c-0.2,0-0.3,0-0.5,0c-0.2-0.1-0.4,0-0.6,0.1c-4.9,2.1-4,6.2-3.2,9.3c0.1,0.3,0.1,0.6,0.2,0.9
			C382.4,103.7,385.2,106.1,389.4,106.5z M383.3,98.5c-0.8-3.4-1.1-5.5,2-6.9l0,0c5.3,1.2,8.1,4.8,7.8,10c0,0.9-0.3,1.8-1,2.5
			c-0.7,0.5-1.6,0.7-2.5,0.5c-3.3-0.3-5.4-2.1-6.1-5.2C383.4,99.1,383.4,98.8,383.3,98.5L383.3,98.5z"/>
		<path style="fill:#2B2B2B;" d="M470,5.1c0.1,2.3-0.9,4.6-2.8,6c-1.9,1.2-4.3,1.4-6.4,0.6c-3.9-1.4-7.7-5.9-7.8-9.7
			c0-0.8-0.1-1.4-0.1-2h-2c0,0.7,0,1.4,0.1,2.1c0.2,4.6,4.4,9.8,9.2,11.4c1.1,0.4,2.3,0.6,3.5,0.6c1.7,0,3.3-0.5,4.7-1.4
			c2.4-1.8,3.7-4.6,3.6-7.6c0-1.7-0.1-3.4-0.5-5.1h-2C469.9,1.7,470.1,3.4,470,5.1z"/>
		<path style="fill:#2B2B2B;" d="M70.1,129.1c-0.1,0-0.2,0-0.4,0c-0.2-0.1-0.5,0-0.7,0.1c-4.2,1.9-7,4.6-8.1,7.7
			c-0.9,2.7-0.7,5.6,0.6,8.2c1,2.3,3,3.9,5.4,4.5c0.5,0.1,0.9,0.2,1.4,0.1c1.7,0,3.4-0.7,4.7-1.9c3.5-3,4.9-6.5,4.3-10.4
			C76.9,134.1,75.6,129.7,70.1,129.1z M71.8,146.3c-1.2,1.1-2.8,1.6-4.4,1.2c-1.8-0.4-3.3-1.7-4-3.4c-1.1-2-1.3-4.4-0.5-6.6
			c0.9-2.5,3.3-4.8,6.9-6.5h0.1c3.3,0.4,4.9,2.3,5.6,6.7C76,140.9,74.8,143.7,71.8,146.3z"/>
		<path style="fill:#2B2B2B;" d="M47.5,8.8c-0.9,7.8-5.2,14.7-11.4,18C23.8,33.3,12,36,0,34.9v2c1.7,0.1,3.3,0.2,5,0.2
			c10.6,0,21.3-2.9,32-8.5C43.8,25,48.5,17.5,49.5,9c0.3-3,0.2-6.1-0.5-9h-2.1C47.6,2.9,47.8,5.8,47.5,8.8z"/>
		<path style="fill:#2B2B2B;" d="M68.2,11.5c-1,9-2.5,19.5-6.2,29.7c-4.2,11.7-11.6,17.5-22.6,17.9c-3.2,0.1-6.3,0.2-9.5,0.4
			C23.1,59.7,16,60,9,60c-3.3,0-6.3-0.2-9-0.4v2C2.8,61.8,5.7,62,9,62h1.8c6.4,0,13-0.3,19.3-0.5c3.1-0.1,6.3-0.3,9.4-0.4
			c11.8-0.4,19.8-6.6,24.4-19.2c3.8-10.4,5.3-21.1,6.3-30.2c0.4-3.9,0.5-7.8,0.2-11.7h-2C68.8,3.8,68.7,7.7,68.2,11.5z"/>
		<path style="fill:#2B2B2B;" d="M301.5,269.3c0.9,0,1.8-0.1,2.7-0.3l0.8-0.1c3.3-0.6,6.7-1.3,9.5-3c8.3-5.3,16.7-11.2,25.1-17.5
			c2.1-1.6,4-3.3,3.6-5.1c-0.3-1.5-1.9-2.5-5.4-3.4c-4-1-8.1-1.6-12.2-2c-1.8-0.2-3.6-0.4-5.3-0.7c-0.3,0-0.6,0-0.8,0l-3.3,0.6
			c-2.4,0.5-4.8,0.9-7.2,1.4c-6,1.1-11.4,4.5-15.1,9.4c-3.2,4.1-4,9.6-2,14.4C293.3,266.9,297.2,269.4,301.5,269.3z M295.3,249.7
			c3.3-4.6,8.3-7.7,13.8-8.7c2.4-0.4,4.9-0.9,7.2-1.4l3.3-0.6h0.1h0.1c1.8,0.3,3.6,0.5,5.4,0.7c4,0.4,8,1,11.9,2
			c3.5,1,3.9,1.7,4,1.9s0,1-2.8,3.1c-8.3,6.3-16.7,12.1-25,17.4c-2.4,1.6-5.7,2.2-8.8,2.8l-0.8,0.1c-4.7,0.9-8.6-0.9-10.2-4.9
			C291.8,258,292.5,253.3,295.3,249.7L295.3,249.7z"/>
		<path style="fill:#2B2B2B;" d="M191.5,29.8c2.1,1.6,4.6,2.5,7.2,2.5c3.7,0,7.4-1.6,10.8-3.2c12.7-6.2,21.3-15.9,25.6-29h-2.1
			c-4.2,12.2-12.4,21.4-24.4,27.2c-5.3,2.6-10.9,4.8-15.9,1c-9.2-6.9-15.5-17-17.8-28.2h-2C175.2,11.9,181.8,22.5,191.5,29.8z"/>
		<path style="fill:#2B2B2B;" d="M88.2,0h-2c-0.1,2.7-0.2,5.3-0.4,8c-0.8,9.5-1.3,20.7,0.8,31.8c1.6,8.1,5,15.9,11,24.4
			c3.7,5.3,7.1,11,9.9,16.8c6.1,12.7,8.1,27,5.5,40.8c-0.8,4.9-1.6,9.9-2.3,14.7c-1.1,7.7-2.3,15.6-3.9,23.3
			c-2.5,11.7-9,20-19.3,24.9c-10.9,5.1-22.8,7.7-34.9,7.5h-0.2c-8,0-12.8-3.1-14.9-9.5c-3.1-9.6-6.7-20.5-8.3-31.3
			c-1.1-7.4-0.5-15.3,0-22.9c0.1-1.3,0.2-2.5,0.3-3.8c0.5-7.2,0.5-15.7-3-24.5c-4.6-11.3-14.2-16.1-23.7-20C1.9,79.8,1,79.5,0,79.1
			v2.2c0.7,0.3,1.4,0.5,2.1,0.8c9.1,3.7,18.3,8.2,22.6,18.9c3.4,8.4,3.4,16.6,2.9,23.6c-0.1,1.3-0.2,2.5-0.3,3.8
			c-0.6,7.7-1.1,15.7,0,23.4c1.6,11,5.2,22,8.4,31.7c2.3,7.2,8,10.9,16.8,10.9h0.2c12.3,0.1,24.5-2.5,35.7-7.7
			c10.9-5.1,17.7-13.9,20.4-26.3c1.7-7.7,2.8-15.7,3.9-23.4c0.7-4.8,1.4-9.8,2.3-14.6c2.6-14.3,0.6-29-5.7-42.1
			c-2.9-6-6.3-11.7-10.1-17.1c-5.8-8.3-9.2-15.8-10.7-23.7C86.5,28.5,87,17.5,87.7,8.1C87.9,5.4,88.1,2.7,88.2,0z"/>
		<path style="fill:#2B2B2B;" d="M119.1,412.7c5.1,2.8,10.8,4.4,16.7,4.6c6.2,0,12.2-2.2,16.8-6.3c3.9-3.3,7-7.9,9.4-11.9
			c2.1-3.5,4-7.2,5.8-10.9c1.1-2.2,2.2-4.5,3.4-6.7c5.8-10.7,15.2-16.8,30.6-19.5c6.5-1.1,12.9-2.6,19.2-4.6
			c9.9-3.2,15.6-14.6,16.1-23.7c1-21.8-11.7-29.7-24.8-35.9c-12.6-6-26.7-8.9-44.3-8.9c-7.4-0.2-14.7-0.9-22-2.1
			c-4.2-0.6-8.5-1.2-12.8-1.6c-3.3-0.2-6.6-0.3-9.8-0.1c-1.4,0-2.9,0.1-4.3,0.1h-0.2c-0.2,0-0.4,0-0.7,0
			c-19.3,4-35.2,15.7-48.6,35.9c-11.8,17.7-11.5,34.4,0.6,51C81.8,388.2,98.3,401.9,119.1,412.7z M72.8,323.3
			c12.8-19.2,27.8-30.4,46-34.2h0.2c1.5,0,3,0,4.4-0.1c3.1-0.1,6.3-0.1,9.4,0.1c4.2,0.4,8.5,1,12.6,1.6c7.5,1.2,15,1.9,22.6,2.1
			c17,0.1,30.6,2.8,42.6,8.5c12.4,5.9,23.4,12.8,22.5,32.1c-0.4,7.9-5.4,17.5-13.3,20.1c-6.1,1.9-12.4,3.4-18.7,4.5
			c-16.5,3-27.1,9.9-33.4,21.6c-1.2,2.2-2.4,4.5-3.4,6.8c-1.8,3.5-3.6,7.2-5.6,10.6c-2.3,3.8-5.1,8-8.6,10.9
			c-8,6.7-17.8,7.1-29.1,1.2c-20.3-10.6-36.3-23.8-47.7-39.4C62.1,354.4,61.9,339.6,72.8,323.3z"/>
		<path style="fill:#2B2B2B;" d="M502,1.6c0.2,2.6,0.6,5.2,1,7.7s0.8,4.9,0.9,7.3c1.1,15.9-4.3,23.7-17.6,25.4
			c-6.2,0.9-12.5,1.2-18.8,0.9c-5.4-0.3-10.6-1.4-15.6-3.4c-11.8-4.8-19.7-14.2-26.6-23.5c-3.6-4.9-6.5-10.3-8.6-16h-2.1
			c2.1,6.1,5.2,11.9,9.1,17.1c7,9.6,15.2,19.2,27.4,24.2c5.2,2,10.7,3.2,16.3,3.5c1.5,0.1,3,0.1,4.5,0.1c4.9,0,9.8-0.4,14.6-1
			c19-2.3,20.1-16.8,19.3-27.5c-0.2-2.5-0.6-5-0.9-7.4s-0.8-5-1-7.6c0-0.5,0-1-0.1-1.5h-2C502,0.6,502,1.1,502,1.6z"/>
		<path style="fill:#2B2B2B;" d="M98.9,368.8c4.6,4.1,10.4,6.6,16.5,7.2c0.4,0,0.8,0,1.2,0c4.9,0,9.4-2.4,12.1-6.4
			c8.2-12,14.2-21.4,19.5-30.5c2.6-4.4,3.4-7.8,2.6-10.8s-3.4-5.8-8.3-8.5s-10.1-2.8-14.6-2.6h-0.2c-0.2-0.1-0.4-0.1-0.6,0
			c-13.9,4.5-25.6,13.9-33,26.5C88.7,352.8,92.5,363.5,98.9,368.8z M95.9,344.6c7.1-12.1,18.5-21.2,31.9-25.6c0.1,0,0.2,0,0.3,0
			c4.2-0.2,9.1-0.1,13.5,2.3s6.7,4.8,7.4,7.3s-0.1,5.4-2.3,9.3c-5.3,9.1-11.3,18.5-19.5,30.4c-2.5,3.8-6.9,5.9-11.5,5.6
			c-5.7-0.5-11.1-2.9-15.4-6.7C95.6,363.4,90.4,353.9,95.9,344.6L95.9,344.6z"/>
		<path style="fill:#2B2B2B;" d="M1017.8,312.3V307c-3.6-3.1-6.7-6.8-9.1-11c-4.8-8.8-5.7-14.5,4-19.9c1.7-1,3.4-2.1,5.1-3.2v-5
			c-2.2,1.7-4.6,3.3-7,4.7c-13.2,7.4-10.5,16.5-5.5,25.4C1008.4,303.7,1012.8,308.2,1017.8,312.3z"/>
		<path style="fill:#2B2B2B;" d="M49.5,370.2c-6.7-7.1-12.1-16.3-15.9-27.3c-4.7-13.2-14.5-21.5-23.4-27.9
			c-3.5-2.4-6.9-5.1-10.2-7.9v5.2c2.5,2,5.2,4,7.8,5.9c8.9,6.3,17.7,13.8,22,26c4,11.5,9.7,21.2,16.8,28.7s14.6,15.4,22.6,22.6
			c10.9,9.8,21.1,18.3,31.1,26.1c11.8,9.1,23.6,13.5,36.2,13.5c0.7,0,1.3,0,2,0c17.2-0.6,31.1-7.4,41.5-20.2
			c2.6-3.2,5.4-6.4,8.4-9.9c6.9-7.8,16.1-12.4,28.2-14c7.8-0.9,15.4-2.6,22.9-5.1c13.7-4.9,22.3-15.8,26.3-33.3
			c0.2-0.9,0.4-1.8,0.6-2.7c0.7-2.9,1.4-5.9,1.9-9c2-13.6,10-22,25.1-26.4c15.4-4.5,27.5-10,38.1-17.2l1.1-0.7
			c6.8-4.6,13.8-9.4,21.2-13c6.5-3.2,13.5-6,20.1-8.7c4.3-1.8,8.8-3.6,13.2-5.5c16.7-7.3,28.1-16.1,35.9-27.7
			c1.5-2.2,2.9-4.3,4.4-6.5c4-5.9,8.1-12,12-18.1c1.8-2.8,2.9-6,3.3-9.3c0.7-5.5-1.5-11-5.9-14.5c-4.6-3.6-11-4.6-17.1-2.5
			c-3.4,1.1-6.7,2.6-9.9,4.1c-2.5,1.1-5.1,2.3-7.7,3.3c-8.9,3.4-18.5,4.4-30.1,3.2c-6.7-0.8-13.3-2-19.9-3.6
			c-6.1-1.5-12.3-2.6-18.6-3.5c-7-0.7-14-1-21-1c-4.3,0-8.7-0.1-13.1-0.3c-6.9-0.4-15.8-1.6-22.8-7.9c-5-4.5-8.1-10.5-10.2-19.5
			c-2.5-11.2-2.3-21.2,0.6-30.5c2.2-7,7.9-10.1,16-8.7c5.9,1.2,11.9,1.7,17.9,1.5c9.4-0.4,16.4-5.8,21.3-16.5
			c5.1-11.4,8.4-23.6,9.8-36.1c0.2-1.5,0.4-2.9,0.5-4.4c1-9,2-17.5,6.5-25.5c4.6-8.3,11.1-15.5,19-20.7c8-5.3,16.4-5.2,24.7,0.1
			c5.4,3.4,10.5,7.4,15.2,11.8c5.2,4.8,10.3,10,15.2,15c3.4,3.4,6.9,7,10.4,10.4c10.1,9.9,22.3,15.2,37.2,16.2
			c10.7,0.8,21.2,2.2,31.7,4.5c11.2,2.4,20.3,9.2,27.2,20.5c5.8,9.4,12.9,20,24.1,27.1c1.8,1.3,33.2,23.4,66,4.1
			c11.6-6,16.2-15.5,13.9-29C622,95.1,613.5,87,601.4,84.1c-21-7-25.8-16.9-39-81C562.2,2.1,562,1,561.8,0h-4c0.2,1.3,0.5,2.6,0.7,4
			c12.8,62,17.8,76,41.7,84h0.2c10.5,2.5,17.9,9.3,19.3,17.9c2,11.8-1.8,19.7-11.8,24.8l-0.1,0.1c-31.2,18.5-61.3-3.6-61.6-3.8
			l-0.1-0.1c-10.5-6.6-17.3-16.8-22.9-25.8c-7.5-12.2-17.5-19.7-29.8-22.3c-10.6-2.3-21.4-3.8-32.2-4.5c-13.9-1-25.3-5.9-34.7-15.1
			c-3.5-3.4-7-6.9-10.3-10.3c-4.9-5-10.1-10.2-15.3-15.1c-4.9-4.5-10.2-8.6-15.8-12.2c-9.7-6.1-19.7-6.2-29.1,0
			c-8.5,5.6-15.4,13.2-20.3,22.1c-4.9,8.6-5.9,18-6.9,27c-0.2,1.5-0.3,2.9-0.5,4.4c-1.4,12.1-4.5,23.8-9.5,34.9
			c-4.2,9.3-9.9,13.8-17.8,14.2c-5.7,0.1-11.4-0.3-17-1.4c-10.1-1.8-17.6,2.4-20.5,11.4c-3.2,10-3.4,20.7-0.7,32.6
			c1.5,6.7,4.2,15.2,11.4,21.6c8,7.1,17.7,8.5,25.3,8.9c4.4,0.2,8.9,0.3,13.2,0.3c6.9-0.1,13.8,0.3,20.6,0.9
			c6.1,0.8,12.2,2,18.2,3.4c6.7,1.6,13.5,2.9,20.4,3.7c12.3,1.2,22.4,0.1,31.9-3.5c2.7-1,5.4-2.2,8-3.4c3.1-1.4,6.3-2.9,9.5-3.9
			c4.8-1.6,9.8-1,13.4,1.8c3.3,2.7,4.9,6.8,4.4,11c-0.3,2.7-1.2,5.3-2.7,7.6c-3.9,6.1-8,12.1-12,18c-1.5,2.2-2.9,4.3-4.4,6.5
			c-7.4,10.9-18.2,19.3-34.2,26.2c-4.3,1.9-8.8,3.7-13.1,5.4c-6.8,2.7-13.7,5.5-20.4,8.8c-7.6,3.7-14.8,8.6-21.7,13.3l-1.1,0.7
			c-10.3,7-22,12.3-37,16.7c-16.5,4.8-25.7,14.5-28,29.6c-0.4,2.9-1.1,5.8-1.8,8.6c-0.2,0.9-0.4,1.8-0.6,2.7
			c-3.7,16.3-11.3,25.9-23.8,30.4c-7.1,2.4-14.5,4-22,4.8c-13.1,1.8-23.2,6.8-30.7,15.3c-3.1,3.5-5.9,6.8-8.6,10.1
			c-9.6,11.8-22.6,18.1-38.5,18.7c-12.4,0.5-24-3.7-35.6-12.7c-10-7.7-20.1-16.2-30.9-25.9C64,385.4,56.5,377.6,49.5,370.2z"/>
		<path style="fill:#2B2B2B;" d="M107.2,31.9l0.7,1.5c1.7,3.9,3.5,7.9,6.1,11.3c14.1,18.3,19.7,40.2,23.2,59.2
			c2.5,13.3,1,26.3-0.8,37.3c-2.2,13.6-1.8,25.5,1.1,36.3c4.1,15.3,12.4,19.3,26.1,21.4c5.3,0.8,10.8,1.4,16.1,1.9
			c7.9,0.8,16,1.7,23.8,3.3c17.7,3.7,28.8,14.2,32.9,31.3c3.1,12.6,1.2,22-6,29.6c-2.3,2.7-5.8,4.1-9.4,3.8
			c-6.1-0.5-12.3-1.1-18.3-1.7l-7.1-0.7c-0.5,0-1-0.1-1.5-0.2c-1-0.2-2.1-0.3-3.2-0.3c-4.2,0-8.5,0-12.7,0c-6.2,0-12.5,0-18.8,0
			c-18.1-0.2-31.6-7.3-40.1-21.2c-8.2-13.3-20-17.1-35.2-18.8l-1-0.1c-3.3-0.4-6.8-0.8-10.2-0.9c-13.4-0.5-26.3,3.8-38.2,13
			c-5,3.8-9.8,8.1-14.3,12.2c-3,2.7-6.2,5.5-9.3,8.2c-1.2,1-2.5,2.1-3.7,3.2c-2.4,2-4.8,4.2-7.4,6.1v5c3.5-2.5,6.8-5.4,10.1-8.1
			c1.2-1,2.4-2.1,3.7-3.1c3.2-2.7,6.4-5.5,9.4-8.3c4.5-4.1,9.2-8.3,14.1-12c10.5-8.1,21.8-12.2,33.6-12.2c0.7,0,1.3,0,2,0
			c3.3,0.1,6.7,0.5,9.9,0.9l1,0.1c19.5,2.1,27,8.3,32.2,16.9c9.1,14.9,24.2,22.9,43.5,23.1c6.3,0.1,12.7,0.1,18.9,0
			c4.2,0,8.4,0,12.7,0c0.9,0,1.8,0.1,2.6,0.2c0.6,0.1,1.1,0.2,1.7,0.2l7.1,0.7c6,0.6,12.3,1.2,18.4,1.7c4.8,0.4,9.4-1.5,12.6-5.1
			c8-8.6,10.3-19.5,6.9-33.3c-4.5-18.5-17-30.3-36-34.3c-8-1.7-16.2-2.5-24.2-3.4c-5.2-0.6-10.6-1.1-15.9-1.9
			c-14.3-2.1-19.6-6.5-22.9-18.5c-2.8-10.3-3.1-21.6-1-34.7c1.8-11.3,3.3-24.8,0.7-38.7c-3.6-19.4-9.3-41.9-24-60.9
			c-2.3-3-4-6.8-5.6-10.5l-0.7-1.5c-4.2-9.5-3.4-19.5-1.9-28.9c0.1-0.5,0.2-0.9,0.2-1.4h-4.1c0,0.3-0.1,0.5-0.1,0.8
			C103.4,10.8,102.6,21.5,107.2,31.9z"/>
		<path style="fill:#2B2B2B;" d="M974,362.8c-4.1-3.4-9.2-5.5-16-6.7c-0.1,0-0.3,0-0.4,0c-0.1,0-0.3,0-0.4,0
			c-8.8,1.3-14.8,5.4-18.3,12.5s-3.2,14,0.7,19.9c2.6,4,6.6,6,12.1,6c2.1,0,4.2-0.3,6.3-0.7c9.2-2,15.5-6.1,19.3-12.7
			C981.3,374.1,980.1,367.8,974,362.8z M975.5,380.1c-3.5,6.1-9.3,9.9-18,11.7c-8,1.7-13.2,0.3-16.3-4.4c-3.5-5.4-3.7-11.4-0.5-18
			s8.6-10.2,16.8-11.4h0.1h0.1c6.4,1.1,11.2,3.1,15.1,6.3C978.2,368.8,979.1,373.9,975.5,380.1L975.5,380.1z"/>
		<path style="fill:#2B2B2B;" d="M1000.9,490.3c5.4,3.1,11.1,5.9,16.9,8.2v-2.2c-5.4-2.2-10.7-4.8-15.8-7.7
			c-7.8-4.7-12.6-10.5-14.7-17.8c-0.7-2.2-0.4-4.6,0.7-6.6c0.8-1.4,2.1-2.4,3.7-2.7c0.9-0.2,1.7-0.5,2.5-0.8c0.7-0.2,1.3-0.5,2-0.7
			c1.9-0.5,3.8-0.9,5.7-1.3c5.2-1.2,10.6-2.4,15.6-5.1l0.4-0.2v-2.3c-0.4,0.3-0.9,0.5-1.3,0.8c-4.8,2.6-9.8,3.7-15.1,4.9
			c-1.9,0.4-3.8,0.9-5.7,1.4c-0.8,0.2-1.5,0.5-2.2,0.7c-0.8,0.3-1.5,0.5-2.3,0.7c-2.1,0.5-3.9,1.8-4.9,3.6c-1.4,2.5-1.7,5.4-0.8,8.1
			C987.6,479.2,992.7,485.4,1000.9,490.3z"/>
		<path style="fill:#2B2B2B;" d="M713.3,10.1c0.5,0,1.1,0,1.6,0c6.7,0,13.2-1.5,19.5-2.9c2.6-0.6,5.4-1.2,8-1.7l4.4-0.8
			c6-1.1,12.2-2.2,18.2-3.8c1-0.3,2-0.6,2.9-0.9h-7.4c-4.6,1.1-9.4,2-14,2.8l-4.4,0.8c-2.7,0.5-5.5,1.1-8.1,1.7
			c-6.7,1.5-13.6,3.1-20.7,2.8c-4.9,0-9.6-2.5-12.3-6.6c-0.4-0.6-0.8-1-1.1-1.6h-2.3c0.5,1,1.1,1.9,1.8,2.8
			C703.1,7.7,707.4,9.9,713.3,10.1z"/>
		<path style="fill:#2B2B2B;" d="M696.4,536.8c1.6-7.8-0.8-14.9-7-20.8c-9.6-9.1-20.9-13.8-33.5-13.9c-0.1,0-0.2,0-0.3,0
			c-0.1,0-0.3,0-0.4,0c-12.5,2.1-23.4,8.4-33.5,19.4c-9.9,10.7-14.2,20.8-13.7,31.7c0.7,14.4,9.4,23.1,23.8,23.9
			c2.5,0.1,5.1,0.2,7.8,0.2c8,0.2,16-1.1,23.6-3.7C681.8,566.7,692.7,554.6,696.4,536.8z M631.9,575c-13.3-0.7-21.3-8.8-22-22
			c-0.5-10.3,3.7-19.9,13.2-30.2c9.8-10.6,20.4-16.7,32.4-18.8h0.1h0.2c12.1,0.1,22.9,4.6,32.2,13.4c3.9,3.7,8.2,10,6.4,18.9
			c-3.5,17.1-14,28.6-31.9,35.3C652,575.5,641.2,575.5,631.9,575z"/>
		<path style="fill:#2B2B2B;" d="M916.5,120.3c0,0.9-0.1,1.8-0.1,2.7c-0.1,3.1-0.3,6.2-0.4,9.3c0,0.8,0.6,1.5,1.4,1.5c0,0,0,0,0,0h0
			c0.8,0,1.5-0.6,1.5-1.4c0.1-3.1,0.2-6.2,0.4-9.3c0-0.9,0.1-1.8,0.1-2.7c0-0.8-0.6-1.5-1.4-1.6
			C917.3,118.9,916.6,119.5,916.5,120.3z"/>
		<path style="fill:#2B2B2B;" d="M982.2,219.4c-2.5,2.7-5.2,5.6-8.2,8.7c-0.6,0.6-0.6,1.5,0,2.1c0.6,0.6,1.5,0.6,2.1,0
			c0,0,0,0,0.1-0.1c3.1-3.1,5.8-6,8.3-8.8c0.5-0.7,0.4-1.6-0.3-2.1C983.6,218.8,982.8,218.9,982.2,219.4L982.2,219.4z"/>
		<path style="fill:#2B2B2B;" d="M919,110c0.8,0,1.4-0.6,1.5-1.3c0.3-3.8,1.3-7.6,2.8-11.1c0.3-0.8,0-1.6-0.8-2
			c-0.7-0.3-1.6,0-1.9,0.7c-1.7,3.8-2.7,7.9-3.1,12c-0.1,0.8,0.5,1.6,1.3,1.7L919,110z"/>
		<path style="fill:#2B2B2B;" d="M965.5,236.1c-3,2.3-6.5,3.8-10.3,4.5c-0.8,0.1-1.4,0.8-1.4,1.6s0.8,1.4,1.6,1.4h0.2
			c4.2-0.7,8.1-2.5,11.5-5c0.7-0.5,0.8-1.4,0.3-2.1C967.1,235.8,966.2,235.6,965.5,236.1L965.5,236.1z"/>
		<path style="fill:#2B2B2B;" d="M915.2,156.3c0,0.8,0.6,1.5,1.4,1.6h0.1c0.8,0,1.5-0.6,1.5-1.4c0.2-4,0.3-8,0.5-12
			c0-0.8-0.6-1.5-1.5-1.6s-1.5,0.6-1.5,1.4l0,0C915.5,148.3,915.3,152.3,915.2,156.3z"/>
		<path style="fill:#2B2B2B;" d="M917.1,205.7h0.3c0.8-0.2,1.4-0.9,1.2-1.7c0,0,0,0,0,0c-0.7-3.9-1.2-7.8-1.5-11.7
			c-0.1-0.8-0.8-1.5-1.6-1.4c-0.8,0.1-1.5,0.8-1.4,1.6c0.3,4,0.8,8.1,1.5,12.1C915.8,205.2,916.4,205.7,917.1,205.7z"/>
		<path style="fill:#2B2B2B;" d="M914.5,168.3c-0.1,1.2-0.2,2.5-0.3,3.7c-0.2,2.9-0.3,5.7-0.4,8.4c0,0.8,0.6,1.5,1.5,1.5
			c0,0,0,0,0,0l0,0c0.8,0,1.5-0.7,1.5-1.5c0.1-2.6,0.2-5.4,0.4-8.2c0.1-1.2,0.2-2.5,0.3-3.7c0.1-0.8-0.6-1.5-1.4-1.6
			C915.3,166.9,914.6,167.5,914.5,168.3z"/>
		<path style="fill:#2B2B2B;" d="M933.9,234.4c-0.7-0.5-1.6-0.4-2.1,0.3c-0.5,0.7-0.4,1.6,0.3,2.1c3.3,2.5,7.1,4.4,11.1,5.6
			c0.8,0.2,1.6-0.2,1.9-1s-0.2-1.6-1-1.9C940.4,238.5,937,236.7,933.9,234.4z"/>
		<path style="fill:#2B2B2B;" d="M991.4,103.6c0.7,0.4,1.6,0.2,2.1-0.5c0.4-0.7,0.2-1.6-0.5-2.1c-3.2-2-6.8-4.1-10.3-6.2
			c-0.7-0.4-1.6-0.2-2,0.6s-0.2,1.6,0.6,2C984.7,99.4,988.2,101.6,991.4,103.6z"/>
		<path style="fill:#2B2B2B;" d="M990.2,212.4c0.6,0.5,1.6,0.4,2.1-0.2c0,0,0,0,0,0c2.6-3.3,5.1-6.5,7.2-9.7
			c0.4-0.7,0.2-1.6-0.5-2.1c-0.7-0.4-1.5-0.3-2,0.4c-2.1,3.1-4.5,6.3-7.1,9.5C989.5,211,989.6,211.9,990.2,212.4
			C990.2,212.4,990.2,212.4,990.2,212.4z"/>
		<path style="fill:#2B2B2B;" d="M940.8,84.6c1.1,0.1,2.1,0.1,3.2,0.1c1.4,0,2.9,0,4.3,0.2c0.8,0.1,1.6-0.5,1.6-1.4
			s-0.5-1.6-1.4-1.6c-1.5-0.1-3.1-0.2-4.5-0.2c-1,0-2.1,0-3.1-0.1c-0.1,0-0.2,0-0.3,0c-0.2,0-0.4,0-0.5,0c-4.2,0.8-8.1,2.4-11.6,4.8
			c-0.7,0.5-0.8,1.4-0.3,2.1c0.5,0.7,1.4,0.8,2.1,0.3c3.1-2.2,6.6-3.6,10.4-4.3L940.8,84.6z"/>
		<path style="fill:#2B2B2B;" d="M1007.4,132.4c0.3,3.4,0.5,7.2,0.7,11.9c0,0.8,0.7,1.4,1.5,1.4h0.1c0.8,0,1.5-0.7,1.4-1.6
			c0,0,0,0,0,0c-0.2-4.7-0.4-8.6-0.8-12.1c-0.1-0.8-0.8-1.4-1.6-1.4C1007.9,130.9,1007.3,131.6,1007.4,132.4L1007.4,132.4
			L1007.4,132.4z"/>
		<path style="fill:#2B2B2B;" d="M1004,192.8c0.7,0.4,1.6,0.1,2-0.6c1.9-3.7,3.3-7.6,4.2-11.6c0.2-0.8-0.3-1.6-1.1-1.8
			c-0.8-0.2-1.6,0.3-1.8,1.1c0,0,0,0.1,0,0.1c-0.8,3.8-2.1,7.5-3.9,10.9C1003,191.5,1003.2,192.4,1004,192.8
			C1004,192.8,1004,192.8,1004,192.8z"/>
		<path style="fill:#2B2B2B;" d="M970.6,91.9c0.7,0.4,1.6,0.1,2-0.6c0.4-0.7,0.1-1.6-0.6-2c0,0-0.1,0-0.1-0.1
			c-3.7-1.7-7.4-3.3-11.3-4.5c-0.8-0.3-1.6,0.1-1.9,0.9s0.1,1.6,0.9,1.9c0,0,0.1,0,0.1,0C963.4,88.7,967.1,90.2,970.6,91.9z"/>
		<path style="fill:#2B2B2B;" d="M1011.4,168.3c0.1-2.9,0.1-5.9,0.1-8.8c0-1.1,0-2.2,0-3.2c0-0.8-0.7-1.5-1.5-1.5l0,0
			c-0.8,0-1.5,0.7-1.5,1.5c0,0,0,0,0,0c0,1.1,0,2.1,0,3.2c0,2.9,0,5.8-0.1,8.7c0,0.8,0.6,1.5,1.5,1.5c0,0,0,0,0,0l0,0
			C1010.7,169.8,1011.4,169.1,1011.4,168.3z"/>
		<path style="fill:#2B2B2B;" d="M919.6,219.1c1.1,3,2.4,5.9,4.1,8.5c0.4,0.7,1.3,0.9,2.1,0.5c0.7-0.4,0.9-1.3,0.5-2.1
			c0,0,0,0,0-0.1c-1.6-2.5-2.9-5.2-3.8-7.9c-0.3-0.9-0.6-1.8-0.9-2.6c-0.3-0.8-1.1-1.2-1.9-1c-0.8,0.3-1.2,1.1-1,1.9l0,0
			C918.9,217.2,919.2,218.2,919.6,219.1z"/>
		<path style="fill:#2B2B2B;" d="M1005.5,120.9c0.3,0.8,1.1,1.2,1.9,1c0.8-0.3,1.2-1.1,1-1.9l0,0c-1.3-4-3.3-7.7-5.9-11
			c-0.5-0.7-1.4-0.8-2.1-0.3c-0.7,0.5-0.8,1.4-0.3,2.1c0,0,0,0,0.1,0.1C1002.5,113.9,1004.4,117.3,1005.5,120.9z"/>
		<path style="fill:#2B2B2B;" d="M888.8,211.1c-1.8,3.2-3.5,6.4-5.3,9.6l-2.7,4.9c-6.7,12.1-4.9,21.4,6.1,32
			c7.9,7.7,17.7,10.5,28.8,13.3l6.5,1.6c9.5,2.4,19.4,4.9,29.3,6.2c4.7,0.6,9.4,0.9,14.2,0.9c5,0,10-0.3,15-0.9
			c10.4-1.3,12-7.1,13.1-15.3c0.2-1.7,0.4-3.4,0.6-5c0.3-2.5,0.5-4.9,1-7.3c1.9-9.9,6.6-19.2,15.3-30.2c2.5-3.1,4.9-6.2,7.1-9.3v-11
			c-3.5,5.8-7.5,11.3-11.8,16.6c-6.3,8-13.9,18.9-16.5,32.8c-0.5,2.6-0.8,5.2-1,7.8c-0.2,1.6-0.3,3.2-0.5,4.8
			c-1.1,8-2.2,9.5-7.9,10.2c-9.2,1.2-18.5,1.2-27.7,0c-9.6-1.3-19.3-3.8-28.7-6.1l-6.5-1.6c-10.3-2.5-19.3-5.1-26.1-11.7
			c-9-8.8-10.3-15.2-5-24.8l2.7-4.9c1.8-3.2,3.5-6.4,5.3-9.6c8.1-14.5,9.6-30.2,10.7-47.8c0.5-9,0-18.1-0.6-26.9
			c-0.1-1.5-0.2-2.9-0.3-4.4c-0.3-5.3-1-10.6-1.7-15.7c-0.3-2-0.5-4-0.8-6c-0.4-3.2-0.8-6.5-1.2-9.7c-0.8-6.1-1.6-12.5-2.2-18.7
			c-0.8-8.5,4.6-12.7,9.2-14.8c3.7-1.5,7.6-2.7,11.5-3.6c1.7-0.4,3.4-0.8,5.1-1.3c1.8,0.2,3.6,0.3,5.4,0.4c3.9,0.1,7.8,0.5,11.6,1.2
			c11.5,2.3,21.8,7.4,31.2,12.6c5.1,2.8,10.3,5.5,15.4,8c6.9,3.5,14.1,7.2,20.9,11.1c3.7,2.1,7,5,9.5,8.4v-8.9
			c-2-1.8-4.2-3.3-6.5-4.7c-6.9-4.1-14.2-7.7-21.2-11.3c-5-2.6-10.2-5.2-15.3-8c-9.4-5.1-20.6-10.7-32.9-13.1
			c-4.1-0.7-8.3-1.2-12.4-1.3c-1.8-0.1-3.6-0.2-5.4-0.4c-0.2,0-0.3,0-0.5,0c-0.4,0-0.7,0-1.1,0.1c-1.8,0.5-3.6,1-5.3,1.4
			c-4.3,0.9-8.4,2.2-12.5,3.9c-9.2,4.1-13.8,11.6-12.8,20.9c0.6,6.3,1.5,12.7,2.2,18.9c0.4,3.2,0.8,6.4,1.2,9.7c0.2,2,0.5,4,0.8,6
			c0.7,5,1.3,10.2,1.7,15.3c0.1,1.5,0.2,3,0.3,4.4c0.6,8.6,1.1,17.6,0.6,26.2C897.7,182.7,896.2,197.7,888.8,211.1z"/>
		<path style="fill:#2B2B2B;" d="M989.8,134c-2.3-15.9-16.6-24.3-29.2-26.9c-0.8-0.2-1.5-0.4-2.3-0.6l-1.1-0.3c-0.2,0-0.3,0-0.5,0
			c-0.1,0-0.2,0-0.3,0c-13.1,1.3-17.1,11-19.4,21.3c-3.5,15.3-7.4,32.6-6.9,50.2c0.3,10.5,2.8,18.9,7.7,25.5
			c4.3,5.9,9.2,9.2,14.5,10c0.8,0.1,1.5,0.2,2.3,0.2c4.8,0,9.8-2,15-6.1c15.1-11.8,22.9-28.1,22.4-47.2
			C991.7,151.4,991,142.7,989.8,134z M968.1,205.7c-5.6,4.3-10.9,6.2-15.8,5.5s-9.2-3.8-13.1-9.2c-4.6-6.3-7-14.3-7.3-24.4
			c-0.5-17.4,3.4-34.6,6.9-49.8c2.5-11,6.5-18.6,17.7-19.7h0.2l1.1,0.3c0.8,0.3,1.6,0.5,2.5,0.7c11.9,2.4,25.4,10.3,27.6,25.2
			c1.2,8.6,1.9,17.2,2,25.9C990.2,178.8,983,194.1,968.1,205.7L968.1,205.7z"/>
		<path style="fill:#2B2B2B;" d="M826.8,200.5c11.8-5.8,20.4-13.2,26.4-22.9c7.1-11.4,6.3-21.5-2.7-32.6c-7.4-9.1-17.8-14.9-32-17.9
			c-3.1-0.6-6.2-0.8-9.4-0.9c-1.4-0.1-2.8-0.1-4.2-0.2c-0.1,0-0.2,0-0.3,0c-0.1,0-0.3,0-0.4,0c-10.3,1.8-17.1,8.3-19.6,18.8
			c-1.6,6.6-2.9,14.5-0.8,22.5c0.6,2.5,0.9,5.1,1,7.7c0.1,2.2,0.3,4.5,0.7,6.7c1.8,9.4,6.6,16.3,13.8,19.8c3.7,1.8,7.8,2.7,12,2.7
			C816.6,204.2,822,202.9,826.8,200.5z M800.1,199.8c-6.6-3.3-11-9.7-12.7-18.4c-0.4-2.1-0.6-4.3-0.7-6.4c-0.1-2.7-0.4-5.4-1-8.1
			c-2-7.6-0.7-15.1,0.8-21.5c2.3-9.7,8.5-15.7,18-17.3h0.1h0.2c1.4,0.1,2.9,0.2,4.3,0.2c3,0,6.1,0.3,9.1,0.9
			c13.7,2.8,23.7,8.4,30.8,17.2c8.5,10.4,9.2,19.5,2.5,30.2c-5.8,9.3-14.2,16.6-25.6,22.1C817.1,203,807.5,203.4,800.1,199.8
			L800.1,199.8z"/>
		<path style="fill:#2B2B2B;" d="M1011.2,35.9c2.2,0.4,4.4,0.8,6.6,0.9v-2c-2.1-0.2-4.2-0.5-6.2-0.9c-8.5-1.7-14.4-5.8-16.7-11.4
			c-2.2-5.5-0.9-12.2,3.8-18.9c0.9-1.3,1.8-2.5,2.7-3.6h-2.5c-0.6,0.8-1.2,1.6-1.8,2.5c-5,7.3-6.4,14.7-4,20.8
			C995.6,29.6,1002,34.1,1011.2,35.9z"/>
		<path style="fill:#2B2B2B;" d="M1008.2,59.9c3.2,0.8,6.4,1.3,9.7,1.6v-2c-3.1-0.3-6.1-0.8-9.2-1.5c-19.2-4.9-32.9-13.7-42-27
			c-4.5-6.6-5.3-13.7-2.3-20.5c1.6-3.6,3.5-7.1,5.5-10.5h-2.3c-1.9,3.1-3.5,6.4-5,9.7c-3.3,7.3-2.4,15.3,2.5,22.4
			C974.4,45.8,988.5,54.9,1008.2,59.9z"/>
		<path style="fill:#2B2B2B;" d="M921.9,4.3c-0.7,0.7-1.4,1.4-2.2,2c-3.2,2.5-4.9,5.5-5,8.9c-0.2,3.7,1.6,7.4,5,10.6
			c4.6,4.2,9.4,8.1,14.6,11.6c21.4,14.6,39.6,25.2,57.2,33.5c5.6,2.6,11.5,4.8,17.2,6.9c3,1.1,6.1,2.2,9.1,3.4v-2.2
			c-2.8-1.1-5.6-2.2-8.4-3.2c-5.7-2.1-11.5-4.2-17-6.8c-17.5-8.2-35.6-18.9-56.9-33.4c-5.1-3.5-9.9-7.3-14.4-11.4
			c-3-2.7-4.5-5.9-4.4-9c0.1-2.8,1.6-5.3,4.3-7.4c0.8-0.7,1.6-1.4,2.3-2.1c0.8-0.8,1.7-1.6,2.7-2.3c1.6-1.1,3.2-2.3,4.7-3.4h-3.4
			c-0.8,0.6-1.7,1.2-2.5,1.8C923.8,2.6,922.8,3.4,921.9,4.3z"/>
		<path style="fill:#2B2B2B;" d="M1013.1,373.3c-4.5-14.2-14.5-25.3-29.8-33.1l-0.9-0.5c-7.7-4.1-15.6-7.7-23.7-10.9
			c-3.7-1.2-7.6-1.9-11.5-2.1c-1.7-0.2-3.5-0.4-5.1-0.6c-0.3,0-0.6,0-0.9,0c-19.7,4.2-31.7,17.4-36.6,40.3
			c-2.6,11.9-0.2,23.9,6.9,35.7c7.2,12,15.7,20.6,26,26.2c6.1,3.3,13.1,6.5,20.8,6.5c2.3,0,4.6-0.3,6.9-0.9c3.6-1,7-2.7,9.8-5.2
			c9.6-8.7,17.7-15.7,27.4-21.2C1019.4,397.8,1017.7,387.7,1013.1,373.3z M973.6,427.2c-2.6,2.2-5.7,3.9-9,4.8
			c-9.5,2.6-18.2-1.1-26.2-5.4c-10-5.5-18.2-13.8-25.3-25.5c-6.9-11.4-9.1-22.9-6.7-34.3c4.8-22.1,16.2-34.8,35.1-38.8l0,0h0.1
			c1.7,0.3,3.5,0.4,5.2,0.6c3.7,0.2,7.4,0.9,11,2c8,3.2,15.9,6.8,23.5,10.8l0.9,0.5c14.8,7.5,24.5,18.3,28.8,31.9
			c4.8,15.1,5.4,23.1-9.8,31.8C991.5,411.4,983.3,418.5,973.6,427.2L973.6,427.2z"/>
		<path style="fill:#2B2B2B;" d="M648.8,18.5c0,4.8-2.9,8.9-8.4,11.8c-7.9,4.1-15.5,4.4-20.5,0.6s-6.7-10.7-4.9-19.2
			c0.2-0.9,1.7-7.8,5.9-11.7h-2.8c-3.5,4.2-4.8,9.9-5.1,11.3l0,0c-1.9,9.3,0.1,17.1,5.7,21.2c2.9,2.1,6.3,3.1,9.8,3.1
			c4.5-0.1,8.9-1.3,12.8-3.5c7.9-4.1,9.5-9.7,9.5-13.6C650.7,12.1,646.1,5,639.1,0h-3.7C643.3,4.6,648.7,12,648.8,18.5z"/>
		<path style="fill:#2B2B2B;" d="M652.9,329c-15.7-4.4-20.4-14.5-25.9-26.2c-2.6-5.6-5.3-11.4-9.5-17.1c-6-8.3-16.3-11.7-30.6-10.1
			c-12.7,1.4-25.4,6.5-31.8,9.4c-16.7,7.5-5.5,37.6,0.5,53.8c0.4,1,0.8,2,1.1,2.9l0,0c9.3,25.6,22.9,42.6,40.2,50.5
			c8,3.5,16.7,5.3,25.4,5.2c18.4,0,36.1-6.9,48.2-11.6c3.9-1.5,7.3-2.8,9.9-3.6c6.4-1.9,9.9-6.4,9.8-12.7
			C690.3,355,671,334.1,652.9,329z M679.4,378.5c-2.8,0.8-6.2,2.2-10.2,3.7c-17.1,6.6-45.6,17.7-70.5,6.4
			c-16.4-7.4-29.2-23.6-38.1-48.2c-0.3-0.9-0.7-1.9-1.1-3c-5.2-13.9-15.9-42.8-2.6-48.8c10.3-4.6,44.8-18.3,57.6-0.6
			c3.9,5.4,6.5,11,9.1,16.4c5.6,12,11,23.4,28.4,28.3c17.7,5,34.5,25,34.5,36.9C686.5,374.2,684.2,377.1,679.4,378.5L679.4,378.5z"
			/>
		<path style="fill:#2B2B2B;" d="M595.5,328.4c-8-0.7-14,0.7-17.7,4.3c-2.4,2.2-3.7,5.3-3.7,8.5c1.2,28,18.1,30.8,29.2,32.6
			c1.8,0.3,3.5,0.6,5,0.9c1.2,0.3,2.3,0.4,3.5,0.4c2.9,0.1,5.8-1,7.9-3c5.3-4.9,6-14.3,4.9-21.5
			C623.4,341.6,617.2,330.4,595.5,328.4z M616.4,368.6c-1.7,1.6-4,2.1-6.9,1.4c-1.7-0.4-3.4-0.7-5.3-1c-11.2-1.9-24-4-25.1-27.9l0,0
			c0-1.8,0.8-3.5,2.1-4.7c2.1-2,5.7-3.1,10.5-3.1c1.1,0,2.2,0.1,3.3,0.2c14.8,1.3,23.1,7.4,24.7,18.1
			C620.9,358.8,619.5,365.7,616.4,368.6L616.4,368.6z"/>
		<path style="fill:#2B2B2B;" d="M562.5,506.1c4.6,0,9.1-4.1,11.2-6.3c10.2-10.8,14.3-18.1,13.2-23.8c-0.7-3.9-3.9-7-9.8-9.8
			c-10.9-5.1-13.8-0.2-16.7,5.1c-0.8,1.5-1.7,2.9-2.7,4.2c-5.8,7.8-7.1,22.9-0.1,28.7C558.9,505.4,560.7,506.1,562.5,506.1z
			 M559.3,476.7c1-1.4,2-2.9,2.8-4.4c2-3.5,3.5-6.2,7.3-6.2c2.4,0.2,4.8,0.9,6.9,2c5.3,2.5,8.1,5.1,8.7,8.3
			c0.9,4.9-3.1,11.9-12.6,22.1c-5.3,5.6-10,7.1-13.4,4.3C552.8,497.6,554,483.7,559.3,476.7L559.3,476.7z"/>
		<path style="fill:#2B2B2B;" d="M103.6,887.7c-8.3-13-19-24.4-31.4-33.6c-8.6-6.5-18.4-7.2-29-2.2c-2.6,1.2-5.3,2.6-7.8,3.8
			c-6.1,3.1-12.5,6.3-19,8.3c-5.4,1.7-10.8,3-16.3,4.1v4.1c5.9-1.2,11.8-2.6,17.5-4.4c6.8-2.2,13.3-5.4,19.6-8.5
			c2.5-1.3,5.2-2.6,7.8-3.8c9.3-4.4,17.5-3.8,24.9,1.8c12,8.9,22.4,19.9,30.4,32.5c6.1,9.4,7.8,21,4.7,31.8c-2,7.5-6,15-12,22.9
			s-14,11.6-24.4,11.2c-15.9-0.5-31.7,0.5-47.4,3.2c-7.3,1.2-14.3,2.1-21.2,2.7v4c7.1-0.7,14.3-1.6,21.8-2.8
			c15.4-2.6,31-3.6,46.6-3.1c11.6,0.4,20.9-3.8,27.7-12.7c6.3-8.3,10.5-16.2,12.7-24.2C112.2,910.8,110.3,898.1,103.6,887.7z"/>
		<path style="fill:#2B2B2B;" d="M391.1,1019.1c-0.9-12.1,4.4-22.7,10.3-32.3c8.6-14.1,20.6-25.6,32.2-36.8c1.9-1.8,3.8-3.6,5.7-5.5
			c5.1-5,10.6-7.8,16.3-8.2c8.5-0.7,17.1-1.1,25.5-1.5l1.5-0.1c7.5-0.3,12.7-3,15.7-8.1c2.7-4.5,4.9-9.3,6.6-14.2
			c0.1-0.2,6.1-21.6,23.4-29.8c4.5-2.1,9.4-3.2,14.4-3.2c6.6,0,13.7,1.7,21.3,5.1c10.3,5.6,16.2,15.1,18.8,29.8
			c1.4,7.8,1.7,13.8,0.9,19.1c-1.5,10.5-8.2,17.1-19.5,19.2h-0.1c-19,6-31.9,16.4-38.5,30.7c-8.3,18-4.3,37.8-1.6,47.2h2.1
			c-2.7-8.8-6.9-28.6,1.3-46.3c6.4-13.8,18.9-23.7,37.3-29.6c12.2-2.3,19.5-9.5,21-20.9c0.8-5.5,0.5-11.8-0.9-19.8
			c-2.7-15.4-9-25.3-19.9-31.2h-0.1c-14.1-6.3-26.7-7-37.4-1.9c-18.1,8.5-24.2,30.1-24.4,31c-1.6,4.8-3.7,9.4-6.4,13.8
			c-2.7,4.5-7.2,6.8-14.1,7.1l-1.5,0.1c-8.4,0.4-17.1,0.7-25.6,1.5c-6.2,0.5-12.1,3.5-17.5,8.8c-1.9,1.8-3.8,3.7-5.7,5.5
			c-11.7,11.2-23.8,22.9-32.5,37.2c-6,9.9-11.5,20.9-10.5,33.5c0.2,3.9,1.1,7.7,2.4,11.3h2.2
			C392.3,1026.9,391.4,1023.1,391.1,1019.1z"/>
		<path style="fill:#2B2B2B;" d="M740.3,30.9c-26.4,16.2-49,27.6-71.1,35.9c-9,3.4-13.2,9.5-13.4,19.8c-0.1,3.4-0.3,6.9-0.5,10.3
			c-0.2,3.8-0.4,7.8-0.5,11.7c-0.1,11.8-4.3,23.2-13.2,35.9l-0.1,0.2c-0.3,0.5-29.1,52.6-97.2,69c-15.5,4.2-30.3,12.4-45.2,25
			c-6.2,5.5-12.1,11.3-17.7,17.4c-1.7,1.8-3.3,3.5-5,5.2c-6.1,6.3-13.5,10.5-23.1,13.1c-15.1,4.1-20.4,12.8-18,30
			c1.7,12.5,5.8,24.4,9.5,34.5c5.1,13.7,13.8,23.4,26.6,29.6c17.1,8.3,33.6,19.3,50.3,33.5c4.6,3.9,10,6.8,15.2,9.5
			c2.3,1.2,4.6,2.5,6.8,3.8c51.1,40.2,94.8,30.4,98.3,29.6c9.8-0.9,19.5,0.5,30.5,4.6l4.1,1.5c8.6,3.2,17.5,6.5,26.6,8.9
			c4.4,1.1,8.9,1.8,13.5,2.2c4.4,0.4,8.7,1.1,12.9,2.1c14,3.7,21.8,12.3,23,25.6c0.8,8.9-0.6,18.1-4.3,28.1
			c-6.9,18.7-13.8,37.3-20.6,56l-8.8,24c0,0.1,0,0.1-0.1,0.2c-6.9,27.9,9.5,40.9,22.7,51.3c7.7,6.1,14.3,11.3,15,18.1
			c0.5,4.6-1.8,9.9-7,16.2c-14.2,17.3-34.4,25.7-55.4,23.1c-20.2-2.6-37.6-15.4-46-33.9c-18-38.5,30.5-71.2,32.9-72.8
			c0.5-0.2,1-0.5,1.6-0.7c1.5-0.5,3-1.3,4.2-2.4c8.4-7.6,15.7-16.3,21.9-25.8c7.2-11,15.1-24.3,18.6-39.7
			c4.8-21.1-0.4-33.6-17.9-43.1c-17-9.2-31.8-15.2-46.4-18.8s-26.8-1-36.2,7.6c-4.4,4-8,8.9-11.4,13.6c-1,1.3-1.9,2.6-2.9,3.9
			c-2.9,2.9-70.2,69.5-119.6,77l-0.3,0.1c-10.8,3.6-22.3,5-33.7,4.1c-6-0.5-12.1-1.3-18-2.2c-3.9-0.6-8-1.2-12-1.6
			c-2.8-0.3-5.7-0.5-8.4-0.6c-2.5-0.1-5.1-0.2-7.6-0.5c-13.4-1.4-28.5-4.1-36.8-18.1c-3-5-4.3-11.5-5.3-17.2c-0.7-4.7-1-9.5-1-14.3
			c0-1.5-0.1-2.9-0.1-4.4c-0.5-14-3.3-24.8-8.9-33.9c-5.4-8.9-13.4-13.7-23.5-14.1c-11.7-0.5-22.6,2.6-30.7,5.3
			c-9.1,3.1-18.1,6.5-26.9,9.8c-3.2,1.2-6.4,2.4-9.6,3.6l-0.2,0.1c-1.6,0.5-3.1,1.3-4.4,2.3c-9.2,8.3-11.2,13.1-4.9,25.3
			c1.8,3.3,3.9,6.4,6.3,9.2c0.9,1.2,1.9,2.4,2.7,3.6c4.2,5.8,8.9,12.9,11.2,21.3c2.8,10.3,0.3,20-8.1,30.3c-3,3.8-5.8,7.8-8.5,11.8
			c-1.2,1.7-2.3,3.4-3.5,5.1c-13.6,13.2-20.6,31.9-20.9,32.7c-1,2.8-2.1,5.5-3.1,8.3c-2.4,6.3-4.8,12.8-6.8,19.3
			c-2.3,7.5-4.7,17.4-2.3,28c2,8.8,7.6,14.1,17.6,16.5c3.6,0.9,7.2,1.7,10.8,2.5c4.2,1,8.5,2,12.7,3c8.3,2,14.2,7.6,20.6,13.5
			c1.6,1.5,3.1,3,4.6,4.5c4.7,4.7,9.5,9.5,15.7,12.8c11.1,6,22.1,5,32.6-2.9c4.6-3.4,8.9-7.3,13.1-11s8.8-7.8,13.5-11.2
			c6-4.4,12.4-8.5,18.6-12.4c4.2-2.7,8.5-5.4,12.7-8.2c14.3-9.7,28.6-19.7,42.5-29.5c10.5-7.3,19.8-11.5,29.2-13
			c4.9-0.8,10.2-0.2,14.9,0.4c18.9,2.5,33.3-4.5,39.6-19.3c0-0.1,0.1-0.2,0.1-0.3c0.1-0.4,10.5-41.2,37.1-42.1
			c10.4-0.4,18.1,2,23.4,7.2c6.7,6.5,9.7,17.5,9.4,34.4c0,0.1,0,0.2,0,0.3c0.2,1.7,0.4,3.3,0.6,5c0.5,3.7,0.9,7.3,1.4,11
			c1.5,11.4,4.8,22.6,9.7,33.1c3.1,6.7,6.3,13.5,9.5,20.1c5.5,11.6,11.2,23.5,16.4,35.5c5.1,11.6,5.1,23.9,0,36.4
			c-2,4.8-4.2,9.5-6.3,14.1c-2,4.4-4.1,8.9-6,13.4c-1.4,3.6-2.1,7.4-2.1,11.2c-0.2,5.2,3.5,9.1,9.2,9.5c19,1.5,33.4-6.6,42.9-24.1
			c1.5-2.8,2.7-5.7,4-8.5c1.2-3,2.6-6,4.2-8.9c2.3-4.2,4.1-6.2,5.5-6.6s3.9,0.9,6.8,2.9c6.5,4.4,12,10.3,17.2,16
			c8.7,9.7,18.5,19.2,33.4,20.5c5.6,0.5,11.3,0.5,16.8,0.5c2.7,0,5.6,0,8.3,0.1c1.5,0,3.1,0.2,4.6,0.5c9.6,2.2,13.3,6.5,15,17.8
			c4.6,30-11,59.4-38.5,72.4c-7.4,3.5-13.5,6.2-19.3,8.4c-13.4,5-27.3,10.1-41.4,15c-22.4,7.8-46.5-0.7-57.4-20.2
			c-3.5-6.3-5.8-13.5-7.9-20.6c-0.5-1.7-1-3.3-1.6-5c-2.4-7.5-4.6-15.1-6.8-22.6c-1.4-4.7-2.8-9.5-4.2-14.3
			c-0.4-2.4-5.8-27.2-47.3-38.7c-36.7-10.1-58-7.7-69.2,7.9c-2.4,3.4-4.8,6.8-7.2,10.2c-5.9,8.4-12,17-18.3,25.2
			c-10,13-21.5,20.5-35.2,22.8c-14.9,2.6-29.9,5.5-42.5,8c-9.3,1.8-22.3,6.1-27.6,21.8c-3.1,8.8-6.8,17.4-10.9,25.8
			c-5.9,12.6-16.2,20.1-30.5,22.3c-7,1-14.1-1.3-21.9-7.1c-3.8-2.8-7.4-6.1-10.9-9.3c-2-1.8-4-3.7-6.1-5.5
			c-9.5-8.2-18.8-11.7-28.5-10.8c-10.9,1.1-21.6,2.9-32.2,5.5c-13.8,3.1-26,3-37.5-0.2c-15.4-4.4-26.6-13.9-33.2-28.3
			c-5.5-12-10.5-26.2-5.9-41.6c3.6-12.5,10.7-23.8,20.5-32.5c6.4-5.6,15-7.7,24.2-6c13.9,2.7,30.1,5.6,46.4,5.9
			c1.5,0,2.9,0.3,4.2,0.8c5.1,2.1,9.3,5.9,13.6,12.2c3.2,4.7,6.4,9.4,9.7,14.1c8.6,12.6,17.5,25.6,26.5,38.3c2.8,3.9,6.8,7,10.4,9.5
			c6.3,4.5,14,5.4,23.6,2.8c14.1-3.8,29.9-9.6,40-23.8c5.3-7.7,9.9-15.8,13.7-24.3c6.5-14.4,10-29.9,10.3-45.7
			c0.2-7.9,0.2-16.2,0-27.1c-0.4-12.6,2.6-25,8.8-36c6.7-12,16.4-22.6,31.6-34.3c6.7-5.1,13.7-9.5,21.2-13.3
			c11.2-5.8,23.7-6.4,40.5-2c20.4,5.4,37.7,8.1,54.5,8.6c0.2,0,0.4,0,0.5-0.1c0.5-0.1,12.9-2.8,20.9,19.7
			c4.3,12.2,4.4,21.4,0.2,27.3c-3.8,5.3-10.9,8-21.4,8c-8.8-1.4-14.6-7.3-20.7-13.5l-1.2-1c-5.2-5.2-11.5-9.3-17.6-13.3l-1.6-1
			c-4.2-2.7-8.6-5.2-12.9-7.7c-2.8-1.6-5.8-3.3-8.6-5c-13.9-8.4-28.1-8.2-43.6,0.4c-18.2,10.2-30.2,24.5-35.7,42.3
			c-2.1,6.8-3.3,14.8-3.6,24.5c-0.6,15.4-0.3,30.8-0.1,44.1c0.2,8,1.6,14.2,4.7,19.5c4.2,7.4,11,11.4,20.1,12
			c18.6,1.2,30.5-9.8,39.6-20.7c11.3-13.4,17.8-29.5,24-45.1l0.4-1c2.9-7.2,6.3-14.7,13.2-19.7c9-6.4,23.4-5.6,30.9,1.7
			c1.4,1.8,16,19.7,35,21.9c9.1,1,17.7-1.7,25.6-8.1c12.2-9.5,22.6-27.6,11.5-47.6c-2.8-5.1-5.8-10.2-8.7-15.1
			c-2.4-4.1-4.9-8.3-7.2-12.5l-0.5-0.8c-2.9-5.2-6-10.5-8.4-16c-1.3-3-2.5-6.2-3.6-9.4c-2.5-7-5.1-14.3-10.2-20.5
			c-0.6-0.9-5.9-8.2-13-9.6c-3.3-0.6-6.8,0.1-9.5,2.1l-1.4,0.9c-1.1,0.7-2.2,1.4-3.2,2.2c-10.4,8.1-21.3,11.7-33.2,11l-3-0.2
			c-7.5-0.4-15.3-0.9-22.9-1.9c-11.1-1.6-22.4,0.5-32.2,5.9c-24.9,13.3-46.9,31.3-65,53c-6,7.2-10.8,15.8-14.8,22.7
			c-8.4,14.8-6.8,30.6-4.2,46.7c1.8,9.4-0.4,19.2-5.9,27c-8.2,11.9-21.4,17.9-34.2,23.7c-2.6,1.2-6.6,0.6-10.2,0
			c-9.3-1.8-23.5-19.5-23.1-31.8c0.3-6.8,1.7-13.5,4.1-19.9c2.8-7.6,2.3-16-1.5-23.1c-2.9-5.7-6.9-10.3-10.8-14.7l-1.5-1.7
			c-7.3-8.5-22.7-10.1-32.8-3.4c-7.8,5.2-13.8,12.2-19.5,18.9l-1.8,2.1c-6.8,7.9-15.4,11.9-24.9,11.5c-9.2-0.5-18.3-2.5-26.9-6
			c-8.3-3.2-14.1-8.2-16.7-14.4c-2.3-5.4-2.1-11.6,0.5-18c2-4.5,4.6-8.7,7.7-12.6l0.4-0.6c6.9-9.2,14-18.7,18.4-29.9
			c2.8-7.3,6.2-14.9,10.4-23.3c3-6,6.2-11.9,9.3-17.7c2-3.7,4.1-7.5,6.1-11.3c2.2-4.1,4.2-8.3,6.3-12.4c0.9-1.8,1.8-3.6,2.7-5.5
			c1.1-1.7,12.1-17.9,16.7-32.5l2-6.3c1.7-5.4,3.3-10.8,5-16.2c0.6-1.9,1.3-3.9,1.9-5.8c1.7-4.5,3-9.2,4-13.9
			c1.8-9.8-2.3-18.5-7.1-26.4c-0.6-1.1-1.3-2.1-1.9-3.2c-3.8-6.2-7.4-12.1-9-19.2c-3.9-17.1,6.8-26.2,13.6-30
			c7.5-4.3,15.6-6.2,24.1-8.2c3.6-0.9,7.4-1.8,11.1-2.9c8.5-2.5,17.2-4.9,25.7-7.1l7.2-1.9l3.2-0.9c12.3-3.3,24.9-6.7,37.9-7.1
			c10.3-0.3,17.9,4.3,23.2,14c5.2,9.8,8.4,20.6,9.3,31.7c1.1,11.4,2.3,23.6,4,35.6c2,13.7,10.2,21.8,23.7,23.4
			c9.3,1.1,18.9,0.7,28.2,0.4l4.1-0.2c19.9-0.7,37.6-7.9,53.8-15.5c10.2-4.8,15.3-13.2,16.1-26.3c0.2-3.3,0.2-6.6,0.3-9.9
			c0-5.5,0.3-11,1-16.4c1.6-10.1,3.7-17.6,6.8-23.8c7.9-15.8,5.2-29.8-8.5-44c-14.9-15.3-31-25.8-49.3-32l-1.7-0.6
			c-13-4.4-26.3-9-37.2-18c-5.8-4.6-9.5-11.4-10.3-18.7c-0.4-3.1-0.8-6.2-1.1-9.3c-0.9-8.3-1.9-16.8-4.2-24.9
			c-5.2-18.1-17.4-24.8-36.1-20c-11.2,2.9-22.5,7.5-35.5,14.7l-0.7,0.4c-7.7,4.4-15.6,8.4-23.6,12c-16.8,7-27.8,19.2-33.7,37.3
			c-3.4,10.8-9,20.8-16.5,29.3c-9.4,10.9-22.2,18.2-36.4,20.8c-15.5,2.8-28.6,8.7-39.9,17.9c-10,8-21.9,13.4-34.6,15.6
			c-16.8,3.1-34.7,4.6-51-4.8c-7.4-4.3-14.3-9.7-21.1-14.9l-1.8-1.4c-9.4-7.2-18.8-14.7-27.8-21.9c-5.3-4.2-10.5-8.3-15.8-12.5
			c-10.7-8.4-18.3-17.2-23.4-26.9C10.9,353.7,5.9,346.9,0,341v5.8c4.4,4.9,8.2,10.3,11.2,16.2c5.4,10.2,13.4,19.4,24.5,28.2
			c5.3,4.1,10.5,8.3,15.7,12.5c9.1,7.2,18.5,14.7,27.8,22L81,427c6.8,5.3,13.9,10.8,21.5,15.2c17.5,10.1,36.2,8.5,53.8,5.3
			c13.3-2.3,25.8-7.9,36.4-16.4c10.8-8.8,23.3-14.4,38.1-17.1c15-2.7,28.7-10.5,38.7-22.1c7.8-9,13.7-19.4,17.3-30.7
			c5.5-16.9,15.8-28.3,31.4-34.9c8.2-3.6,16.2-7.7,24-12.2l0.7-0.4c12.7-7,23.6-11.5,34.5-14.3c16.5-4.2,26.8,1.4,31.3,17.3
			c2.3,7.8,3.3,16.1,4.2,24.3c0.3,3.1,0.7,6.2,1.1,9.4c1,8.3,5.2,16,11.7,21.3c11.4,9.4,25.1,14.1,38.4,18.7l1.7,0.6
			c17.6,6,33.2,16.2,47.7,31.1c12.6,12.9,15,25.1,7.8,39.4c-3.3,6.5-5.6,14.5-7.2,25c-0.7,5.6-1.1,11.3-1,17c0,3.2-0.1,6.5-0.3,9.7
			c-0.7,11.7-5,18.7-13.8,22.9c-15.8,7.5-33.1,14.5-52.2,15.2l-4.1,0.2c-9.1,0.4-18.5,0.7-27.5-0.3c-11.6-1.4-18.5-8.2-20.2-20
			s-3-24-4-35.4c-0.9-11.6-4.3-23-9.8-33.3c-6-11-15-16.4-26.8-16.1c-13.4,0.4-26.3,3.9-38.8,7.3l-3.2,0.9l-7.2,1.9
			c-8.5,2.2-17.2,4.6-25.8,7.1c-3.6,1.1-7.3,2-10.9,2.8c-8.4,2-17.1,4.1-25.1,8.7c-13.1,7.5-18.8,20-15.5,34.4
			c1.8,7.7,5.7,14.1,9.5,20.4c0.6,1,1.3,2.1,1.9,3.2c5,8.4,8,15.6,6.6,23.6c-1,4.5-2.3,9-3.9,13.3c-0.7,1.9-1.3,3.9-2,5.9
			c-1.7,5.4-3.3,10.8-5,16.2l-2,6.3c-4.5,14.5-16.1,31.4-16.2,31.6c-0.1,0.1-0.1,0.2-0.1,0.2c-0.9,1.9-1.9,3.7-2.8,5.6
			c-2,4.1-4.1,8.3-6.2,12.3c-2,3.8-4,7.6-6,11.3c-3.1,5.8-6.4,11.8-9.4,17.8c-4.3,8.5-7.7,16.3-10.6,23.7
			c-4.1,10.7-10.8,19.6-17.8,29l-0.4,0.6c-3.3,4.1-6,8.6-8.2,13.4c-3.1,7.4-3.2,14.7-0.5,21.1c3.1,7.2,9.6,13,19,16.6
			c9,3.6,18.5,5.7,28.2,6.2c10.8,0.5,20.5-4,28.1-12.9l1.8-2.1c5.8-6.8,11.3-13.3,18.7-18.2c8.4-5.6,21.5-4.3,27.6,2.6l1.5,1.7
			c3.9,4.5,7.6,8.7,10.2,13.9c3.3,6.2,3.7,13.5,1.3,20c-2.5,6.8-4,13.9-4.3,21.1c-0.5,13.5,14.3,33.6,26.3,35.9
			c4.2,0.8,9,1.4,12.6-0.2c13.2-6,27-12.2,35.8-25c6.1-8.7,8.5-19.5,6.6-29.9c-2.5-15.4-4.1-30.4,3.7-44.1
			c3.8-6.8,8.6-15.2,14.4-22.2c17.7-21.3,39.4-39,63.8-52.1c9.1-5,19.5-6.9,29.8-5.5c7.7,1,15.6,1.5,23.2,1.9l2.9,0.2
			c12.7,0.7,24.8-3.3,35.8-11.9c0.9-0.7,1.9-1.3,2.9-2l1.5-1c1.9-1.4,4.2-1.9,6.5-1.5c5.9,1.1,10.5,7.9,10.5,8l0.1,0.2
			c4.7,5.7,7,12.3,9.6,19.4c1.1,3.2,2.3,6.5,3.7,9.6c2.5,5.6,5.6,11.1,8.6,16.3l0.5,0.8c2.4,4.2,4.9,8.4,7.3,12.5
			c2.9,4.9,5.8,10,8.7,15c9.9,17.7,1.1,33.6-10.5,42.5c-7,5.8-14.6,8.2-22.6,7.3c-18-2-32.3-20.3-32.4-20.5l-0.2-0.2
			c-8.9-8.8-25.4-9.8-36.1-2.2c-7.8,5.6-11.5,13.6-14.6,21.4l-0.4,1c-6.1,15.3-12.5,31.1-23.3,44c-8.5,10.1-19.5,20.4-36.3,19.3
			c-7.8-0.5-13.3-3.8-16.9-10c-2.7-4.7-4-10.2-4.1-17.5c-0.3-13.2-0.5-28.6,0.1-43.9c0.4-9.3,1.5-17,3.5-23.4
			c5.2-17,16.3-30.1,33.8-40c14.1-7.9,27-8.1,39.5-0.5c2.9,1.7,5.8,3.4,8.7,5c4.2,2.4,8.6,4.9,12.7,7.5l1.6,1.1
			c5.9,3.9,12.1,7.8,16.9,12.8l1.2,1.2c6.4,6.5,12.9,13.2,23.1,14.7h0.3c11.9,0,20.2-3.3,24.8-9.7c5-7.1,5.1-17.5,0.3-31
			c-8.7-24.5-23-22.8-25.3-22.3c-16.3-0.4-33.3-3.1-53.3-8.4c-17.9-4.7-31.2-4-43.4,2.3c-7.6,3.9-14.9,8.5-21.8,13.7
			c-15.6,12-25.7,23-32.6,35.5c-6.4,11.6-9.6,24.7-9.3,38c0.2,10.8,0.2,19.1,0,26.9c-0.3,15.3-3.7,30.3-9.9,44.2
			c-3.7,8.3-8.2,16.2-13.3,23.6c-9.3,13.2-23.7,18.5-37.7,22.3c-8.5,2.3-14.9,1.6-20.3-2.2c-3.3-2.3-7-5.1-9.5-8.5
			c-9-12.6-17.8-25.7-26.4-38.2c-3.2-4.7-6.4-9.4-9.7-14.2c-4.8-7-9.6-11.2-15.4-13.7c-1.8-0.7-3.8-1.1-5.7-1.2
			c-15.9-0.2-31.9-3.1-45.7-5.8c-10.2-2-20.3,0.5-27.6,6.9c-10.3,9.1-17.9,21-21.7,34.3c-5,16.6,0.3,31.8,6.1,44.4
			c7.1,15.5,19.1,25.7,35.8,30.5c12.1,3.5,25,3.5,39.5,0.3c10.4-2.5,21-4.3,31.7-5.4c8.5-0.8,16.9,2.4,25.5,9.8c2,1.8,4.1,3.6,6,5.4
			c3.5,3.2,7.2,6.6,11.2,9.6c8.7,6.5,16.8,9.1,24.9,7.8c15.5-2.3,27-10.8,33.5-24.5c4.2-8.5,7.8-17.3,11-26.2
			c3.6-10.6,11.2-16.5,24.6-19.1c12.7-2.5,27.6-5.4,42.5-8s27-10.5,37.6-24.3c6.4-8.3,12.5-17,18.4-25.4c2.4-3.4,4.8-6.8,7.2-10.1
			c6.8-9.4,20.2-18.7,64.9-6.4c40.1,11,44.4,35.3,44.4,35.5c0,0.1,0,0.2,0.1,0.3c1.5,4.8,2.9,9.6,4.2,14.3
			c2.2,7.4,4.4,15.1,6.8,22.7c0.5,1.6,1,3.3,1.5,4.9c2.2,7.2,4.5,14.7,8.2,21.3c11.8,21.2,38,30.4,62.2,22c14.2-4.9,28.1-10,41.5-15
			c6-2.2,12.2-5,19.7-8.5c29-13.7,45.6-44.9,40.7-76.6c-2-12.8-6.9-18.5-18.1-21.1c-1.8-0.4-3.6-0.6-5.4-0.6
			c-2.8-0.1-5.7-0.1-8.4-0.1c-5.4,0-11,0-16.5-0.5c-13.4-1.2-22.5-10.2-30.8-19.2c-5.3-5.9-11.1-12.1-17.9-16.7
			c-4.1-2.8-7-4.2-10-3.5c-3.2,0.8-5.6,4-8.1,8.5c-1.6,3-3.1,6.1-4.4,9.3c-1.2,2.7-2.4,5.6-3.8,8.2c-8.7,16.2-21.5,23.4-39,22
			c-2.8-0.2-5.7-1.8-5.5-5.5c0-3.3,0.6-6.6,1.8-9.8c1.9-4.5,3.9-9,6-13.3c2.2-4.7,4.4-9.5,6.4-14.3c5.5-13.3,5.4-27-0.1-39.5
			c-5.3-12-11-24-16.5-35.5c-3.1-6.6-6.3-13.3-9.4-20c-4.7-10.1-7.9-20.9-9.3-31.9c-0.5-3.7-0.9-7.3-1.4-11
			c-0.2-1.6-0.4-3.3-0.6-4.9c0.2-18-3.1-29.8-10.6-37.2c-6-5.9-14.9-8.7-26.3-8.3c-29,1-40,41.6-40.8,45
			c-5.6,12.9-18.5,19-35.4,16.7c-4.9-0.7-10.6-1.3-16-0.4c-10.1,1.6-19.9,6-30.9,13.7c-13.9,9.7-28.2,19.8-42.5,29.4
			c-4.1,2.8-8.4,5.5-12.6,8.1c-6.3,4-12.8,8.1-18.9,12.6c-4.8,3.6-9.4,7.6-13.8,11.5c-4.1,3.7-8.5,7.4-12.9,10.8
			c-9.2,6.9-18.7,7.8-28.3,2.5c-5.7-3.1-10.1-7.5-14.8-12.2c-1.5-1.5-3.1-3.1-4.8-4.7c-6.4-6-13.1-12.2-22.4-14.5
			c-4.2-1-8.5-2-12.7-3c-3.6-0.8-7.2-1.7-10.8-2.5c-8.6-2-13-6.1-14.6-13.5c-2.2-9.6-0.1-18.5,2.2-26c2-6.4,4.4-12.8,6.8-19.1
			c1-2.8,2.1-5.6,3.1-8.4c0.1-0.2,7-18.8,20-31.4c0.1-0.1,0.2-0.2,0.2-0.3c1.2-1.8,2.5-3.6,3.7-5.3c2.6-3.9,5.4-7.8,8.3-11.5
			c9.2-11.4,12-22.1,8.8-33.8c-2.5-9.1-7.4-16.6-11.8-22.7c-0.9-1.2-1.9-2.5-2.8-3.7c-2.2-2.7-4.2-5.6-5.9-8.6
			c-5.4-10.4-4.1-13.2,4-20.5c0.9-0.7,2-1.2,3.1-1.6l0.2-0.1c3.2-1.2,6.5-2.4,9.7-3.6c8.8-3.3,17.8-6.7,26.8-9.8
			c7.8-2.6,18.2-5.6,29.2-5.1c8.9,0.4,15.5,4.4,20.3,12.2c5.2,8.6,7.9,18.7,8.3,32c0,1.4,0.1,2.9,0.1,4.3c0,5,0.3,10,1.1,14.9
			c1.1,6.1,2.5,13,5.8,18.6c9.3,15.6,25.4,18.5,39.8,20c2.6,0.3,5.2,0.4,7.8,0.5s5.5,0.2,8.2,0.6c4,0.5,8,1,11.9,1.6
			c6,0.9,12.1,1.8,18.2,2.2c11.8,0.9,23.8-0.5,35-4.3c51.6-8,119-75.3,121.8-78.2l0.2-0.2c1-1.3,2-2.7,3-4
			c3.3-4.6,6.8-9.3,10.9-13.1c8.4-7.8,19.1-9.9,32.5-6.7c14.3,3.5,28.8,9.3,45.5,18.4c13.2,7.2,21,16.5,15.9,38.7
			c-3.4,14.8-11,27.7-18,38.4c-6,9.2-13.2,17.6-21.3,25c-0.9,0.7-2,1.3-3.1,1.6c-0.6,0.3-1.3,0.5-1.9,0.9l-0.2,0.1
			c-9.3,6.3-17.6,13.9-24.6,22.7c-14.7,18.5-18.1,37.7-9.8,55.3c9,19.7,27.6,33.4,49.1,36.2c22,2.8,44.1-6.4,59-24.5
			c5.9-7.2,8.5-13.5,7.9-19.2c-0.9-8.5-8.5-14.5-16.5-20.8c-13-10.2-27.6-21.8-21.4-47.1l8.8-23.9c6.9-18.7,13.8-37.3,20.7-56
			c3.9-10.6,5.4-20.4,4.5-29.9c-1.3-15-10.3-25-26-29.1c-4.4-1.1-8.9-1.8-13.5-2.2c-4.4-0.4-8.7-1.1-13-2.1
			c-8.8-2.3-17.7-5.6-26.2-8.8l-4.2-1.5c-11.6-4.3-22-5.8-32.4-4.8l-0.3,0.1c-0.4,0.1-44.6,11-95.1-28.9l-0.2-0.1
			c-2.3-1.4-4.8-2.7-7.1-3.9c-5-2.7-10.2-5.5-14.5-9c-17-14.4-33.7-25.6-51.1-34c-11.8-5.8-19.9-14.7-24.6-27.4
			c-3.6-9.8-7.6-21.5-9.3-33.6c-2.1-15.3,1.8-22,15.1-25.6c10.2-2.8,18.3-7.4,24.9-14.2c1.7-1.7,3.4-3.5,5-5.2
			c5.5-6,11.3-11.6,17.4-17c14.4-12.2,28.7-20.1,43.6-24.2c28.7-6.9,55-21.3,76.2-41.8c15.4-14.9,22.6-27.7,23.4-29.1
			c9.3-13.4,13.7-25.4,13.8-38c0-3.8,0.2-7.7,0.5-11.5c0.2-3.4,0.4-7,0.5-10.5c0.2-8.6,3.3-13.3,10.8-16.1
			c22.4-8.5,45.2-20,71.9-36.4c9.4-5.8,18.4-7.6,27.5-5.7s15,7.5,18,16.6c0.8,2.5,1.4,5.1,2,7.7c0.7,3.2,1.6,6.3,2.6,9.3
			c7,19.8,25.2,23.1,39.7,19.7c4.5-1.1,8.8-3.1,12.7-5.8c4.8-3.4,7.6-7.6,8.2-12.4c0.8-5.7-1.6-12-6.9-18.3
			c-4.2-5-8.8-9.7-13.3-14.3c-2.7-2.7-5.5-5.6-8.1-8.4C819,16.4,815,8.5,813.4,0h-4.1c1.6,9.5,6,18.4,12.6,25.4
			c2.7,2.9,5.5,5.8,8.2,8.5c4.4,4.5,9,9.1,13.1,14c4.5,5.5,6.6,10.8,6,15.3c-0.5,3.6-2.7,6.9-6.6,9.6c-3.4,2.4-7.2,4.2-11.3,5.2
			c-16.7,4-29.8-2.4-35-17.1c-1-2.9-1.8-5.9-2.5-8.9c-0.6-2.6-1.3-5.3-2.1-8c-3.4-10.4-10.6-17-20.9-19.3
			C760.8,22.6,750.5,24.6,740.3,30.9z"/>
		<path style="fill:#2B2B2B;" d="M153.9,630.8c10.2-21.3,8.1-32.2,8-32.7c0-0.1,0-0.1-0.1-0.2c-0.1-0.3-0.2-0.7-0.4-1
			c-0.2-0.6-0.4-1.1-0.5-1.7c-3-16.2-12.4-26.4-28-30.1c-9.3-2.2-19-1.5-30.6,2.1c-11.8,3.8-23.9,6.5-36.1,8
			c-9.1,1-18.5,2.1-26.9,7.6c-3.2,2.1-6.7,4-10,5.9c-2.1,1.2-4.2,2.4-6.4,3.6c-2.3,1.4-4.1,1.9-5.1,1.5s-1.9-2-2.8-5
			c-1.9-6.6-3.2-13.3-4-20.2c-1.5-11.1-5.2-20-11-27.1v6.7c3.6,5.7,5.9,12.6,7.1,20.9c0.8,7,2.2,14,4.2,20.8c1,3.2,2.3,6.4,5.2,7.5
			c2.3,0.9,5,0.3,8.6-1.8c2.1-1.2,4.2-2.4,6.3-3.6c3.4-1.9,6.9-3.9,10.3-6c7.6-4.9,16.5-6,25.2-7c12.5-1.5,24.9-4.3,36.9-8.2
			c10.8-3.4,19.8-4,28.3-2c14.1,3.4,22.3,12.2,25,26.9c0.2,0.8,0.4,1.6,0.7,2.4c0.1,0.2,0.2,0.5,0.3,0.7c0.2,1.1,1.3,11.2-7.9,30.2
			c-0.1,0.2-0.1,0.3-0.2,0.5c-2.2,12-8.9,21.6-19.7,28.6c-16.5,10.8-31.1,17.2-45.8,20.3c-10.6,2.2-22,2.5-35.9,1
			c-3-0.3-6-0.7-8.9-1.1c-10.6-1.3-21.7-2.7-32.8-2c-2.3,0.1-4.6,0.2-6.9,0.1v4c2.3,0,4.7,0,7.1-0.1c10.8-0.6,21.6,0.7,32.2,2
			c3,0.4,6,0.8,9,1.1c14.4,1.6,26.2,1.2,37.2-1.1c15.2-3.2,30.2-9.8,47.1-20.9C144.2,654.2,151.4,643.8,153.9,630.8z"/>
		<path style="fill:#2B2B2B;" d="M135.8,909.3l2.9,6.2C145,929,157.6,933,169,935.8c19.4,4.6,39.3,4.3,58.5,3.9
			c2.8-0.1,5.7-0.1,8.5-0.1c12.2-0.1,23.3,3.9,33.7,12.3c4.4,3.6,8.8,7.5,13,11.3c3.6,3.2,7.3,6.5,11,9.6
			c11.1,9.2,23.5,13.3,36.9,11.9c17.1-1.7,30.7-9.2,40.3-22.3c10-13.5,19.6-27.7,28.6-41c10.6-15.8,24.8-25.5,43.3-29.7
			c15.3-3.5,28.3-12.1,38.7-25.6c2.8-3.7,4.8-6.6,6.8-9.4c2.5-3.6,4.9-7,8.6-11.5c1.2-1.3,21.4-22.1,57.5-7.7l0.2,0.1
			c0.1,0,10.1,2.7,21.7,12.4c10.8,8.9,25.2,25.8,32.9,55.5c4,15.4,13.6,28.8,26.9,37.6l5,3.3c7.1,4.8,14.4,9.7,21.5,14.7
			c8.5,5.9,17.1,6.6,25.6,2.1l5.1-2.7c4.8-2.5,9.7-5.1,14.4-7.8c5-2.8,10-5.8,14.9-8.7c6.1-3.6,12.4-7.2,18.6-10.8
			c3.2-1.8,6.7-3.5,10-5.2c5.7-2.7,11.2-5.7,16.5-9.2c9-6.2,17.8-13,26.3-19.5c4.9-3.7,9.9-7.6,14.9-11.3
			c7.5-5.6,15.2-11.7,19.5-20.8c3.1-6.8,5.7-13.7,8-20.8l0.1-0.4c2.7-7.8,7.5-13.6,13.8-16.5s14-3,21.6-0.2
			c7.2,2.7,13.6,7.7,19.7,15.3c1.9,2.4,3.8,4.8,5.7,7.2c5.6,7.1,11.4,14.4,17.4,21.3c5.4,6.1,13.2,9.8,22.7,10.7
			c10.7,1,21.2-0.8,31.3-2.5c2.1-0.3,4.1-0.7,6.2-1c9.5-1.5,17.8-3,25.6-4.5c2.6-0.5,5.3-1,8-1.5c3-0.6,6-1.2,9.1-1.8v-4.1
			c-3.3,0.7-6.6,1.3-9.8,1.9c-2.7,0.5-5.3,1-8,1.6c-7.7,1.5-16,3-25.4,4.5c-2.1,0.3-4.2,0.7-6.2,1c-9.9,1.7-20.1,3.4-30.3,2.4
			c-8.6-0.8-15.3-3.9-20.1-9.3c-6-6.8-11.8-14.1-17.3-21.2c-1.9-2.4-3.8-4.8-5.7-7.2c-6.5-8.1-13.5-13.6-21.4-16.5
			c-8.6-3.3-17.4-3.2-24.7,0.3s-12.8,10-15.9,18.9l-0.1,0.4c-2.2,6.9-4.8,13.7-7.8,20.4c-3.9,8.3-11.2,14.1-18.2,19.3
			c-5,3.7-10.1,7.6-14.9,11.3c-8.5,6.5-17.2,13.3-26.2,19.4c-5.1,3.3-10.5,6.3-16,8.9c-3.4,1.7-6.8,3.4-10.2,5.2
			c-6.3,3.5-12.6,7.2-18.7,10.8c-4.9,2.8-9.9,5.8-14.9,8.6c-4.7,2.7-9.6,5.3-14.3,7.8l-5.1,2.7c-7.1,3.8-14.2,3.2-21.4-1.8
			s-14.5-9.9-21.5-14.7l-5-3.3c-13-8.8-21.5-20.6-25.3-35.3c-8-30.8-23.1-48.4-34.4-57.7c-11.7-9.7-21.7-12.6-23-13
			c-39.1-15.5-61.6,8.6-61.9,8.9c-3.9,4.7-6.3,8.2-8.8,11.9c-1.9,2.8-3.9,5.7-6.7,9.2c-9.8,12.8-22.1,20.9-36.4,24.2
			c-19.5,4.4-34.5,14.7-45.7,31.4c-9,13.3-18.6,27.4-28.5,40.9c-9,12.1-21.6,19.1-37.5,20.7c-12.3,1.2-23.7-2.5-34-11
			c-3.7-3.1-7.4-6.4-10.9-9.5c-4.2-3.8-8.7-7.7-13.2-11.4c-10.9-8.9-22.5-13.2-35.5-13.2H236c-2.8,0-5.7,0.1-8.5,0.1
			c-19,0.3-38.6,0.7-57.5-3.8c-13.3-3.2-22.6-7.3-27.6-18l-2.9-6.2c-6.6-14.2-13.5-29-19.5-43.7c-7.5-18.3-18.2-31.5-33-40.4
			c-14.9-8.9-29.8-10.6-44.2-5c-7.6,2.9-14.7,7.1-21,12.3c-6.6,5.7-13.9,10.3-21.9,13.9v4.3c8.9-3.8,17.1-8.9,24.4-15.2
			c5.9-4.9,12.7-8.9,19.9-11.6c13.2-5.2,26.9-3.6,40.6,4.7c14,8.4,24.2,21,31.3,38.4C122.3,880.2,129.2,895,135.8,909.3z"/>
		<path style="fill:#2B2B2B;" d="M812.7,1025.5c-0.7-6.9,0.2-13.4,1.1-19.5c1.7-11.1,7.8-19.3,18-24.4c13.7-6.8,25.5-16.6,35.9-25.3
			c4-3.2,8.6-5.8,13.4-7.7c3.6-1.4,6.7-1.5,9.4-0.3c2.8,1.3,5,4,6.4,8c1.5,4.2,2.8,8.6,4.1,12.9c0.6,2.2,1.3,4.3,2,6.5
			c2.7,8.5,8.5,13.5,15.9,13.5h0.1c5.5,0,10.9-2.9,15.8-5.5c3.4-1.9,6.7-4,9.8-6.4c1.9-1.4,3.9-2.8,5.9-4c7-4.5,15.1-6.8,23.4-6.7
			c3.5,0,7.1,0,10.6,0c2.8,0,5.6,0,8.4,0c8.2,0,16.4-0.3,25-1.1v-4c-8.5,0.8-16.8,1.2-24.9,1.1c-2.8,0-5.7,0-8.5,0
			c-3.5,0-7,0-10.5,0c-9.1-0.1-18,2.4-25.6,7.3c-2.1,1.3-4.1,2.8-6.1,4.2c-3,2.2-6.1,4.3-9.4,6.1c-4.5,2.4-9.5,5.1-14,5
			c-5.6,0-10-4-12.1-10.7c-0.7-2.1-1.3-4.3-1.9-6.4c-1.3-4.3-2.6-8.8-4.2-13.1c-1.8-5-4.8-8.6-8.5-10.3c-3.6-1.6-7.9-1.5-12.5,0.3
			c-5.2,2-10.1,4.8-14.5,8.3c-10.2,8.6-21.8,18.3-35.1,24.8c-11.5,5.7-18.3,14.8-20.2,27.4c-1,6.4-1.9,13.2-1.1,20.6
			c0.2,1.6,0.4,3.2,0.7,4.7h4.1C813.1,1029,812.8,1027.3,812.7,1025.5z"/>
		<path style="fill:#2B2B2B;" d="M271.1,1030.6c3.8-10.8,2.2-22.1-4.8-34.3c-9.5-16.6-24.9-26.3-47.1-29.7
			c-9.3-1.3-18.7-1.9-28.2-1.8c-0.1,0-0.2,0-0.2,0c-0.2,0-0.4,0-0.5,0c-1.4,0.4-2.8,0.7-4.2,1c-3.3,0.7-6.6,1.5-9.4,3.3
			c-5.9,3.9-12.5,8.6-17.2,14.7c-8.1,10.7-15.5,21.9-22.1,33.5c-2.4,4.1-4.1,8.6-5,13.3h2c0.9-4.3,2.5-8.5,4.7-12.3
			c6.6-11.5,13.9-22.6,22-33.2c4.4-5.8,10.9-10.5,16.7-14.2c2.4-1.6,5.5-2.3,8.7-3c1.4-0.3,2.9-0.7,4.3-1.1c0.1,0,0.2,0,0.2,0
			c9.3-0.1,18.6,0.5,27.9,1.8c21.6,3.3,36.5,12.7,45.7,28.8c6.8,12,8.3,22.9,4.4,33.4H271.1z"/>
		<path style="fill:#2B2B2B;" d="M46.1,930c6.8-5.8,13.1-12.7,12.9-23.3c-0.1-5.1-2.3-9.1-6.2-11.2c-4.2-2.3-9.7-5-15.3-5.6
			c-7.2-0.8-14.5-0.9-21.6-1c-2.9,0-5.9-0.1-8.9-0.2c-0.1,0-0.2,0-0.3,0c-0.2,0-0.3,0-0.5,0c-2,0.5-4.1,1-6.2,1.5H0v2l0.5-0.1
			c2.1-0.5,4.1-1,6.2-1.5l0,0H7c3,0.1,6,0.2,9,0.2c7.1,0.1,14.4,0.2,21.5,1c5.3,0.6,10.6,3.2,14.6,5.3c3.2,1.8,5.1,5.1,5.1,9.5
			c0.2,9.2-4.8,15.3-12.2,21.7s-16.2,10.8-27.1,13.8c-5.8,1.7-11.7,2.6-17.7,2.7v2c6.2-0.1,12.3-1.1,18.2-2.8
			C29.5,941,38.6,936.4,46.1,930z"/>
		<path style="fill:#2B2B2B;" d="M208.7,846.8c-4-1-8-1.8-12.1-2.3c-1.8-0.3-3.6-0.5-5.4-0.8c-0.1,0-0.3,0-0.4,0
			c-0.2-0.1-0.4-0.1-0.6,0c-1.4,0.6-2.9,1.1-4.3,1.6c-3.3,1-6.4,2.4-9.3,4.1c-15.1,9.8-15.6,30.1-7.4,43.3
			c4.9,7.9,11.1,13.1,19,15.9c4.2,1.6,8.7,2.4,13.1,2.4c7.1,0,14.4-2,22.1-6c4.8-2.5,9.2-5.5,13.2-9.1c11.2-10.4,11.9-21.2,2.1-32.3
			C230,853.7,218.1,849.5,208.7,846.8z M235.2,894.4c-3.8,3.5-8.1,6.5-12.8,8.8c-12,6.2-23,7.4-33.7,3.5c-7.5-2.7-13.4-7.6-18-15.1
			c-7.7-12.4-7.3-31.4,6.8-40.5c2.8-1.6,5.8-3,8.9-3.9c1.4-0.5,2.9-1,4.3-1.6h0.1c1.8,0.3,3.7,0.6,5.5,0.8c4,0.5,8,1.2,11.9,2.2
			c9.1,2.5,20.7,6.7,29,16.1C246.4,875.2,245.8,884.6,235.2,894.4z"/>
		<path style="fill:#2B2B2B;" d="M442,741.2h-0.3c-0.3,0-0.6,0-0.9,0.1c-15.5,4.1-20.3,16.8-23.2,29.9c-1.5,6.9-2.2,14-2,21.1
			c0,6.8,1.1,13.6,3.1,20.2c3.1,9.2,8.3,12.5,12.2,13.6c1.4,0.4,2.8,0.6,4.3,0.6c5.2-0.2,10.3-2.2,14.2-5.6
			c11.5-9.5,17.6-22.2,18.1-37.7c0.5-11.4-2.7-22.6-9-32C454.1,744.5,448.9,741.3,442,741.2z M462.6,783.1c-0.4,14-5.9,25.5-16.3,34
			c-4.6,3.8-9.8,5.3-13.9,4.1c-4-1.1-6.9-4.6-8.9-10.4c-1.9-6.1-2.8-12.4-2.9-18.7c-0.1-6.7,0.5-13.3,1.9-19.9
			c2.9-13.2,7.3-22.7,19.3-26.1h0.2c5.1,0.1,9,2.5,12.5,7.8C460.2,762.6,463,772.8,462.6,783.1L462.6,783.1z"/>
		<path style="fill:#2B2B2B;" d="M92.9,765c2.5-7.5,1.2-15.4-3.8-22.8c-5.6-8.3-14.6-12.7-27.6-13.5c-13.5-0.8-26.3,2.6-39.3,6.6
			c-7.2,2.2-14.7,3-22.2,2.2v2c7.7,0.7,15.4-0.1,22.8-2.3c12.9-3.9,25.5-7.3,38.6-6.5c12.5,0.8,20.8,4.8,26.1,12.7
			c3.2,4.8,6.4,12.3,3.5,21c-2.5,7.4-8.2,11.4-18.7,13.2c-7.7,1.3-15.6,2.1-23.3,3c-6.3,0.7-12.8,1.4-19.2,2.3
			c-8.3,1.2-16.9,2.5-24.7,5.7l-2.7,1.1l-2.5,1v2.2l3.2-1.3l2.8-1.1c7.5-3.1,16-4.3,24.2-5.5c6.3-0.9,12.8-1.6,19.1-2.3
			c7.7-0.8,15.6-1.7,23.4-3C79.6,778.3,89.4,775.6,92.9,765z"/>
		<path style="fill:#2B2B2B;" d="M83.6,798.2c-4.5-0.6-8.2-1-11.7-1.2c-0.6,0-1,0.4-1.1,0.9c0,0,0,0,0,0c0,0.6,0.4,1,0.9,1.1
			c0,0,0,0,0,0c3.5,0.2,7.2,0.6,11.6,1.2h0.3h0.1c0.6,0,1-0.4,1.1-0.9c0-0.6-0.4-1-0.9-1.1L83.6,798.2z"/>
		<path style="fill:#2B2B2B;" d="M78.4,708.8h4.8c0.6,0,1-0.4,1-1s-0.4-1-1-1l0,0c-4,0-8,0-12,0l0,0c-0.6,0-1,0.4-1,1s0.4,1,1,1
			C73.6,708.7,76,708.8,78.4,708.8z"/>
		<path style="fill:#2B2B2B;" d="M139.3,707.7c0.5,0.3,1.1,0.1,1.4-0.3c1-1.6,1.8-3.2,2.6-4.8c0.5-1,0.8-2.1,0.8-3.2
			c0-1.7-0.9-3.2-2.3-4c-0.5-0.3-1.1-0.1-1.4,0.4c-0.3,0.5-0.1,1.1,0.4,1.4c0.8,0.4,1.3,1.3,1.3,2.2c0,0.8-0.2,1.6-0.6,2.3
			c-0.7,1.5-1.6,3.1-2.5,4.6C138.7,706.8,138.8,707.4,139.3,707.7z"/>
		<path style="fill:#2B2B2B;" d="M123.6,762.2c0-0.5-0.5-1-1.1-0.9c-0.5,0-1,0.5-0.9,1.1c0.1,2.1,0.3,4.1,0.4,6.2
			c0.1,1.9,0.3,3.8,0.4,5.8c0,0.5,0.5,0.9,1,0.9h0.1c0.5,0,1-0.5,0.9-1.1c-0.1-1.9-0.3-3.8-0.4-5.8
			C123.8,766.4,123.7,764.3,123.6,762.2z"/>
		<path style="fill:#2B2B2B;" d="M23.2,709.9L23.2,709.9l12-0.5c0.6,0,1-0.5,1-1c0-0.6-0.5-1-1-1l-12,0.5c-0.6,0-1,0.4-1,1
			S22.6,709.9,23.2,709.9L23.2,709.9z"/>
		<path style="fill:#2B2B2B;" d="M47.2,708.9l4.8-0.1c2.2,0,4.5-0.1,7.2-0.1c0.6,0,1-0.4,1-1s-0.4-1-1-1l0,0c-2.6,0-5,0-7.2,0.1
			l-4.8,0.1c-0.6,0-1,0.4-1,1S46.6,708.9,47.2,708.9L47.2,708.9z"/>
		<path style="fill:#2B2B2B;" d="M49.8,797.7l-2.1,0.4c-0.6,0.1-1,0.5-0.9,1.1c0.1,0.6,0.5,1,1.1,0.9l0,0h0.2l2-0.4
			c3.2-0.5,6.5-0.9,9.7-1c0.6,0,1-0.4,1-1s-0.4-1-1-1C56.5,796.9,53.1,797.2,49.8,797.7z"/>
		<path style="fill:#2B2B2B;" d="M36,801.1c-3.8,1.2-7.6,2.6-11.3,4.2c-0.5,0.2-0.7,0.8-0.5,1.3s0.8,0.7,1.3,0.5
			c3.6-1.6,7.4-3,11.1-4.2c0.5-0.2,0.8-0.7,0.7-1.3C37.1,801.2,36.5,800.9,36,801.1L36,801.1L36,801.1z"/>
		<path style="fill:#2B2B2B;" d="M12.2,709.3c0-0.6-0.4-1-1-1l0,0c-4,0.1-7.7,0.2-11.2,0.2v2c3.5,0,7.2-0.1,11.2-0.2
			C11.8,710.2,12.2,709.8,12.2,709.3z"/>
		<path style="fill:#2B2B2B;" d="M123.4,737.4c-0.5-0.1-1.1,0.2-1.2,0.8c-0.8,3.8-1.2,7.7-1.2,11.7v0.5c0,0.6,0.4,1,1,1l0,0
			c0.6,0,1-0.4,1-1v-0.5c0-3.8,0.4-7.5,1.1-11.2C124.3,738.1,123.9,737.5,123.4,737.4z"/>
		<path style="fill:#2B2B2B;" d="M130.5,697.3c-0.2-0.5-0.7-0.8-1.2-0.7l0,0c-2.5,0.7-4.9,1.6-7.2,2.8c-1.3,0.7-2.6,1.3-4,1.9
			c-0.5,0.2-0.7,0.8-0.5,1.3c0.2,0.5,0.8,0.7,1.3,0.5c1.4-0.6,2.8-1.3,4.1-2c2.2-1.1,4.4-2,6.8-2.7
			C130.3,698.4,130.6,697.9,130.5,697.3C130.5,697.3,130.5,697.3,130.5,697.3z"/>
		<path style="fill:#2B2B2B;" d="M13.8,810.6c-2.7,1.5-5.5,3.1-8.3,4.8c-0.7,0.4-1.4,0.8-2.1,1.2c-0.5,0.3-0.7,0.9-0.4,1.3
			c0.3,0.5,0.9,0.7,1.3,0.4c0,0,0,0,0.1,0c0.7-0.4,1.4-0.8,2.1-1.3c2.8-1.7,5.5-3.3,8.2-4.8c0.5-0.3,0.7-0.9,0.4-1.4
			S14.2,810.3,13.8,810.6L13.8,810.6z"/>
		<path style="fill:#2B2B2B;" d="M117.9,795.9c-0.4,0.3-0.5,1-0.2,1.4s1,0.5,1.4,0.2c0,0,0,0,0.1-0.1c3.3-2.8,5.3-6.8,5.7-11.1
			c0-0.6-0.4-1-0.9-1.1s-1,0.4-1.1,0.9C122.6,789.9,120.8,793.4,117.9,795.9z"/>
		<path style="fill:#2B2B2B;" d="M95.5,801.9c2.5,0.3,4.9,0.4,7.4,0.5c1.6,0,3.2-0.1,4.8-0.2c0.5-0.1,0.9-0.5,0.9-1.1c0,0,0,0,0,0
			c-0.1-0.5-0.5-0.9-1.1-0.9c0,0,0,0,0,0c-3.9,0.4-7.9,0.3-11.8-0.2c-0.6-0.1-1,0.3-1.1,0.9C94.6,801.3,95,801.8,95.5,801.9
			L95.5,801.9z"/>
		<path style="fill:#2B2B2B;" d="M126.5,727.9c0.5,0.2,1.1,0,1.3-0.5c1.6-3.6,3.6-7,5.9-10.2c0.3-0.5,0.2-1.1-0.3-1.4
			c-0.4-0.3-1-0.2-1.3,0.2c-2.4,3.3-4.4,6.8-6.1,10.5C125.8,727.1,126,727.7,126.5,727.9C126.5,727.9,126.5,727.9,126.5,727.9z"/>
		<path style="fill:#2B2B2B;" d="M95.2,708.3c4-0.2,8-0.7,12-1.5c0.6-0.1,0.9-0.6,0.8-1.2s-0.6-0.9-1.2-0.8
			c-3.9,0.8-7.8,1.3-11.8,1.5c-0.6,0-1,0.5-1,1C94.1,707.9,94.6,708.3,95.2,708.3L95.2,708.3z"/>
		<path style="fill:#2B2B2B;" d="M459.8,1021.7L459.8,1021.7c5.2,0.9,8.5,4,9.7,8.9h2c-1-5.7-5.6-10.2-11.4-10.9c-0.1,0-0.3,0-0.4,0
			c-0.2-0.1-0.4,0-0.6,0c-7,3-8.3,4.4-8.2,10.8h2C452.8,1025,453.6,1024.3,459.8,1021.7z"/>
		<path style="fill:#2B2B2B;" d="M40.8,1017.3c-8.7-7.5-18.5-7.8-27.8-7.6h-0.2c-0.2,0-0.3,0-0.5,0C8,1010.6,3.9,1012,0,1014v2.3
			c4-2.1,8.3-3.7,12.7-4.6l0,0c0.1,0,0.2,0,0.3,0c8.9-0.2,18.3,0.1,26.4,7.1c3.6,3.1,6.2,7.2,7.4,11.8h2.1
			C47.6,1025.4,44.8,1020.7,40.8,1017.3z"/>
		<path style="fill:#2B2B2B;" d="M43.9,995.7c-9.8-4.2-20.1-4.1-30-4c-1.6,0-3.3,0-4.9,0c-0.1,0-0.2,0-0.2,0c-0.2,0-0.3,0-0.5,0
			c-1.8,0.5-3.7,0.9-5.5,1.3L0,993.7v2.1l3.2-0.7c1.8-0.4,3.7-0.8,5.6-1.3l0,0c0.1,0,0.2,0,0.2,0c1.6,0,3.3,0,4.9,0
			c9.7-0.1,19.8-0.1,29.2,3.9c11.6,4.9,18.7,11.3,22.3,20.1c1.7,4.2,2.7,8.5,3,13h2c-0.4-4.7-1.4-9.3-3.2-13.7
			C63.5,1007.6,56.1,1000.9,43.9,995.7z"/>
		<path style="fill:#2B2B2B;" d="M174.1,1026.5c-2.2-16.1,9-33,24.6-36.9l0,0h0.2c1.8,0.1,3.5,0.1,5.2,0.2c3.7-0.1,7.4,0.3,11.1,0.9
			c16,3.6,22.5,12.4,20.5,27.7c-0.5,4.1-1.5,8.2-2.8,12.1h2.1c1.3-3.8,2.2-7.8,2.7-11.8c2.1-16.3-5.1-26.1-22.1-29.9
			c-3.8-0.7-7.6-1.1-11.5-1c-1.7,0-3.5-0.1-5.2-0.2c-0.1,0-0.2,0-0.3,0c-0.2,0-0.3,0-0.5,0c-16.5,4.1-28.4,22-26.1,39.1
			c0.2,1.3,0.4,2.6,0.7,3.8h2C174.6,1029.3,174.3,1027.9,174.1,1026.5z"/>
		<path style="fill:#2B2B2B;" d="M86.7,1006.6c-1.7-11.5-11.2-17.4-19.3-21.2c-13.2-6.3-27.8-9.4-44.4-9.7c-0.1,0-0.2,0-0.3,0
			c-0.1,0-0.3,0-0.4,0c-0.6,0.1-1.3,0.2-1.9,0.4c-1.3,0.3-2.7,0.5-4,0.6c-5.9,0.3-11.3,0.8-16.4,1.4v2c5.2-0.6,10.6-1.1,16.5-1.4
			c1.4-0.1,2.8-0.3,4.2-0.6c0.6-0.1,1.2-0.2,1.9-0.3h0.1H23c16.3,0.2,30.6,3.3,43.6,9.5c7.7,3.6,16.7,9.2,18.2,19.7
			c1.1,7.9,1.6,15.8,1.4,23.7h2C88.3,1022.5,87.9,1014.5,86.7,1006.6z"/>
		<path style="fill:#2B2B2B;" d="M414.2,1016.7c-0.3-13.7,5.4-25.4,16.9-34.7c10.3-8.3,20.9-13.3,32.6-15.3h0.1h0.1l1.9,0.2l5.6,0.8
			c9.2,1.2,16.5,5.7,22.4,13.6c5.5,7.4,6.3,16.3,7.1,24.9l0.1,0.7c0.4,4.8,0.6,9.6,0.7,14.3c0.1,3.1,0.2,6.3,0.4,9.5h2
			c-0.2-3.2-0.3-6.4-0.4-9.5c-0.1-4.8-0.3-9.7-0.7-14.5l-0.1-0.7c-0.8-8.8-1.6-18-7.5-25.9c-6.2-8.3-13.9-13-23.7-14.3L466,965
			l-1.9-0.2c-0.1,0-0.3,0-0.4,0c-0.1,0-0.3,0-0.4,0c-12,2.1-22.9,7.2-33.5,15.7c-12.1,9.7-18,21.9-17.7,36.3c0.1,4.7,1,9.4,2.5,13.9
			h2.1C415.2,1026.1,414.3,1021.4,414.2,1016.7z"/>
		<path style="fill:#2B2B2B;" d="M808.7,765.6c4.7,8.4,12.3,12.5,22.8,12.2c7.1-0.2,14.1,0.1,21.2,1c7.2,1,14.2,4.6,20.8,10.9
			c12.2,11.7,23.1,22.7,33.4,33.9c11.4,12.4,23.3,25.2,41.7,28.5c4.6,0.8,9.3,1.4,13.8,1.9c1.8,0.2,3.5,0.4,5.3,0.6l1.5,0.2
			c2.5,0.3,5.1,0.7,7.7,0.8c14.9,0.8,28.5-1.3,41-6.6v-4.3c-12.4,5.5-26,7.8-40.8,6.9c-2.4-0.1-5-0.5-7.4-0.8l-1.5-0.2
			c-1.8-0.2-3.5-0.4-5.3-0.6c-4.5-0.5-9.1-1.1-13.6-1.9c-17.1-3.1-28.5-15.4-39.5-27.3c-10.4-11.2-21.3-22.4-33.6-34.1
			c-7.2-6.9-15-11-23-12c-7.2-0.9-14.5-1.3-21.8-1c-8.9,0.3-15.2-3-19.1-10.1c-5.3-9.6-11.4-20.5-16.4-31.4
			c-6.6-14.5-3.3-25.2,10.2-33.9c5.4-3.3,11-6.3,16.8-8.9c11.7-5.5,24.4-8,36.4-9.8c4.2-0.6,8.5-1,12.7-1.3c5.5-0.3,10.9-1,16.3-1.9
			c19.3-3.8,38.2-8.1,59.1-12.9c13.7-3.2,23.8-1.6,32.9,5.2c10.5,7.8,22.9,11.8,37.6,12v-4c-13.8-0.3-25.4-4-35.2-11.2
			c-10-7.4-21.5-9.2-36.2-5.8c-20.9,4.8-39.7,9.2-59,12.9c-5.3,0.9-10.6,1.5-15.9,1.9c-4.3,0.3-8.7,0.7-13,1.3
			c-12.3,1.9-25.4,4.4-37.5,10.1c-5.9,2.7-11.7,5.7-17.2,9.2c-15.1,9.6-19,22.7-11.7,38.9C797.2,745,803.3,756,808.7,765.6z"/>
		<path style="fill:#2B2B2B;" d="M710.1,212.1c7.9,1.1,15,5.5,19.5,12.1c7.6,11.4,15.3,25.3,14.3,41.7c-0.1,1.6-0.2,3.2-0.3,4.8
			c-0.2,3.6-0.4,7.4-0.8,11.1c-1.4,15.2,5.3,26.5,21,35.5c2.4,1.4,4.9,2.8,7.3,4.1c7.7,4.3,15.7,8.7,22.8,14
			c5.8,4.3,11.1,9.8,16.2,15.2c1.9,2,3.8,4,5.7,5.9c6.6,6.6,14.7,11.5,24.8,15c2.7,0.9,5.4,2,8,3.1c2.3,0.9,4.6,1.9,7,2.8
			c12.7,4.6,20.5,14.6,28,25.4c5.2,7.5,10,15.3,14.3,23.3c6.1,11.2,4.7,20.2-4.5,29.1l-4.1,4c-6,5.8-12.3,11.8-17.9,18.2
			c-7.1,7.8-10.6,18.3-9.5,28.8c1.1,9.8,5.3,19,12,26.3c6.5,7.2,16.6,7.4,25.1,0.7c4.5-3.7,8.7-7.7,12.7-11.9
			c1.2-1.2,2.4-2.4,3.6-3.6c1.9-1.9,3.8-4,5.6-5.9c3.2-3.7,6.7-7.1,10.4-10.2c7.7-6.2,15.9-6.6,24.5-1.4c5.2,3.3,10.3,7,15.2,10.8
			c2.4,1.8,4.8,3.7,7.3,5.5c9,6.6,18.5,13.5,29,21c4.2,3,7.8,6.8,10.6,11.2v-6.7c-2.4-2.9-5.2-5.5-8.3-7.7c-10.5-7.5-20-14.4-29-21
			c-2.4-1.8-4.8-3.6-7.2-5.4c-5-3.9-10.2-7.6-15.5-11c-10-6.1-20.1-5.6-29.1,1.7c-3.9,3.3-7.5,6.8-10.8,10.7
			c-1.8,1.9-3.6,3.9-5.5,5.8c-1.2,1.2-2.4,2.4-3.6,3.7c-3.9,4.1-8,8-12.3,11.6c-6.9,5.5-14.4,5.4-19.6-0.2
			c-11.4-12.5-17-33.3-2.5-49.7c5.5-6.2,11.7-12.2,17.7-17.9l4.1-4c10.4-10.1,12.1-21.2,5.3-33.9c-4.4-8.2-9.3-16.1-14.6-23.7
			c-7.5-10.8-16.1-21.8-29.9-26.8c-2.3-0.8-4.6-1.8-6.8-2.7c-2.7-1.1-5.4-2.3-8.2-3.2c-9.5-3.2-17.1-7.9-23.2-14
			c-1.9-1.9-3.8-3.9-5.7-5.9c-5.2-5.4-10.6-11.1-16.7-15.6c-7.3-5.4-15.4-9.9-23.2-14.2c-2.4-1.4-4.9-2.7-7.3-4.1
			c-14.2-8.1-20.3-18.2-19-31.6c0.3-3.8,0.6-7.6,0.8-11.2c0.1-1.6,0.2-3.2,0.3-4.8c1.1-17.6-7-32.2-15-44.1
			c-5.1-7.6-13.2-12.7-22.3-13.9c-3.7-0.5-7.5-0.8-11.2-1.1c-3.9-0.3-7.9-0.6-11.8-1.1c-5.7-0.9-11.2-2.3-16.6-4.4
			c-8.5-3.2-13.1-10.1-13-19.5c0.1-6.3,2.3-13.2,7-21c2.5-4.2,5.2-8.4,7.7-12.5c3.1-4.9,6.2-10,9.2-15.1
			c11.3-19.4,27.4-34.5,49.3-46.2c1.3-0.6,2.7-1,4.2-1.3l0.3-0.1c2.4-0.5,4.2-0.3,5.3,0.5s1.6,2.3,1.7,4.6c0.3,6.7,0.2,13.3,0,18.3
			c-0.2,6.1,2.4,8.1,4.6,8.7c2.6,0.7,6.1-1.6,7.8-3.3c6-6.1,13.9-9.3,23.7-9.6c11.7-0.3,23.6,0.7,35.2,1.7l2.1,0.2
			c7.5,0.6,15.1,1.6,22.5,2.5c3.8,0.5,7.7,1,11.5,1.4c11.7,1.3,19.7,6.6,24.4,15.9c3.9,7.7,6.3,16.2,7.6,26.8
			c1.7,14.3-1.1,25.6-8.8,35.6c-7.2,9.3-16.5,16.9-25.5,24.2c-2.9,2.4-5.9,4.8-8.8,7.3c-4.9,4-10.1,7.7-15.6,10.9
			c-2.8,1.8-5.8,3.7-8.6,5.6c-7.7,5.3-10.8,12-9.2,19.5c4.1,18.7,16.7,21.7,29.1,23c7.8,0.9,16.6,1.8,24.2,6.3
			c3.6,2.1,7.2,4.3,10.7,6.5c2.4,1.5,4.9,3,7.3,4.5c8.2,4.9,16.1,7.1,23.7,6.5c3.9-0.3,7.9-0.8,11.7-1.2c7-1,14.1-1.6,21.3-1.7
			c11,0.2,20.4,2.5,28.5,7c5,2.8,10,6,14.8,9.1s9.7,6.3,14.8,9.1c9.9,5.3,18.8,12.3,26.3,20.5V341c-7.2-7.2-15.5-13.3-24.4-18.2
			c-5-2.8-9.9-5.9-14.6-9s-9.9-6.4-15-9.3c-8.7-4.8-18.7-7.3-30.4-7.5c-7.3,0-14.5,0.6-21.7,1.6c-3.8,0.5-7.7,0.9-11.5,1.2
			c-6.7,0.5-13.8-1.5-21.3-6c-2.4-1.5-4.9-3-7.3-4.5c-3.5-2.2-7.1-4.4-10.7-6.5c-8.3-4.9-17.6-5.9-25.8-6.8
			c-14.1-1.6-22.4-5.2-25.6-19.9c-1.3-5.8,1.3-11,7.6-15.4c2.8-1.9,5.7-3.8,8.5-5.5c5.6-3.4,10.9-7.1,16-11.3
			c2.9-2.5,5.9-4.9,8.8-7.3c9.2-7.5,18.6-15.2,26.2-24.9c8.3-10.7,11.5-23.3,9.6-38.5c-1.3-11-3.9-20-8-28.1
			c-5.3-10.5-14.5-16.6-27.5-18.1c-3.8-0.4-7.6-0.9-11.4-1.4c-7.4-0.9-15-1.9-22.6-2.5l-2.1-0.2c-11.7-1-23.8-2-35.6-1.7
			c-10.8,0.3-19.8,3.9-26.5,10.8c-1.3,1.4-3.3,2.4-3.9,2.3c-1.2-0.3-1.8-1.9-1.7-4.8c0.2-5.1,0.3-11.8,0-18.7
			c-0.2-3.5-1.3-6-3.3-7.6s-5-2-8.6-1.2l-0.3,0.1c-1.8,0.3-3.6,0.9-5.3,1.7c-22.5,12.1-39.1,27.7-50.8,47.7
			c-2.9,5-6.1,10.1-9.2,14.9c-2.6,4.1-5.2,8.3-7.8,12.6c-5,8.4-7.5,15.9-7.6,23c-0.1,11,5.6,19.5,15.6,23.3
			c5.6,2.1,11.4,3.7,17.4,4.6c4,0.6,8.1,0.9,12.1,1.2C702.8,211.4,706.5,211.6,710.1,212.1z"/>
		<path style="fill:#2B2B2B;" d="M569.5,992.4c14.6-17,43-15.8,43.3-15.7c4.2,0,7.5-1.4,9.5-4s2.2-6.2,0.9-10.1
			c-0.7-1.9-1.6-3.8-2.6-5.5c-0.3-0.6-0.6-1.2-1-1.8c-1.2-2.3-2.5-4.7-3.8-7c-2.8-4.8-5.3-9.8-7.5-14.9c-3.9-9.9-7.1-20.2-10.3-30.2
			l-1.2-3.9c-1.6-8.9-4.7-17.5-9.1-25.4c-9.6-17-24.2-26.4-42.2-27.2c-21.3-0.9-38,8.5-50.8,28.9c-2.3,3.7-5,7.3-7.6,10.8
			c-1.8,2.3-3.5,4.8-5.2,7.2c-4.8,6.9-11.9,10.8-21.6,12c-19.3,2.4-32.9,10.5-42.6,25.4c-7.2,11-15.5,21.7-23.4,32.1
			c-3.4,4.4-6.9,9-10.3,13.5l-2.6,3.4c-3.7,5-7.5,10.1-11.4,15c-7.9,10-17.6,14.9-29.7,14.9h-0.7h-1.4c-9.5-0.1-18.4-0.3-26.9-3.5
			c-11.2-4.3-19.5-12.5-26.8-20.8c-9.1-10.4-17.6-19.5-28.9-26c-9.3-5.3-19.7-8.3-30.4-8.7c-4.8-0.2-9.5-0.5-14.3-0.7
			c-8.2-0.4-16.8-0.8-25.2-1.3c-17.9-1.1-32.9,6.1-45.8,22.2c-2.8,3.5-6,6.8-9.1,10.1c-2.6,2.7-5.3,5.5-7.8,8.5
			c-9.2,10.9-15,24.4-17.9,41.2h4.1c2.7-15.8,8.2-28.4,16.8-38.6c2.4-2.8,5.1-5.6,7.6-8.3c3.1-3.3,6.4-6.7,9.3-10.3
			c12.2-15.2,25.6-21.8,42.4-20.7c8.4,0.5,17,0.9,25.2,1.3c4.8,0.2,9.5,0.5,14.3,0.7c10.1,0.4,19.9,3.2,28.6,8.2
			c10.8,6.2,19,15.1,27.9,25.2c7.6,8.7,16.4,17.3,28.4,21.9c9.2,3.5,18.9,3.7,28.3,3.8h1.4h0.8c13.3,0,24.1-5.4,32.8-16.4
			c3.9-5,7.8-10.1,11.5-15.1l2.6-3.4c3.4-4.5,6.9-9,10.2-13.4c8-10.4,16.3-21.2,23.6-32.3c9-13.8,21.7-21.3,39.8-23.6
			c10.8-1.4,19-6,24.4-13.7c1.7-2.4,3.5-4.8,5.2-7.1c2.6-3.5,5.4-7.2,7.8-11c12-19.1,27.5-27.9,47.3-27c16.8,0.7,29.8,9.1,38.8,25
			c4.2,7.6,7.2,15.7,8.7,24.3c0,0.1,0,0.2,0.1,0.3l1.3,4.1c3.2,10.1,6.4,20.5,10.4,30.5c2.2,5.3,4.8,10.4,7.7,15.4
			c1.2,2.2,2.5,4.6,3.7,6.9c0.3,0.6,0.7,1.2,1,1.8c0.9,1.6,1.7,3.2,2.3,4.9c0.9,2.6,0.8,4.9-0.4,6.4s-3.2,2.4-5.9,2.4H613
			c-1.2-0.1-30.6-1.4-46.5,17.1c-8.6,10-11.5,23.7-8.7,40.8h4C559.1,1014.4,561.7,1001.5,569.5,992.4z"/>
		<path style="fill:#2B2B2B;" d="M697.1,1010c5.9-26,21.8-45,47.1-56.5c9.4-4.3,20-7.7,33.4-10.8l0,0c0.1,0,0.2,0,0.2,0h1.9
			c1.3,0,2.7,0,4.1,0c4,0.2,6.7,2.3,6.9,5.6c0.2,4.3,0,8.6-0.4,12.8c-0.6,6.4-1.4,14-2.5,21.4c-0.3,1.8-0.5,3.6-0.8,5.5
			c-1,7.9-2.4,15.7-4.3,23.4c-2.2,9-9.2,16-18.1,18.2c-1.3,0.3-2.6,0.7-3.9,1h7.4c8.3-3.1,14.5-10.1,16.6-18.7
			c1.9-7.8,3.4-15.7,4.4-23.6c0.3-1.8,0.5-3.6,0.8-5.5c1.1-7.5,1.9-15.1,2.5-21.5c0.5-4.4,0.6-8.8,0.4-13.2
			c-0.3-4.2-3.8-7.2-8.9-7.4c-1.4,0-2.8,0-4.2,0h-1.9c-0.1,0-0.2,0-0.2,0c-0.2,0-0.3,0-0.5,0c-13.5,3.2-24.2,6.6-33.7,11
			c-25.9,11.8-42.2,31.3-48.2,57.9c-1.3,5.6-1.8,13.6,2.5,21.1h2.3C695.4,1023.4,695.9,1015.5,697.1,1010z"/>
		<path style="fill:#2B2B2B;" d="M984.6,910.4c-4.9,12.7-0.9,23.6,11.3,30.7c6.6,3.9,14.1,5.9,21.7,5.8h0.3v-2
			c-7.4,0.2-14.6-1.7-21-5.5c-11.4-6.6-15-16.4-10.4-28.3c2.7-7.1,8.7-12.2,18.3-15.4c4.2-1.4,8.7-2.5,13.1-3.5v-2
			c-4.5,1-9.2,2.1-13.7,3.6C994.1,897.2,987.5,902.8,984.6,910.4z"/>
		<path style="fill:#2B2B2B;" d="M674.4,906.8c0.1,0.7,0.8,1.2,1.5,1.2h0.3c2.1-0.4,4.1-0.9,6.1-1.5l5.6-1.7c0.8-0.3,1.2-1.1,1-1.9
			s-1.1-1.2-1.9-1l-5.6,1.7c-1.9,0.6-3.8,1-5.8,1.4C674.8,905.2,674.3,906,674.4,906.8z"/>
		<path style="fill:#2B2B2B;" d="M697,837.7l-3.7-0.2l-4.3-0.3c-0.1,0-0.2,0-0.3,0c-0.2,0-0.3,0-0.5,0c-4,0.7-7.9,1.7-11.8,2.8
			c-0.8,0.2-1.3,1-1,1.8c0.2,0.8,1,1.3,1.8,1c0,0,0.1,0,0.1,0c3.8-1.1,7.6-2.1,11.5-2.8h0.2l4.4,0.3l3.7,0.2c0.8,0,1.5-0.6,1.6-1.4
			C698.5,838.5,697.9,837.8,697,837.7C697,837.7,697,837.7,697,837.7z"/>
		<path style="fill:#2B2B2B;" d="M697.5,900.3c0.2,0.8,1.1,1.2,1.9,1c0,0,0,0,0,0c3.8-1.2,7.6-2.4,11.5-3.6c0.8-0.3,1.2-1.1,1-1.9
			c-0.3-0.8-1.1-1.2-1.9-1c-3.8,1.2-7.6,2.4-11.4,3.6C697.7,898.7,697.3,899.5,697.5,900.3z"/>
		<path style="fill:#2B2B2B;" d="M721,840.3l-0.4,0c-3.6-0.5-7.5-1-11.5-1.4c-0.8-0.1-1.6,0.5-1.7,1.3c-0.1,0.8,0.5,1.6,1.3,1.7
			c3.9,0.4,7.8,0.9,11.5,1.4l0.4,0h0.2c0.8,0.1,1.5-0.6,1.6-1.4C722.4,841,721.8,840.3,721,840.3L721,840.3z"/>
		<path style="fill:#2B2B2B;" d="M720.4,893.1c0.2,0.8,1.1,1.2,1.9,1c0,0,0,0,0,0c3.8-1.2,7.6-2.5,11.4-3.8c0.8-0.3,1.2-1.1,0.9-1.9
			s-1.1-1.2-1.9-0.9c-3.8,1.3-7.6,2.5-11.4,3.8C720.5,891.5,720.1,892.3,720.4,893.1z"/>
		<path style="fill:#2B2B2B;" d="M751.1,874.5c-2,3.2-4.7,5.9-7.9,8c-0.7,0.4-0.9,1.4-0.5,2.1c0.4,0.7,1.4,0.9,2.1,0.5
			c0,0,0.1,0,0.1-0.1c3.5-2.3,6.5-5.4,8.8-9c0.4-0.7,0.2-1.6-0.5-2.1c-0.7-0.4-1.6-0.2-2.1,0.5C751.1,874.4,751.1,874.4,751.1,874.5
			L751.1,874.5z"/>
		<path style="fill:#2B2B2B;" d="M745,844c-0.8-0.3-1.5-0.5-2.3-0.6c-2.8-0.6-5.9-1.2-9.8-1.7c-0.8-0.1-1.6,0.5-1.7,1.3
			s0.5,1.6,1.3,1.7c3.8,0.5,6.8,1,9.5,1.6c0.7,0.2,1.3,0.3,2,0.6c0.8,0.3,1.6-0.1,1.9-0.9C746.2,845.2,745.8,844.3,745,844L745,844z
			"/>
		<path style="fill:#2B2B2B;" d="M641.1,880.2c-0.8,0.1-1.4,0.9-1.3,1.7c0.6,4.2,1.9,8.2,4,11.8c0.4,0.7,1.3,1,2,0.6s1-1.3,0.6-2
			l0,0c-1.9-3.3-3.1-7-3.6-10.8C642.8,880.6,642,880,641.1,880.2C641.2,880.1,641.1,880.1,641.1,880.2z"/>
		<path style="fill:#2B2B2B;" d="M756.2,865.5h0.2c0.8,0,1.4-0.6,1.5-1.3c0.1-0.8,0.1-1.5,0.1-2.3c0-3.6-1-7.1-2.9-10.1
			c-0.5-0.7-1.4-0.9-2.1-0.4c-0.7,0.4-0.9,1.3-0.4,2c1.6,2.6,2.4,5.5,2.4,8.5c0,0.7,0,1.3-0.1,2
			C754.8,864.7,755.4,865.4,756.2,865.5z"/>
		<path style="fill:#2B2B2B;" d="M654.7,852.4c0.3,0,0.5-0.1,0.8-0.2c0.7-0.4,1.4-0.8,2.1-1.2c2.8-1.5,5.7-2.8,8.5-4
			c0.8-0.3,1.2-1.2,0.9-1.9c-0.3-0.8-1.2-1.2-1.9-0.9c0,0-0.1,0-0.1,0c-2.9,1.2-5.8,2.6-8.7,4.1c-0.8,0.4-1.5,0.8-2.3,1.3
			c-0.7,0.4-0.9,1.3-0.5,2.1C653.7,852.1,654.1,852.4,654.7,852.4L654.7,852.4z"/>
		<path style="fill:#2B2B2B;" d="M651.9,900.9c-0.5,0.7-0.3,1.6,0.3,2.1c0,0,0,0,0,0c0.6,0.5,1.3,0.9,2,1.3c2.9,1.8,6.1,3.1,9.5,3.8
			h0.3c0.8,0.1,1.6-0.5,1.6-1.4s-0.5-1.6-1.4-1.6c-3-0.6-5.9-1.7-8.5-3.3c-0.6-0.4-1.2-0.8-1.8-1.2
			C653.4,900,652.4,900.2,651.9,900.9C651.9,900.9,651.9,900.9,651.9,900.9z"/>
		<path style="fill:#2B2B2B;" d="M646.6,857.5c-0.7-0.5-1.6-0.4-2.1,0.3c-2.6,3.4-4.2,7.4-4.8,11.7c-0.1,0.8,0.5,1.6,1.3,1.7h0.2
			c0.7,0,1.4-0.6,1.5-1.3c0.5-3.7,1.9-7.3,4.2-10.3C647.3,858.9,647.2,858,646.6,857.5z"/>
		<path style="fill:#2B2B2B;" d="M942.1,730.7c-0.2,0-0.3,0-0.5,0c-0.2-0.1-0.4-0.1-0.6,0c-9.5,3-11.9,7.7-9,17.2
			c3.5,11.6,9.5,20.4,17.8,26c5.2,3.3,11.6,4.1,17.4,1.9c4.5-1.6,8-5.3,9.1-9.9c1.9-7.3-1.9-12.6-6.3-17.8
			C962.9,739.4,953.1,733.3,942.1,730.7z M974.4,765.4c-1,4-4,7.2-7.9,8.6c-5.1,1.9-10.9,1.3-15.5-1.7c-8-5.4-13.6-13.6-17-24.9
			c-2.6-8.4-0.7-12,7.7-14.7l0,0c10.6,2.5,20,8.4,26.9,16.8C972.5,754.2,976,759,974.4,765.4L974.4,765.4z"/>
		<path style="fill:#2B2B2B;" d="M1017.8,790.7c-13.9,5.7-28.3,11.4-43.6,13.5c-19.6,2.7-33.7-2.4-42.9-15.7
			c-6.6-9.5-12-20.1-16.5-29.3c-3.9-8.1-8.5-18.9-9.2-31c-0.5-11,3.3-17.1,13-20.5c1.8-0.6,3.5-1,5.3-1.4c0.9-0.2,1.7-0.4,2.6-0.6
			l0,0h0.2c9.3,0.7,16.1,2.4,22.2,5.4c7,3.5,14.2,6.9,21.1,10.2s14.2,6.8,21.3,10.3c8.2,4.2,17.2,6.9,26.4,7.9v-2
			c-8.9-1-17.5-3.6-25.5-7.7c-7.1-3.5-14.3-7-21.3-10.3s-14.1-6.8-21.1-10.2c-6.3-3.1-13.3-4.8-22.9-5.6c-0.1,0-0.2,0-0.3,0
			c-0.2,0-0.3,0-0.5,0c-0.8,0.2-1.7,0.4-2.5,0.6c-1.9,0.4-3.7,0.9-5.6,1.5c-10.5,3.7-14.9,10.6-14.3,22.5
			c0.6,12.5,5.3,23.6,9.3,31.8c4.5,9.3,9.9,20,16.6,29.6c8,11.5,19.5,17.2,34.8,17.2c3.3,0,6.7-0.3,10-0.7
			c15.2-2.1,29.5-7.7,43.3-13.3L1017.8,790.7z"/>
		<path style="fill:#2B2B2B;" d="M1010.7,821.9c-3.7,1.5-7.4,2.7-11.3,3.6c-0.6,0.1-0.9,0.6-0.9,1.1s0.6,0.9,1.1,0.9h0.2
			c3.9-0.9,7.8-2.2,11.6-3.7c0.5-0.2,0.7-0.8,0.5-1.3C1011.7,822,1011.1,821.8,1010.7,821.9L1010.7,821.9z"/>
		<path style="fill:#2B2B2B;" d="M931,815.7c-0.4-0.4-1.1-0.3-1.4,0.1c-0.4,0.4-0.3,1.1,0.1,1.4c3.2,2.6,6.6,4.8,10.3,6.5
			c0.5,0.2,1.1-0.1,1.3-0.6c0.2-0.4,0-0.9-0.4-1.2C937.4,820.3,934.1,818.2,931,815.7z"/>
		<path style="fill:#2B2B2B;" d="M913.7,797.9c-0.4,0.3-0.5,0.9-0.2,1.4c0,0,0,0,0,0c2.4,3.3,4.9,6.4,7.6,9.4c0.4,0.4,1,0.4,1.4,0.1
			c0.4-0.4,0.4-1,0.1-1.4c-2.6-3-5.1-6-7.5-9.2C914.8,797.7,914.2,797.6,913.7,797.9C913.7,797.9,913.7,797.9,913.7,797.9z"/>
		<path style="fill:#2B2B2B;" d="M980.9,827.7h-0.5c-1.5,0-3,0-4.5-0.1c-0.6,0-1,0.4-1,1s0.4,1,1,1c1.5,0.1,3.1,0.1,4.6,0.1h0.6
			c2.3,0,4.7-0.1,7-0.3c0.6,0,1-0.5,0.9-1.1c0,0,0,0,0,0c0-0.6-0.5-1-1.1-0.9c0,0,0,0,0,0C985.5,827.6,983.2,827.7,980.9,827.7z"/>
		<path style="fill:#2B2B2B;" d="M960.4,826.7c-2.8-0.2-5.6-0.5-8.3-1.1c-0.6-0.1-1.1,0.2-1.2,0.8s0.2,1.1,0.8,1.2l0,0
			c2.8,0.6,5.7,0.9,8.6,1.1l3.4,0.2h0.1c0.6,0,1-0.4,1-1c0-0.6-0.4-1-1-1L960.4,826.7z"/>
		<path style="fill:#2B2B2B;" d="M891.9,756.4c-0.2-0.5-0.9-0.7-1.3-0.4c-0.5,0.2-0.7,0.9-0.4,1.3c1.3,2.6,2.6,5.3,3.9,8l1.4,2.8
			c0.2,0.5,0.8,0.7,1.3,0.5c0.5-0.2,0.7-0.8,0.5-1.3l-1.4-2.8C894.5,761.7,893.2,759.1,891.9,756.4z"/>
		<path style="fill:#2B2B2B;" d="M883.1,740.3c-1-1.7-2.1-3.2-3.3-4.8c-0.3-0.4-1-0.5-1.4-0.1c-0.4,0.3-0.5,1-0.2,1.4
			c1.2,1.4,2.2,3,3.2,4.5c1,1.7,2.1,3.5,3.2,5.4c0.3,0.5,0.9,0.6,1.4,0.4s0.6-0.9,0.4-1.4C885.2,743.8,884.1,742,883.1,740.3z"/>
		<path style="fill:#2B2B2B;" d="M901.3,777.5c-0.5,0.3-0.7,0.9-0.4,1.3c2,3.8,4,7.2,6,10.5c0.2,0.5,0.8,0.8,1.3,0.5
			c0.5-0.2,0.8-0.8,0.5-1.3c0-0.1-0.1-0.2-0.1-0.2c-2-3.2-3.9-6.6-5.9-10.4C902.4,777.4,901.8,777.2,901.3,777.5
			C901.3,777.4,901.3,777.4,901.3,777.5z"/>
		<path style="fill:#2B2B2B;" d="M876,701.5c-0.2-0.5-0.8-0.8-1.3-0.6c0,0,0,0,0,0c-3.7,1.4-7.5,2.6-11.3,3.6
			c-0.5,0.1-0.9,0.7-0.7,1.2c0.1,0.5,0.7,0.9,1.2,0.7c3.9-1,7.8-2.2,11.5-3.6C875.9,702.6,876.2,702,876,701.5
			C876,701.5,876,701.5,876,701.5z"/>
		<path style="fill:#2B2B2B;" d="M852,708.7c0.6-0.1,0.9-0.6,0.9-1.1s-0.6-0.9-1.1-0.9l-0.4,0.1c-3.6,0.5-7.7,1.4-11.2,4
			c-0.4,0.3-0.5,1-0.2,1.4c0.3,0.4,1,0.5,1.4,0.2c3.1-2.4,7-3.2,10.3-3.6L852,708.7z"/>
		<path style="fill:#2B2B2B;" d="M860.5,725.5L860.5,725.5c-0.8,0-1.6,0-2.4,0.1c-0.5,0.1-1,0.5-0.9,1.1c0.1,0.5,0.5,1,1.1,0.9
			c0.8-0.1,1.6-0.1,2.3-0.1c3.1,0,6.1,0.7,8.9,2c0.5,0.2,1.1,0,1.3-0.5c0.2-0.5,0-1.1-0.5-1.3l0,0
			C867.2,726.3,863.9,725.5,860.5,725.5z"/>
		<path style="fill:#2B2B2B;" d="M841.7,725.1c-2.4-0.8-4-2.1-4.7-3.7c-0.2-0.5-0.8-0.7-1.3-0.5c-0.5,0.2-0.7,0.8-0.5,1.3
			c0.9,2.1,3,3.8,5.9,4.8c1.6,0.6,3.3,1,5,1.4h0.2c0.6,0.1,1-0.3,1.1-0.9c0.1-0.6-0.3-1-0.9-1.1
			C844.9,726.1,843.3,725.6,841.7,725.1z"/>
		<path style="fill:#2B2B2B;" d="M1016.1,709.5c0,0.6,0.4,1,1,1h0.7v-2h-0.7C1016.5,708.6,1016.1,709,1016.1,709.5z"/>
		<path style="fill:#2B2B2B;" d="M898.1,692.2c-0.2-0.5-0.7-0.8-1.3-0.6c0,0,0,0,0,0c-3.8,1.2-7.6,2.7-11.3,4.4
			c-0.5,0.2-0.7,0.8-0.5,1.3c0.2,0.4,0.5,0.6,0.9,0.6c0.1,0,0.3,0,0.4-0.1c3.6-1.6,7.3-3.1,11.1-4.3
			C898,693.3,898.3,692.8,898.1,692.2C898.1,692.3,898.1,692.2,898.1,692.2z"/>
		<path style="fill:#2B2B2B;" d="M908.6,689.9c0.1,0,0.2,0,0.3,0c2.5-0.6,5-1.1,7.6-1.5c1.4-0.2,2.7-0.4,4.1-0.7
			c0.6-0.1,0.9-0.6,0.8-1.2s-0.6-0.9-1.2-0.8c-1.3,0.3-2.7,0.5-4,0.7c-2.6,0.4-5.2,0.9-7.8,1.6c-0.6,0.1-0.9,0.6-0.9,1.1
			S908.1,690,908.6,689.9L908.6,689.9z"/>
		<path style="fill:#2B2B2B;" d="M927.2,688c3.1,0,6.3,0.2,9.4,0.6h0.1c0.6,0,1-0.4,1.1-0.9s-0.4-1-0.9-1.1
			c-3.2-0.4-6.4-0.6-9.6-0.6l-2.5-0.1l0,0c-0.6,0-1,0.4-1,1s0.4,1,1,1L927.2,688z"/>
		<path style="fill:#2B2B2B;" d="M959.2,695.7c0.1,0.1,0.2,0.1,0.4,0.1c0.6,0,1-0.5,1-1c0-0.4-0.2-0.8-0.6-0.9
			c-4.1-1.7-7.8-3.1-11.3-4.2c-0.5-0.2-1.1,0.1-1.3,0.6s0.1,1.1,0.6,1.3l0,0C951.5,692.7,955.1,694,959.2,695.7z"/>
		<path style="fill:#2B2B2B;" d="M993.1,708.1c3.9,0.9,7.9,1.6,12,2h0.1c0.6,0,1-0.4,1-1s-0.4-1-1-1c-3.9-0.4-7.9-1-11.7-1.9
			c-0.6-0.1-1.1,0.2-1.2,0.8C992.1,707.5,992.5,708,993.1,708.1L993.1,708.1z"/>
		<path style="fill:#2B2B2B;" d="M981.4,704.8c0.5,0.2,1.1-0.1,1.3-0.6s-0.1-1.1-0.6-1.3c-3.6-1.2-7.4-2.7-11.1-4.3
			c-0.5-0.2-1.1,0-1.3,0.4c-0.2,0.5,0,1.1,0.4,1.3c0,0,0.1,0,0.1,0C973.9,702.1,977.7,703.6,981.4,704.8z"/>
		<path style="fill:#2B2B2B;" d="M998.8,1030.6h2.5c4.4-5.8,10-10.7,16.5-14.3v-2.3C1010.3,1018.1,1003.8,1023.7,998.8,1030.6z"/>
		<path style="fill:#2B2B2B;" d="M967.6,1030.6h2.3c9-15,22.9-26.4,39.3-32.4c2.8-1,5.7-1.8,8.5-2.5v-2.1
			C996.6,998.4,978.4,1011.8,967.6,1030.6L967.6,1030.6z"/>
		<path style="fill:#2B2B2B;" d="M761.8,993.2c0.2-3.3-0.1-6.6-1.1-9.8c-2.2-6.2-8-6-12.6-5.7h-0.3h-0.2c-0.2-0.1-0.4,0-0.7,0
			c-7.8,3.4-11.5,8.5-11.5,15.4c0.1,7,5.7,12.6,12.7,12.5c0.1,0,0.2,0,0.2,0C755.3,1005.7,761.5,999.9,761.8,993.2z M737.4,993.2
			c0-6.1,3.2-10.4,10.2-13.5c0.1,0,0.2,0,0.3,0h0.3c4.6-0.2,8.9-0.4,10.6,4.4c0.9,2.9,1.2,6,1,9.1c-0.2,5.5-5.7,10.5-11.4,10.5
			c-5.9,0.2-10.8-4.4-10.9-10.3C737.4,993.4,737.4,993.3,737.4,993.2L737.4,993.2z"/>
		<path style="fill:#2B2B2B;" d="M955.8,1006.1c-8.8,8.9-18.3,17.1-28.4,24.5h3.4c9.4-7.1,18.2-14.8,26.5-23.1
			c6.2-6.2,14.6-13.8,25.1-18.3s21.8-7.4,35.5-9.1v-2c-14,1.7-25.6,4.7-36.3,9.3S962,999.8,955.8,1006.1z"/>
		<path style="fill:#2B2B2B;" d="M542.5,934c1,0.1,2,0.2,3,0.2c8.7,0,14.5-5.7,15.8-11.7c0.7-3.4-0.6-7.4-3.4-10.7
			c-3.2-3.8-8-5.9-13-5.7c-9.3,0.4-10.8,5.3-12.1,9.2c-0.2,0.5-0.3,0.9-0.5,1.4c-1.3,3.9-0.9,8.1,1.1,11.7
			C535.4,931.5,538.8,933.6,542.5,934z M534.3,917.3c0.2-0.5,0.3-1,0.5-1.5c1.2-3.8,2.4-7.5,10.3-7.8h0.6c4.2,0,8.1,1.9,10.8,5
			c2.4,2.8,3.5,6.2,3,9c-1.2,5.8-7.3,11.2-16.5,9.9c-3.1-0.3-5.9-2.1-7.6-4.7C533.5,924.3,533.1,920.7,534.3,917.3L534.3,917.3z"/>
		<path style="fill:#2B2B2B;" d="M618.1,1030.6h2.8c0.8-0.7,1.6-1.3,2.5-1.8c2.9-1.4,6.3-1.1,10.1,0.8c0.6,0.3,1.3,0.7,1.9,1h3.7
			c-1.5-1.1-3-2-4.7-2.8c-4.4-2.2-8.4-2.5-11.9-0.8C620.8,1027.9,619.3,1029.1,618.1,1030.6z"/>
		<path style="fill:#2B2B2B;" d="M51.2,659.1c5,0,9.9-0.2,14.6-0.4c23.3-1.3,49.3-5.5,58.1-9.4c7.3-3.2,11.7-8.3,13.1-15
			c2.2-10.5-3.7-24.7-15.8-38c-16.7-18.3-68.8,10.9-71.1,12.2c-0.9,0.5-22.7,13-26.5,16c-4.6,3.7-18.7,14.8-13,24.3
			C15.7,656.9,33.4,659.1,51.2,659.1z M26.9,628.5c2.9-2.3,19.7-12.1,25.9-15.6c14.1-8,53.3-25.9,64.9-13.2
			c10.9,11.9,16.4,24.8,14.6,33.5c-1.1,5-4.5,8.9-10.3,11.4c-7.3,3.2-31.7,7.6-56.4,9c-27.9,1.5-46.8-1.2-50.5-7.4
			C12.9,642.6,17.1,636.3,26.9,628.5z"/>
		<path style="fill:#2B2B2B;" d="M391.1,631.2c0.2-3.3,0.5-6.7,0.9-10.3c0.6-4.8-0.6-8.6-3.7-11.3c-9-7.7-30.8-1.7-31.8-1.4
			l-0.3,0.1c-1.1,0.5-26.8,12.2-27.3,31.3c-0.1,5.4,1.1,9.4,3.9,12.2c4,4,10.3,4.8,18.4,4.8c2.6,0,5.4-0.1,8.2-0.2
			c3.2-0.1,6.5-0.2,10-0.2C389.3,656.1,390.1,645.6,391.1,631.2z M369.5,652.1c-3.5,0-6.9,0.1-10.1,0.2c-11,0.3-19.7,0.6-23.7-3.4
			c-1.9-1.9-2.8-4.9-2.7-9.2c0.4-15.9,22.9-26.8,24.8-27.7c5.9-1.6,21.9-4.6,27.9,0.6c2,1.7,2.8,4.3,2.3,7.7
			c-0.5,3.8-0.7,7.4-1,10.6C386.1,645.5,385.6,652.1,369.5,652.1L369.5,652.1z"/>
		<path style="fill:#2B2B2B;" d="M775.2,634.8c8.9,13.8,21.6,20.6,38.9,20.6c4.3,0,8.5-0.4,12.7-1.1c19.8-3.2,41.4-13.3,58.8-21.4
			l0.2-0.1c7.5-3.5,12-8.3,13.4-14.2c3.3-13.7-10.4-31.4-24.9-50.1c-7.7-9.9-15.7-20.2-21.4-30.2c-6.2-10.9-13.9-16.9-22.9-17.9
			c-16.8-1.8-33.8,14.2-48.1,30.1c-15.5,17.1-24.5,29.5-24.9,42.2C756.5,604.9,763.6,616.7,775.2,634.8z M785.5,554
			c8.2-9,27.3-30.2,43.9-28.5c7.3,0.8,13.7,6,19.1,15.4c5.9,10.3,14,20.7,21.8,30.8c13.8,17.7,26.8,34.5,24,45.8
			c-1.1,4.4-4.6,8-10.7,10.8l-0.2,0.1c-34.6,16.1-81.9,38.2-104,3.7C756.5,596.3,753.6,589.4,785.5,554z"/>
		<path style="fill:#2B2B2B;" d="M755.4,451.8c20.3,8.6,44.6,14,64.9,14.3h1.3c14.1,0,23.4-3.4,28.3-10.3c8.5-11.9,2.5-31.7-4.4-51
			c-9.5-26.6-45.9-30.3-61.2-30.7h-0.7c-19.4-0.7-37.8,6.7-50.4,20.2c-8.5,9.2-13.3,20.3-12.3,29C722,432.5,734.5,442.9,755.4,451.8
			z M734.8,395.6c11.7-12.6,28.5-19.6,46.4-19.6c0.8,0,1.6,0,2.5,0h0.7c14.8,0.4,50.3,4,59.3,29.4c6.7,18.8,12.5,38.1,4.6,49.1
			c-4.7,6.6-13.9,9.7-28,9.5c-20.1-0.3-44.1-5.6-64.2-14.1c-19.9-8.4-32.3-18.5-33.2-26.9C722.1,414.8,726.6,404.3,734.8,395.6
			L734.8,395.6z"/>
		<path style="fill:#2B2B2B;" d="M810.8,602.5c4.9,3.9,13,5.5,21.6,5.5c13.1,0,27.2-3.7,32.2-8.7c10.1-9.9,0.5-19.8-8.8-29.4
			c-1.9-2-4-4.1-5.8-6.1c-3.4-4.1-8.6-6.3-13.9-5.8c-8.5,0.7-17.8,7.5-24.3,17.8C802.2,590.7,806,598.5,810.8,602.5z M813.5,576.8
			c6.2-9.8,15-16.2,22.8-16.9c0.4,0,0.8,0,1.3,0c4.3,0,8.3,1.9,11,5.2c1.9,2.1,3.9,4.2,5.8,6.2c9.4,9.7,17.5,18.1,8.9,26.6
			c-7,6.9-39.2,12.8-51.2,3C806,596,806.5,587.8,813.5,576.8L813.5,576.8z"/>
	</g>
</g>
</svg>
