
<svg version="1.1" id="phone-icon" xmlns="http://www.w3.org/2000/svg" xmlns:xlink="http://www.w3.org/1999/xlink" x="0px" y="0px"
	 width="33.96px" height="48.492px" viewBox="238.465 11.883 33.96 48.492" enable-background="new 238.465 11.883 33.96 48.492"
	 xml:space="preserve">
<g>
	<path fill="#FFFFFF" d="M248.546,12.604l3.18,11.51c0.151,0.757,0,1.515-0.606,1.969l-4.089,3.18c-0.757,0.606-0.303,1.06,0,1.817
		c2.12,5.149,4.846,9.995,8.329,14.539c0.606,0.605,0.757,1.211,1.666,0.909l4.695-1.969c0.757-0.303,1.514-0.151,2.12,0.455
		l8.329,8.632c0.606,0.454,0,1.363-0.454,1.969c-2.12,2.423-4.089,4.543-6.664,4.24c-13.933-1.817-30.894-31.349-25.594-44.221
		c1.06-2.423,3.938-3.029,6.966-3.634C247.334,11.847,248.243,11.695,248.546,12.604z"/>
</g>
</svg>
