
<svg version="1.1" id="iser-icon" xmlns="http://www.w3.org/2000/svg" xmlns:xlink="http://www.w3.org/1999/xlink" x="0px" y="0px"
	 width="35.943px" height="49.167px" viewBox="13.333 13.167 35.943 49.167" enable-background="new 13.333 13.167 35.943 49.167"
	 xml:space="preserve">
<path fill="#FFFFFF" d="M49.277,45.326c-2.021,3.007-4.795,5.464-8.053,7.104c-0.083-0.179-0.188-0.349-0.312-0.505
	c-0.343-0.431-0.819-0.74-1.349-0.876c0.698-0.965,0.628-2.285-0.179-3.17l-0.483-0.529l-0.483-0.529
	c-0.474-0.52-1.151-0.818-1.856-0.818c-0.467,0-0.923,0.129-1.321,0.374c-0.182-1.187-1.168-2.079-2.374-2.133l-0.72-0.033
	l-0.72-0.033c-0.037-0.002-0.076-0.003-0.114-0.003l0,0c-1.145,0-2.157,0.792-2.44,1.895c-0.423-0.3-0.937-0.464-1.456-0.464
	c-0.629,0-1.23,0.233-1.694,0.657l-0.528,0.483l-0.529,0.483c-0.888,0.811-1.075,2.126-0.459,3.153
	c-1.039,0.178-1.842,0.972-2.044,1.984c-3.203-1.638-5.933-4.071-7.928-7.04c0.375-0.221,0.804-0.399,1.295-0.52
	c5.005-1.233,9.299-3.316,9.33-3.331c0.409-0.675,0.624-1.649,0.731-2.344c-1.277-1.675-1.871-3.684-2.134-5.408
	c-0.47-0.038-1.092-0.707-1.759-3.092c-0.913-3.264,0.057-3.746,0.878-3.668c-0.604-1.714-0.616-3.401-0.211-4.961
	c0.426-1.837,1.407-3.309,2.508-4.447c0.695-0.749,1.483-1.403,2.319-1.939c0.68-0.478,1.433-0.887,2.253-1.168l0.001,0l0,0
	c0.642-0.219,1.325-0.361,2.049-0.396c2.235-0.196,3.929,0.371,5.146,1.1c1.816,1.014,2.505,2.354,2.505,2.354
	s4.569,0.325,2.569,10.013l0,0c0.615,0.215,1.048,1.068,0.336,3.614c-0.876,3.133-1.673,3.306-2.153,2.976
	c-0.281,1.602-0.857,3.399-1.991,4.931c0.113,0.771,0.363,1.947,0.885,2.643c0,0,4.167,1.886,9.19,3.124
	C48.473,44.927,48.901,45.105,49.277,45.326z M37.504,55.639c-0.167,0.544-0.405,1.054-0.713,1.521l0.789,1.225
	c0.146,0.228,0.106,0.525-0.09,0.705l-0.529,0.483l-0.529,0.483c-0.104,0.095-0.237,0.143-0.37,0.143
	c-0.119,0-0.239-0.039-0.34-0.117l-1.149-0.897c-0.493,0.264-1.021,0.454-1.579,0.572l-0.305,1.423
	c-0.056,0.256-0.285,0.437-0.541,0.437c-0.008,0-0.017,0-0.024,0l-0.721-0.033l-0.72-0.033c-0.272-0.012-0.49-0.217-0.523-0.485
	l-0.175-1.445c-0.526-0.16-1.028-0.398-1.483-0.691l-1.232,0.795c-0.092,0.059-0.196,0.087-0.299,0.087
	c-0.15,0-0.299-0.062-0.405-0.178l-0.483-0.529l-0.483-0.529c-0.18-0.197-0.192-0.496-0.026-0.71l0.89-1.136
	c-0.257-0.486-0.46-1.016-0.579-1.574l-1.435-0.312c-0.264-0.058-0.448-0.3-0.436-0.566l0.033-0.72l0.033-0.721
	c0.012-0.272,0.217-0.49,0.485-0.523l1.432-0.176c0.162-0.545,0.399-1.054,0.7-1.522l-0.796-1.232
	c-0.146-0.228-0.106-0.525,0.091-0.705l0.529-0.483l0.529-0.483c0.104-0.095,0.236-0.143,0.37-0.143c0.119,0,0.239,0.039,0.34,0.117
	l1.129,0.903c0.486-0.257,1.015-0.461,1.574-0.579l0.312-1.436c0.056-0.256,0.285-0.437,0.542-0.437c0.008,0,0.017,0,0.024,0
	l0.72,0.033l0.72,0.033c0.272,0.013,0.49,0.217,0.524,0.485l0.175,1.432c0.565,0.162,1.086,0.407,1.56,0.721l1.226-0.79
	c0.092-0.059,0.196-0.087,0.299-0.087c0.15,0,0.298,0.062,0.405,0.178l0.483,0.529l0.483,0.529c0.18,0.197,0.192,0.496,0.026,0.709
	l-0.897,1.149c0.264,0.493,0.454,1.021,0.572,1.579l1.422,0.305c0.258,0.058,0.442,0.293,0.443,0.553l-0.033,0.72l-0.033,0.72
	c-0.012,0.272-0.217,0.49-0.485,0.523L37.504,55.639z M31.951,50.726c-0.049-0.002-0.098-0.003-0.146-0.003
	c-1.679,0-3.077,1.322-3.154,3.017c-0.079,1.743,1.27,3.22,3.013,3.3c0.049,0.002,0.098,0.003,0.146,0.003
	c1.679,0,3.077-1.322,3.154-3.016C35.043,52.282,33.694,50.804,31.951,50.726z"/>
</svg>
